{
.appVersion = "1141";
DisplayStrings = (
"/Ydieresis"
);
copyright = "Copyright 2009 The Orbitron Authors (https://github.com/theleagueof/orbitron)";
customParameters = (
{
name = openTypeNameLicense;
value = "This Font Software is licensed under the SIL Open Font License, Version 1.1. This license is available with a FAQ at: http://scripts.sil.org/OFL";
},
{
name = openTypeNameLicenseURL;
value = "http://scripts.sil.org/OFL";
},
{
name = Axes;
value = (
{
Name = Weight;
Tag = wght;
}
);
}
);
date = "2011-05-25 19:46:57 +0000";
designer = "Matt McInerney";
designerURL = "http://matt.cc/";
familyName = Orbitron;
fontMaster = (
{
ascender = 750;
capHeight = 720;
descender = -250;
iconName = Light;
id = "17A5F7C0-AED1-4270-89BA-BFDC1003B8A5";
userData = {
GSCornerRadius = 15;
};
weightValue = 400;
widthValue = 5;
xHeight = 580;
},
{
ascender = 750;
capHeight = 720;
custom = Black;
descender = -250;
iconName = Bold;
id = "D465923C-ABAE-4975-85A4-08C1BC9DA335";
userData = {
GSCornerRadius = 32;
};
weightValue = 900;
widthValue = 5;
xHeight = 580;
}
);
glyphs = (
{
color = 4;
glyphname = A;
lastChange = "2018-06-21 21:12:53 +0000";
layers = (
{
layerId = "17A5F7C0-AED1-4270-89BA-BFDC1003B8A5";
paths = (
{
closed = 1;
nodes = (
"139 0 LINE",
"139 263 LINE",
"697 263 LINE",
"697 0 LINE",
"778 0 LINE",
"778 600 LINE SMOOTH",
"778 650 OFFCURVE",
"708 720 OFFCURVE",
"658 720 QCURVE SMOOTH",
"178 720 LINE SMOOTH",
"128 720 OFFCURVE",
"58 650 OFFCURVE",
"58 600 QCURVE SMOOTH",
"58 0 LINE"
);
},
{
closed = 1;
nodes = (
"139 600 LINE SMOOTH",
"139 615.672 OFFCURVE",
"162.328 639 OFFCURVE",
"178 639 QCURVE SMOOTH",
"658 639 LINE SMOOTH",
"673.672 639 OFFCURVE",
"697 615.672 OFFCURVE",
"697 600 QCURVE SMOOTH",
"697 344 LINE",
"139 344 LINE"
);
}
);
width = 836;
},
{
layerId = "D465923C-ABAE-4975-85A4-08C1BC9DA335";
paths = (
{
closed = 1;
nodes = (
"213 0 LINE",
"213 232 LINE",
"621 232 LINE",
"621 0 LINE",
"778 0 LINE",
"778 572 LINE SMOOTH",
"778 633.194 OFFCURVE",
"690.194 720 OFFCURVE",
"629 720 QCURVE SMOOTH",
"206 720 LINE SMOOTH",
"144.806 720 OFFCURVE",
"58 633.194 OFFCURVE",
"58 572 QCURVE SMOOTH",
"58 0 LINE"
);
},
{
closed = 1;
nodes = (
"213 531 LINE SMOOTH",
"213 564 OFFCURVE",
"213 564 OFFCURVE",
"246 564 QCURVE SMOOTH",
"588 564 LINE SMOOTH",
"621 564 OFFCURVE",
"621 564 OFFCURVE",
"621 531 QCURVE SMOOTH",
"621 388 LINE",
"213 388 LINE"
);
}
);
width = 836;
}
);
unicode = 0041;
},
{
color = 4;
glyphname = Aacute;
lastChange = "2018-06-22 01:23:50 +0000";
layers = (
{
layerId = "17A5F7C0-AED1-4270-89BA-BFDC1003B8A5";
paths = (
{
closed = 1;
nodes = (
"139 0 LINE",
"139 263 LINE",
"697 263 LINE",
"697 0 LINE",
"778 0 LINE",
"778 600 LINE SMOOTH",
"778 650 OFFCURVE",
"708 720 OFFCURVE",
"658 720 QCURVE SMOOTH",
"178 720 LINE SMOOTH",
"128 720 OFFCURVE",
"58 650 OFFCURVE",
"58 600 QCURVE SMOOTH",
"58 0 LINE"
);
},
{
closed = 1;
nodes = (
"139 600 LINE SMOOTH",
"139 616 OFFCURVE",
"162 639 OFFCURVE",
"178 639 QCURVE SMOOTH",
"658 639 LINE SMOOTH",
"674 639 OFFCURVE",
"697 616 OFFCURVE",
"697 600 QCURVE SMOOTH",
"697 344 LINE",
"139 344 LINE"
);
},
{
closed = 1;
nodes = (
"424 864 LINE",
"458 1003 LINE",
"379 1003 LINE",
"344 864 LINE"
);
}
);
width = 836;
},
{
layerId = "D465923C-ABAE-4975-85A4-08C1BC9DA335";
paths = (
{
closed = 1;
nodes = (
"213 0 LINE",
"213 232 LINE",
"621 232 LINE",
"621 0 LINE",
"778 0 LINE",
"778 572 LINE SMOOTH",
"778 633.194 OFFCURVE",
"690.194 720 OFFCURVE",
"629 720 QCURVE SMOOTH",
"206 720 LINE SMOOTH",
"144.806 720 OFFCURVE",
"58 633.194 OFFCURVE",
"58 572 QCURVE SMOOTH",
"58 0 LINE"
);
},
{
closed = 1;
nodes = (
"213 531 LINE SMOOTH",
"213 564 OFFCURVE",
"213 564 OFFCURVE",
"246 564 QCURVE SMOOTH",
"588 564 LINE SMOOTH",
"621 564 OFFCURVE",
"621 564 OFFCURVE",
"621 531 QCURVE SMOOTH",
"621 388 LINE",
"213 388 LINE"
);
},
{
closed = 1;
nodes = (
"491 769 LINE",
"542 972 LINE",
"385 972 LINE",
"334 769 LINE"
);
}
);
width = 836;
}
);
unicode = 00C1;
},
{
color = 4;
glyphname = Acircumflex;
lastChange = "2018-06-22 01:25:46 +0000";
layers = (
{
layerId = "17A5F7C0-AED1-4270-89BA-BFDC1003B8A5";
paths = (
{
closed = 1;
nodes = (
"139 0 LINE",
"139 263 LINE",
"697 263 LINE",
"697 0 LINE",
"778 0 LINE",
"778 600 LINE SMOOTH",
"778 650 OFFCURVE",
"708 720 OFFCURVE",
"658 720 QCURVE SMOOTH",
"178 720 LINE SMOOTH",
"128 720 OFFCURVE",
"58 650 OFFCURVE",
"58 600 QCURVE SMOOTH",
"58 0 LINE"
);
},
{
closed = 1;
nodes = (
"139 600 LINE SMOOTH",
"139 615.672 OFFCURVE",
"162.328 639 OFFCURVE",
"178 639 QCURVE SMOOTH",
"658 639 LINE SMOOTH",
"673.672 639 OFFCURVE",
"697 615.672 OFFCURVE",
"697 600 QCURVE SMOOTH",
"697 344 LINE",
"139 344 LINE"
);
},
{
closed = 1;
nodes = (
"337 864 LINE",
"397 949 LINE",
"455 864 LINE",
"497 864 LINE",
"426 981 LINE",
"367 981 LINE",
"296 864 LINE"
);
}
);
width = 836;
},
{
layerId = "D465923C-ABAE-4975-85A4-08C1BC9DA335";
paths = (
{
closed = 1;
nodes = (
"213 0 LINE",
"213 232 LINE",
"621 232 LINE",
"621 0 LINE",
"778 0 LINE",
"778 572 LINE SMOOTH",
"778 633.194 OFFCURVE",
"690.194 720 OFFCURVE",
"629 720 QCURVE SMOOTH",
"206 720 LINE SMOOTH",
"144.806 720 OFFCURVE",
"58 633.194 OFFCURVE",
"58 572 QCURVE SMOOTH",
"58 0 LINE"
);
},
{
closed = 1;
nodes = (
"213 531 LINE SMOOTH",
"213 564 OFFCURVE",
"213 564 OFFCURVE",
"246 564 QCURVE SMOOTH",
"588 564 LINE SMOOTH",
"621 564 OFFCURVE",
"621 564 OFFCURVE",
"621 531 QCURVE SMOOTH",
"621 388 LINE",
"213 388 LINE"
);
},
{
closed = 1;
nodes = (
"399 769 LINE",
"424 813 LINE",
"452 769 LINE",
"586 769 LINE",
"476 953 LINE",
"376 953 LINE",
"266 769 LINE"
);
}
);
width = 836;
}
);
unicode = 00C2;
},
{
color = 4;
glyphname = Adieresis;
lastChange = "2018-06-22 01:29:13 +0000";
layers = (
{
layerId = "17A5F7C0-AED1-4270-89BA-BFDC1003B8A5";
paths = (
{
closed = 1;
nodes = (
"139 0 LINE",
"139 263 LINE",
"697 263 LINE",
"697 0 LINE",
"778 0 LINE",
"778 600 LINE SMOOTH",
"778 650 OFFCURVE",
"708 720 OFFCURVE",
"658 720 QCURVE SMOOTH",
"178 720 LINE SMOOTH",
"128 720 OFFCURVE",
"58 650 OFFCURVE",
"58 600 QCURVE SMOOTH",
"58 0 LINE"
);
},
{
closed = 1;
nodes = (
"139 600 LINE SMOOTH",
"139 615.672 OFFCURVE",
"162.328 639 OFFCURVE",
"178 639 QCURVE SMOOTH",
"658 639 LINE SMOOTH",
"673.672 639 OFFCURVE",
"697 615.672 OFFCURVE",
"697 600 QCURVE SMOOTH",
"697 344 LINE",
"139 344 LINE"
);
},
{
closed = 1;
nodes = (
"362 855 LINE",
"362 937 LINE",
"279 937 LINE",
"279 855 LINE"
);
},
{
closed = 1;
nodes = (
"541 855 LINE",
"541 937 LINE",
"459 937 LINE",
"459 855 LINE"
);
}
);
width = 836;
},
{
layerId = "D465923C-ABAE-4975-85A4-08C1BC9DA335";
paths = (
{
closed = 1;
nodes = (
"213 0 LINE",
"213 232 LINE",
"621 232 LINE",
"621 0 LINE",
"778 0 LINE",
"778 572 LINE SMOOTH",
"778 633.194 OFFCURVE",
"690.194 720 OFFCURVE",
"629 720 QCURVE SMOOTH",
"206 720 LINE SMOOTH",
"144.806 720 OFFCURVE",
"58 633.194 OFFCURVE",
"58 572 QCURVE SMOOTH",
"58 0 LINE"
);
},
{
closed = 1;
nodes = (
"213 531 LINE SMOOTH",
"213 564 OFFCURVE",
"213 564 OFFCURVE",
"246 564 QCURVE SMOOTH",
"588 564 LINE SMOOTH",
"621 564 OFFCURVE",
"621 564 OFFCURVE",
"621 531 QCURVE SMOOTH",
"621 388 LINE",
"213 388 LINE"
);
},
{
closed = 1;
nodes = (
"392 770 LINE",
"392 924 LINE",
"239 924 LINE",
"239 770 LINE"
);
},
{
closed = 1;
nodes = (
"606 770 LINE",
"606 924 LINE",
"452 924 LINE",
"452 770 LINE"
);
}
);
width = 836;
}
);
unicode = 00C4;
},
{
color = 4;
glyphname = Agrave;
lastChange = "2018-06-21 20:52:54 +0000";
layers = (
{
layerId = "17A5F7C0-AED1-4270-89BA-BFDC1003B8A5";
paths = (
{
closed = 1;
nodes = (
"139 0 LINE",
"139 263 LINE",
"697 263 LINE",
"697 0 LINE",
"778 0 LINE",
"778 600 LINE SMOOTH",
"778 650 OFFCURVE",
"708 720 OFFCURVE",
"658 720 QCURVE SMOOTH",
"178 720 LINE SMOOTH",
"128 720 OFFCURVE",
"58 650 OFFCURVE",
"58 600 QCURVE SMOOTH",
"58 0 LINE"
);
},
{
closed = 1;
nodes = (
"139 600 LINE SMOOTH",
"139 616 OFFCURVE",
"162.328 639 OFFCURVE",
"178 639 QCURVE SMOOTH",
"658 639 LINE SMOOTH",
"673.672 639 OFFCURVE",
"697 615.672 OFFCURVE",
"697 600 QCURVE SMOOTH",
"697 344 LINE",
"139 344 LINE"
);
},
{
closed = 1;
nodes = (
"459 865 LINE",
"425 1004 LINE",
"344 1004 LINE",
"379 865 LINE"
);
}
);
width = 836;
},
{
layerId = "D465923C-ABAE-4975-85A4-08C1BC9DA335";
paths = (
{
closed = 1;
nodes = (
"213 0 LINE",
"213 232 LINE",
"621 232 LINE",
"621 0 LINE",
"778 0 LINE",
"778 572 LINE SMOOTH",
"778 633.194 OFFCURVE",
"690.194 720 OFFCURVE",
"629 720 QCURVE SMOOTH",
"206 720 LINE SMOOTH",
"144.806 720 OFFCURVE",
"58 633.194 OFFCURVE",
"58 572 QCURVE SMOOTH",
"58 0 LINE"
);
},
{
closed = 1;
nodes = (
"213 531 LINE SMOOTH",
"213 564 OFFCURVE",
"213 564 OFFCURVE",
"246 564 QCURVE SMOOTH",
"588 564 LINE SMOOTH",
"621 564 OFFCURVE",
"621 564 OFFCURVE",
"621 531 QCURVE SMOOTH",
"621 388 LINE",
"213 388 LINE"
);
},
{
closed = 1;
nodes = (
"502 770 LINE",
"451 973 LINE",
"294 973 LINE",
"345 770 LINE"
);
}
);
width = 836;
}
);
unicode = 00C0;
},
{
color = 4;
glyphname = Atilde;
lastChange = "2018-06-22 01:52:40 +0000";
layers = (
{
layerId = "17A5F7C0-AED1-4270-89BA-BFDC1003B8A5";
paths = (
{
closed = 1;
nodes = (
"139 0 LINE",
"139 263 LINE",
"697 263 LINE",
"697 0 LINE",
"778 0 LINE",
"778 600 LINE SMOOTH",
"778 650 OFFCURVE",
"708 720 OFFCURVE",
"658 720 QCURVE SMOOTH",
"178 720 LINE SMOOTH",
"128 720 OFFCURVE",
"58 650 OFFCURVE",
"58 600 QCURVE SMOOTH",
"58 0 LINE"
);
},
{
closed = 1;
nodes = (
"139 600 LINE SMOOTH",
"139 615.672 OFFCURVE",
"162.328 639 OFFCURVE",
"178 639 QCURVE SMOOTH",
"658 639 LINE SMOOTH",
"673.672 639 OFFCURVE",
"697 615.672 OFFCURVE",
"697 600 QCURVE SMOOTH",
"697 344 LINE",
"139 344 LINE"
);
},
{
closed = 1;
nodes = (
"532.91 869 OFFCURVE",
"566.821 877.776 OFFCURVE",
"581 883 QCURVE",
"581 934 LINE",
"565.328 926.537 OFFCURVE",
"531 917 OFFCURVE",
"515 917 QCURVE SMOOTH",
"435 917 OFFCURVE",
"365 989 OFFCURVE",
"304 989 QCURVE SMOOTH",
"286.09 989 OFFCURVE",
"255.433 984.478 OFFCURVE",
"242 980 QCURVE",
"242 933 LINE",
"256.925 938.224 OFFCURVE",
"292.06 941 OFFCURVE",
"304 941 QCURVE SMOOTH",
"365.194 941 OFFCURVE",
"461.269 869 OFFCURVE",
"515 869 QCURVE SMOOTH"
);
}
);
width = 836;
},
{
layerId = "D465923C-ABAE-4975-85A4-08C1BC9DA335";
paths = (
{
closed = 1;
nodes = (
"213 0 LINE",
"213 232 LINE",
"621 232 LINE",
"621 0 LINE",
"778 0 LINE",
"778 572 LINE SMOOTH",
"778 633.194 OFFCURVE",
"690.194 720 OFFCURVE",
"629 720 QCURVE SMOOTH",
"206 720 LINE SMOOTH",
"144.806 720 OFFCURVE",
"58 633.194 OFFCURVE",
"58 572 QCURVE SMOOTH",
"58 0 LINE"
);
},
{
closed = 1;
nodes = (
"213 531 LINE SMOOTH",
"213 564 OFFCURVE",
"213 564 OFFCURVE",
"246 564 QCURVE SMOOTH",
"588 564 LINE SMOOTH",
"621 564 OFFCURVE",
"621 564 OFFCURVE",
"621 531 QCURVE SMOOTH",
"621 388 LINE",
"213 388 LINE"
);
},
{
closed = 1;
nodes = (
"503.373 774 OFFCURVE",
"553.866 790.299 OFFCURVE",
"577 800 QCURVE",
"577 926 LINE",
"543.418 904.358 OFFCURVE",
"497.418 889 OFFCURVE",
"481 889 QCURVE",
"430.254 895.716 OFFCURVE",
"349.239 951 OFFCURVE",
"297 951 QCURVE SMOOTH",
"274.612 951 OFFCURVE",
"224.388 932.955 OFFCURVE",
"202 924 QCURVE",
"202 800 LINE",
"236.328 829.104 OFFCURVE",
"274.06 836 OFFCURVE",
"286 836 QCURVE SMOOTH",
"351 836 OFFCURVE",
"420 774 OFFCURVE",
"478 774 QCURVE SMOOTH"
);
}
);
width = 836;
}
);
unicode = 00C3;
},
{
color = 4;
glyphname = AE;
lastChange = "2018-06-22 02:08:06 +0000";
layers = (
{
layerId = "17A5F7C0-AED1-4270-89BA-BFDC1003B8A5";
paths = (
{
closed = 1;
nodes = (
"135 0 LINE",
"135 263 LINE",
"693 263 LINE",
"693 0 LINE",
"1350 0 LINE",
"1350 81 LINE",
"774 81 LINE",
"774 319 LINE",
"1237 319 LINE",
"1237 401 LINE",
"774 401 LINE",
"774 639 LINE",
"1350 639 LINE",
"1350 720 LINE",
"174 720 LINE SMOOTH",
"124 720 OFFCURVE",
"54 650 OFFCURVE",
"54 600 QCURVE SMOOTH",
"54 0 LINE"
);
},
{
closed = 1;
nodes = (
"135 600 LINE SMOOTH",
"135 615.672 OFFCURVE",
"158.328 639 OFFCURVE",
"174 639 QCURVE SMOOTH",
"654 639 LINE SMOOTH",
"669.672 639 OFFCURVE",
"693 615.672 OFFCURVE",
"693 600 QCURVE SMOOTH",
"693 344 LINE",
"135 344 LINE"
);
}
);
width = 1375;
},
{
layerId = "D465923C-ABAE-4975-85A4-08C1BC9DA335";
paths = (
{
closed = 1;
nodes = (
"211 0 LINE",
"211 232 LINE",
"619 232 LINE",
"619 0 LINE",
"1283 0 LINE",
"1283 156 LINE",
"774 156 LINE",
"774 282 LINE",
"1183 282 LINE",
"1183 438 LINE",
"774 438 LINE",
"774 564 LINE",
"1283 564 LINE",
"1283 720 LINE",
"202 720 LINE SMOOTH",
"141.552 720 OFFCURVE",
"54 633.194 OFFCURVE",
"54 572 QCURVE SMOOTH",
"54 0 LINE"
);
},
{
closed = 1;
nodes = (
"211 531 LINE SMOOTH",
"211 564 OFFCURVE",
"211 564 OFFCURVE",
"244 564 QCURVE SMOOTH",
"586 564 LINE SMOOTH",
"619 564 OFFCURVE",
"619 564 OFFCURVE",
"619 531 QCURVE SMOOTH",
"619 388 LINE",
"211 388 LINE"
);
}
);
width = 1375;
}
);
unicode = 00C6;
},
{
color = 4;
glyphname = B;
lastChange = "2018-06-21 21:12:37 +0000";
layers = (
{
layerId = "17A5F7C0-AED1-4270-89BA-BFDC1003B8A5";
paths = (
{
closed = 1;
nodes = (
"659 0 LINE SMOOTH",
"709 0 OFFCURVE",
"779 70 OFFCURVE",
"779 120 QCURVE SMOOTH",
"779 288 LINE SMOOTH",
"779 313.373 OFFCURVE",
"757 361 OFFCURVE",
"735 394 QCURVE",
"740.97 405.94 OFFCURVE",
"748 432.821 OFFCURVE",
"748 447 QCURVE SMOOTH",
"748 600 LINE SMOOTH",
"748 650 OFFCURVE",
"678 720 OFFCURVE",
"628 720 QCURVE SMOOTH",
"59 720 LINE",
"59 0 LINE"
);
},
{
closed = 1;
nodes = (
"163.328 81 OFFCURVE",
"140 104.328 OFFCURVE",
"140 120 QCURVE SMOOTH",
"140 288 LINE SMOOTH",
"140 303.672 OFFCURVE",
"163.328 327 OFFCURVE",
"179 327 QCURVE SMOOTH",
"659 327 LINE SMOOTH",
"674.672 327 OFFCURVE",
"698 303.672 OFFCURVE",
"698 288 QCURVE SMOOTH",
"698 120 LINE SMOOTH",
"698 104.328 OFFCURVE",
"674.672 81 OFFCURVE",
"659 81 QCURVE SMOOTH",
"179 81 LINE SMOOTH"
);
},
{
closed = 1;
nodes = (
"163.328 408 OFFCURVE",
"140 431.328 OFFCURVE",
"140 447 QCURVE SMOOTH",
"140 600 LINE SMOOTH",
"140 615.672 OFFCURVE",
"163.328 639 OFFCURVE",
"179 639 QCURVE SMOOTH",
"628 639 LINE SMOOTH",
"643.672 639 OFFCURVE",
"666 615.672 OFFCURVE",
"666 600 QCURVE SMOOTH",
"666 447 LINE SMOOTH",
"666 431.328 OFFCURVE",
"643.672 408 OFFCURVE",
"628 408 QCURVE SMOOTH",
"179 408 LINE SMOOTH"
);
}
);
width = 832;
},
{
layerId = "D465923C-ABAE-4975-85A4-08C1BC9DA335";
paths = (
{
closed = 1;
nodes = (
"630 0 LINE SMOOTH",
"691.194 0 OFFCURVE",
"779 86.806 OFFCURVE",
"779 148 QCURVE SMOOTH",
"779 297 LINE SMOOTH",
"779 322.373 OFFCURVE",
"758.925 372.343 OFFCURVE",
"744 391 QCURVE",
"747.731 400.702 OFFCURVE",
"751 424.313 OFFCURVE",
"751 437 QCURVE SMOOTH",
"751 572 LINE SMOOTH",
"751 633.194 OFFCURVE",
"663.448 720 OFFCURVE",
"603 720 QCURVE SMOOTH",
"59 720 LINE",
"59 0 LINE"
);
},
{
closed = 1;
nodes = (
"214 156 OFFCURVE",
"214 156 OFFCURVE",
"214 189 QCURVE SMOOTH",
"214 255 LINE SMOOTH",
"214 288 OFFCURVE",
"214 288 OFFCURVE",
"247 288 QCURVE SMOOTH",
"589 288 LINE SMOOTH",
"622 288 OFFCURVE",
"622 288 OFFCURVE",
"622 255 QCURVE SMOOTH",
"622 189 LINE SMOOTH",
"622 156 OFFCURVE",
"622 156 OFFCURVE",
"589 156 QCURVE SMOOTH",
"247 156 LINE SMOOTH"
);
},
{
closed = 1;
nodes = (
"214 444 OFFCURVE",
"214 444 OFFCURVE",
"214 477 QCURVE SMOOTH",
"214 531 LINE SMOOTH",
"214 564 OFFCURVE",
"214 564 OFFCURVE",
"247 564 QCURVE SMOOTH",
"561 564 LINE SMOOTH",
"594 564 OFFCURVE",
"594 564 OFFCURVE",
"594 531 QCURVE SMOOTH",
"594 477 LINE SMOOTH",
"594 444 OFFCURVE",
"594 444 OFFCURVE",
"561 444 QCURVE SMOOTH",
"247 444 LINE SMOOTH"
);
}
);
width = 832;
}
);
unicode = 0042;
},
{
color = 4;
glyphname = C;
lastChange = "2018-06-21 21:15:58 +0000";
layers = (
{
layerId = "17A5F7C0-AED1-4270-89BA-BFDC1003B8A5";
paths = (
{
closed = 1;
nodes = (
"774 720 LINE",
"176 720 LINE SMOOTH",
"126 720 OFFCURVE",
"56 650 OFFCURVE",
"56 600 QCURVE SMOOTH",
"56 120 LINE SMOOTH",
"56 70 OFFCURVE",
"126 0 OFFCURVE",
"176 0 QCURVE SMOOTH",
"774 0 LINE",
"774 81 LINE",
"176 81 LINE SMOOTH",
"160.328 81 OFFCURVE",
"137 104.328 OFFCURVE",
"137 120 QCURVE SMOOTH",
"137 600 LINE SMOOTH",
"137 615.672 OFFCURVE",
"160.328 639 OFFCURVE",
"176 639 QCURVE SMOOTH",
"774 639 LINE"
);
}
);
width = 822;
},
{
layerId = "D465923C-ABAE-4975-85A4-08C1BC9DA335";
paths = (
{
closed = 1;
nodes = (
"774 720 LINE",
"204 720 LINE SMOOTH",
"142.806 720 OFFCURVE",
"56 633.194 OFFCURVE",
"56 572 QCURVE SMOOTH",
"56 148 LINE SMOOTH",
"56 86.806 OFFCURVE",
"142.806 0 OFFCURVE",
"204 0 QCURVE SMOOTH",
"774 0 LINE",
"774 156 LINE",
"244 156 LINE SMOOTH",
"211 156 OFFCURVE",
"211 156 OFFCURVE",
"211 189 QCURVE SMOOTH",
"211 531 LINE SMOOTH",
"211 564 OFFCURVE",
"211 564 OFFCURVE",
"244 564 QCURVE SMOOTH",
"774 564 LINE"
);
}
);
width = 822;
}
);
unicode = 0043;
},
{
color = 4;
glyphname = Ccedilla;
lastChange = "2018-06-22 04:06:59 +0000";
layers = (
{
layerId = "17A5F7C0-AED1-4270-89BA-BFDC1003B8A5";
paths = (
{
closed = 1;
nodes = (
"417 -139 LINE",
"451 0 LINE",
"774 0 LINE",
"774 81 LINE",
"176 81 LINE SMOOTH",
"160.328 81 OFFCURVE",
"137 104.328 OFFCURVE",
"137 120 QCURVE SMOOTH",
"137 600 LINE SMOOTH",
"137 615.672 OFFCURVE",
"160.328 639 OFFCURVE",
"176 639 QCURVE SMOOTH",
"774 639 LINE",
"774 720 LINE",
"176 720 LINE SMOOTH",
"126 720 OFFCURVE",
"56 650 OFFCURVE",
"56 600 QCURVE SMOOTH",
"56 120 LINE SMOOTH",
"56 70 OFFCURVE",
"126 0 OFFCURVE",
"176 0 QCURVE SMOOTH",
"372 0 LINE",
"337 -139 LINE"
);
}
);
width = 822;
},
{
layerId = "D465923C-ABAE-4975-85A4-08C1BC9DA335";
paths = (
{
closed = 1;
nodes = (
"484 -156 LINE",
"531 0 LINE",
"774 0 LINE",
"774 156 LINE",
"244 156 LINE SMOOTH",
"211 156 OFFCURVE",
"211 156 OFFCURVE",
"211 189 QCURVE SMOOTH",
"211 531 LINE SMOOTH",
"211 564 OFFCURVE",
"211 564 OFFCURVE",
"244 564 QCURVE SMOOTH",
"774 564 LINE",
"774 720 LINE",
"204 720 LINE SMOOTH",
"142.806 720 OFFCURVE",
"56 633.194 OFFCURVE",
"56 572 QCURVE SMOOTH",
"56 148 LINE SMOOTH",
"56 86.806 OFFCURVE",
"142.806 0 OFFCURVE",
"204 0 QCURVE SMOOTH",
"374 0 LINE",
"327 -156 LINE"
);
}
);
width = 822;
}
);
unicode = 00C7;
},
{
color = 4;
glyphname = D;
lastChange = "2018-06-21 21:34:23 +0000";
layers = (
{
layerId = "17A5F7C0-AED1-4270-89BA-BFDC1003B8A5";
paths = (
{
closed = 1;
nodes = (
"658 0 LINE SMOOTH",
"708 0 OFFCURVE",
"778 70 OFFCURVE",
"778 120 QCURVE SMOOTH",
"778 600 LINE SMOOTH",
"778 650 OFFCURVE",
"708 720 OFFCURVE",
"658 720 QCURVE SMOOTH",
"58 720 LINE",
"58 0 LINE"
);
},
{
closed = 1;
nodes = (
"162.328 81 OFFCURVE",
"139 104.328 OFFCURVE",
"139 120 QCURVE SMOOTH",
"139 600 LINE SMOOTH",
"139 615.672 OFFCURVE",
"162.328 639 OFFCURVE",
"178 639 QCURVE SMOOTH",
"658 639 LINE SMOOTH",
"673.672 639 OFFCURVE",
"697 615.672 OFFCURVE",
"697 600 QCURVE SMOOTH",
"697 120 LINE SMOOTH",
"697 104.328 OFFCURVE",
"673.672 81 OFFCURVE",
"658 81 QCURVE SMOOTH",
"178 81 LINE SMOOTH"
);
}
);
width = 834;
},
{
layerId = "D465923C-ABAE-4975-85A4-08C1BC9DA335";
paths = (
{
closed = 1;
nodes = (
"629 0 LINE SMOOTH",
"690.194 0 OFFCURVE",
"778 86.806 OFFCURVE",
"778 148 QCURVE SMOOTH",
"778 572 LINE SMOOTH",
"778 633.194 OFFCURVE",
"690.194 720 OFFCURVE",
"629 720 QCURVE SMOOTH",
"58 720 LINE",
"58 0 LINE"
);
},
{
closed = 1;
nodes = (
"213 156 OFFCURVE",
"213 156 OFFCURVE",
"213 189 QCURVE SMOOTH",
"213 531 LINE SMOOTH",
"213 564 OFFCURVE",
"213 564 OFFCURVE",
"246 564 QCURVE SMOOTH",
"588 564 LINE SMOOTH",
"621 564 OFFCURVE",
"621 564 OFFCURVE",
"621 531 QCURVE SMOOTH",
"621 189 LINE SMOOTH",
"621 156 OFFCURVE",
"621 156 OFFCURVE",
"588 156 QCURVE SMOOTH",
"246 156 LINE SMOOTH"
);
}
);
width = 834;
}
);
unicode = 0044;
},
{
color = 4;
glyphname = E;
lastChange = "2018-06-21 21:35:00 +0000";
layers = (
{
layerId = "17A5F7C0-AED1-4270-89BA-BFDC1003B8A5";
paths = (
{
closed = 1;
nodes = (
"58 720 LINE",
"58 0 LINE",
"715 0 LINE",
"715 81 LINE",
"139 81 LINE",
"139 319 LINE",
"602 319 LINE",
"602 401 LINE",
"139 401 LINE",
"139 639 LINE",
"715 639 LINE",
"715 720 LINE"
);
}
);
width = 766;
},
{
layerId = "D465923C-ABAE-4975-85A4-08C1BC9DA335";
paths = (
{
closed = 1;
nodes = (
"58 720 LINE",
"58 0 LINE",
"723 0 LINE",
"723 156 LINE",
"215 156 LINE",
"215 282 LINE",
"624 282 LINE",
"624 438 LINE",
"215 438 LINE",
"215 564 LINE",
"723 564 LINE",
"723 720 LINE"
);
}
);
width = 766;
}
);
unicode = 0045;
},
{
color = 4;
glyphname = Eacute;
lastChange = "2018-06-22 04:07:08 +0000";
layers = (
{
layerId = "17A5F7C0-AED1-4270-89BA-BFDC1003B8A5";
paths = (
{
closed = 1;
nodes = (
"58 720 LINE",
"58 0 LINE",
"715 0 LINE",
"715 81 LINE",
"139 81 LINE",
"139 319 LINE",
"602 319 LINE",
"602 401 LINE",
"139 401 LINE",
"139 639 LINE",
"715 639 LINE",
"715 720 LINE"
);
},
{
closed = 1;
nodes = (
"389 865 LINE",
"423 1004 LINE",
"344 1004 LINE",
"309 865 LINE"
);
}
);
width = 766;
},
{
layerId = "D465923C-ABAE-4975-85A4-08C1BC9DA335";
paths = (
{
closed = 1;
nodes = (
"58 720 LINE",
"58 0 LINE",
"723 0 LINE",
"723 156 LINE",
"215 156 LINE",
"215 282 LINE",
"624 282 LINE",
"624 438 LINE",
"215 438 LINE",
"215 564 LINE",
"723 564 LINE",
"723 720 LINE"
);
},
{
closed = 1;
nodes = (
"466 770 LINE",
"517 973 LINE",
"360 973 LINE",
"309 770 LINE"
);
}
);
width = 766;
}
);
unicode = 00C9;
},
{
color = 4;
glyphname = Ecircumflex;
lastChange = "2018-06-22 04:07:12 +0000";
layers = (
{
layerId = "17A5F7C0-AED1-4270-89BA-BFDC1003B8A5";
paths = (
{
closed = 1;
nodes = (
"58 720 LINE",
"58 0 LINE",
"715 0 LINE",
"715 81 LINE",
"139 81 LINE",
"139 319 LINE",
"602 319 LINE",
"602 401 LINE",
"139 401 LINE",
"139 639 LINE",
"715 639 LINE",
"715 720 LINE"
);
},
{
closed = 1;
nodes = (
"362 949 LINE",
"420 864 LINE",
"462 864 LINE",
"391 981 LINE",
"332 981 LINE",
"261 864 LINE",
"302 864 LINE"
);
}
);
width = 766;
},
{
layerId = "D465923C-ABAE-4975-85A4-08C1BC9DA335";
paths = (
{
closed = 1;
nodes = (
"58 720 LINE",
"58 0 LINE",
"723 0 LINE",
"723 156 LINE",
"215 156 LINE",
"215 282 LINE",
"624 282 LINE",
"624 438 LINE",
"215 438 LINE",
"215 564 LINE",
"723 564 LINE",
"723 720 LINE"
);
},
{
closed = 1;
nodes = (
"389 813 LINE",
"417 769 LINE",
"551 769 LINE",
"441 953 LINE",
"341 953 LINE",
"231 769 LINE",
"364 769 LINE"
);
}
);
width = 766;
}
);
unicode = 00CA;
},
{
color = 4;
glyphname = Edieresis;
lastChange = "2018-06-22 04:07:15 +0000";
layers = (
{
layerId = "17A5F7C0-AED1-4270-89BA-BFDC1003B8A5";
paths = (
{
closed = 1;
nodes = (
"58 720 LINE",
"58 0 LINE",
"715 0 LINE",
"715 81 LINE",
"139 81 LINE",
"139 319 LINE",
"602 319 LINE",
"602 401 LINE",
"139 401 LINE",
"139 639 LINE",
"715 639 LINE",
"715 720 LINE"
);
},
{
closed = 1;
nodes = (
"424 947 LINE",
"424 865 LINE",
"506 865 LINE",
"506 947 LINE"
);
},
{
closed = 1;
nodes = (
"244 947 LINE",
"244 865 LINE",
"327 865 LINE",
"327 947 LINE"
);
}
);
width = 766;
},
{
layerId = "D465923C-ABAE-4975-85A4-08C1BC9DA335";
paths = (
{
closed = 1;
nodes = (
"58 720 LINE",
"58 0 LINE",
"723 0 LINE",
"723 156 LINE",
"215 156 LINE",
"215 282 LINE",
"624 282 LINE",
"624 438 LINE",
"215 438 LINE",
"215 564 LINE",
"723 564 LINE",
"723 720 LINE"
);
},
{
closed = 1;
nodes = (
"427 924 LINE",
"427 770 LINE",
"581 770 LINE",
"581 924 LINE"
);
},
{
closed = 1;
nodes = (
"214 924 LINE",
"214 770 LINE",
"367 770 LINE",
"367 924 LINE"
);
}
);
width = 766;
}
);
unicode = 00CB;
},
{
color = 4;
glyphname = Egrave;
lastChange = "2018-06-22 04:31:01 +0000";
layers = (
{
layerId = "17A5F7C0-AED1-4270-89BA-BFDC1003B8A5";
paths = (
{
closed = 1;
nodes = (
"715 0 LINE",
"715 81 LINE",
"139 81 LINE",
"139 319 LINE",
"602 319 LINE",
"602 401 LINE",
"139 401 LINE",
"139 639 LINE",
"715 639 LINE",
"715 720 LINE",
"58 720 LINE",
"58 0 LINE"
);
},
{
closed = 1;
nodes = (
"424 865 LINE",
"390 1004 LINE",
"309 1004 LINE",
"344 865 LINE"
);
}
);
width = 766;
},
{
layerId = "D465923C-ABAE-4975-85A4-08C1BC9DA335";
paths = (
{
closed = 1;
nodes = (
"723 0 LINE",
"723 156 LINE",
"215 156 LINE",
"215 282 LINE",
"624 282 LINE",
"624 438 LINE",
"215 438 LINE",
"215 564 LINE",
"723 564 LINE",
"723 720 LINE",
"58 720 LINE",
"58 0 LINE"
);
},
{
closed = 1;
nodes = (
"487 770 LINE",
"436 973 LINE",
"279 973 LINE",
"330 770 LINE"
);
}
);
width = 766;
}
);
unicode = 00C8;
},
{
color = 4;
glyphname = F;
lastChange = "2018-06-21 21:35:03 +0000";
layers = (
{
layerId = "17A5F7C0-AED1-4270-89BA-BFDC1003B8A5";
paths = (
{
closed = 1;
nodes = (
"58 0 LINE",
"139 0 LINE",
"139 319 LINE",
"602 319 LINE",
"602 401 LINE",
"139 401 LINE",
"139 639 LINE",
"715 639 LINE",
"715 720 LINE",
"58 720 LINE"
);
}
);
width = 723;
},
{
layerId = "D465923C-ABAE-4975-85A4-08C1BC9DA335";
paths = (
{
closed = 1;
nodes = (
"58 0 LINE",
"215 0 LINE",
"215 282 LINE",
"624 282 LINE",
"624 438 LINE",
"215 438 LINE",
"215 564 LINE",
"723 564 LINE",
"723 720 LINE",
"58 720 LINE"
);
}
);
width = 723;
}
);
unicode = 0046;
},
{
color = 4;
glyphname = G;
lastChange = "2018-06-21 22:03:08 +0000";
layers = (
{
layerId = "17A5F7C0-AED1-4270-89BA-BFDC1003B8A5";
paths = (
{
closed = 1;
nodes = (
"656 0 LINE SMOOTH",
"706 0 OFFCURVE",
"776 70 OFFCURVE",
"776 120 QCURVE SMOOTH",
"776 380 LINE",
"517 380 LINE",
"517 298 LINE",
"695 298 LINE",
"695 120 LINE SMOOTH",
"695 104.328 OFFCURVE",
"671.672 81 OFFCURVE",
"656 81 QCURVE SMOOTH",
"176 81 LINE SMOOTH",
"160.328 81 OFFCURVE",
"137 104.328 OFFCURVE",
"137 120 QCURVE SMOOTH",
"137 600 LINE SMOOTH",
"137 615.672 OFFCURVE",
"160.328 639 OFFCURVE",
"176 639 QCURVE SMOOTH",
"656 639 LINE SMOOTH",
"671.672 639 OFFCURVE",
"695 615.672 OFFCURVE",
"695 600 QCURVE SMOOTH",
"695 571 LINE",
"776 571 LINE",
"776 600 LINE SMOOTH",
"776 650 OFFCURVE",
"706 720 OFFCURVE",
"656 720 QCURVE SMOOTH",
"176 720 LINE SMOOTH",
"126 720 OFFCURVE",
"56 650 OFFCURVE",
"56 600 QCURVE SMOOTH",
"56 120 LINE SMOOTH",
"56 70 OFFCURVE",
"126 0 OFFCURVE",
"176 0 QCURVE SMOOTH"
);
}
);
width = 830;
},
{
layerId = "D465923C-ABAE-4975-85A4-08C1BC9DA335";
paths = (
{
closed = 1;
nodes = (
"627 0 LINE SMOOTH",
"688.194 0 OFFCURVE",
"776 86.806 OFFCURVE",
"776 148 QCURVE SMOOTH",
"776 420 LINE",
"463 420 LINE",
"463 264 LINE",
"619 264 LINE",
"619 189 LINE SMOOTH",
"619 156 OFFCURVE",
"619 156 OFFCURVE",
"586 156 QCURVE SMOOTH",
"244 156 LINE SMOOTH",
"211 156 OFFCURVE",
"211 156 OFFCURVE",
"211 189 QCURVE SMOOTH",
"211 531 LINE SMOOTH",
"211 564 OFFCURVE",
"211 564 OFFCURVE",
"244 564 QCURVE SMOOTH",
"586 564 LINE SMOOTH",
"619 564 OFFCURVE",
"619 564 OFFCURVE",
"619 531 QCURVE SMOOTH",
"619 504 LINE",
"776 504 LINE",
"776 572 LINE SMOOTH",
"776 633.194 OFFCURVE",
"688.194 720 OFFCURVE",
"627 720 QCURVE SMOOTH",
"204 720 LINE SMOOTH",
"142.806 720 OFFCURVE",
"56 633.194 OFFCURVE",
"56 572 QCURVE SMOOTH",
"56 148 LINE SMOOTH",
"56 86.806 OFFCURVE",
"142.806 0 OFFCURVE",
"204 0 QCURVE SMOOTH"
);
}
);
width = 830;
}
);
unicode = 0047;
},
{
color = 4;
glyphname = H;
lastChange = "2018-06-22 04:31:17 +0000";
layers = (
{
layerId = "17A5F7C0-AED1-4270-89BA-BFDC1003B8A5";
paths = (
{
closed = 1;
nodes = (
"713 401 LINE",
"138 401 LINE",
"138 720 LINE",
"57 720 LINE",
"57 0 LINE",
"138 0 LINE",
"138 319 LINE",
"713 319 LINE",
"713 0 LINE",
"795 0 LINE",
"795 720 LINE",
"713 720 LINE"
);
}
);
width = 851;
},
{
layerId = "D465923C-ABAE-4975-85A4-08C1BC9DA335";
paths = (
{
closed = 1;
nodes = (
"637 438 LINE",
"212 438 LINE",
"212 720 LINE",
"57 720 LINE",
"57 0 LINE",
"212 0 LINE",
"212 282 LINE",
"637 282 LINE",
"637 0 LINE",
"792 0 LINE",
"792 720 LINE",
"637 720 LINE"
);
}
);
width = 851;
}
);
unicode = 0048;
},
{
color = 4;
glyphname = I;
lastChange = "2018-06-22 04:31:17 +0000";
layers = (
{
layerId = "17A5F7C0-AED1-4270-89BA-BFDC1003B8A5";
paths = (
{
closed = 1;
nodes = (
"138 0 LINE",
"138 720 LINE",
"57 720 LINE",
"57 0 LINE"
);
}
);
width = 220;
},
{
layerId = "D465923C-ABAE-4975-85A4-08C1BC9DA335";
paths = (
{
closed = 1;
nodes = (
"213 0 LINE",
"213 720 LINE",
"57 720 LINE",
"57 0 LINE"
);
}
);
width = 220;
}
);
unicode = 0049;
},
{
color = 4;
glyphname = Iacute;
lastChange = "2018-06-22 04:31:17 +0000";
layers = (
{
layerId = "17A5F7C0-AED1-4270-89BA-BFDC1003B8A5";
paths = (
{
closed = 1;
nodes = (
"138 0 LINE",
"138 720 LINE",
"57 720 LINE",
"57 0 LINE"
);
},
{
closed = 1;
nodes = (
"116 865 LINE",
"150 1004 LINE",
"71 1004 LINE",
"36 865 LINE"
);
}
);
width = 220;
},
{
layerId = "D465923C-ABAE-4975-85A4-08C1BC9DA335";
paths = (
{
closed = 1;
nodes = (
"198 0 LINE",
"198 720 LINE",
"42 720 LINE",
"42 0 LINE"
);
},
{
closed = 1;
nodes = (
"193 770 LINE",
"244 973 LINE",
"87 973 LINE",
"36 770 LINE"
);
}
);
width = 220;
}
);
unicode = 00CD;
},
{
color = 4;
glyphname = Icircumflex;
lastChange = "2018-06-22 04:31:17 +0000";
layers = (
{
layerId = "17A5F7C0-AED1-4270-89BA-BFDC1003B8A5";
paths = (
{
closed = 1;
nodes = (
"138 0 LINE",
"138 720 LINE",
"57 720 LINE",
"57 0 LINE"
);
},
{
closed = 1;
nodes = (
"89 949 LINE",
"147 864 LINE",
"189 864 LINE",
"118 981 LINE",
"59 981 LINE",
"-12 864 LINE",
"29 864 LINE"
);
}
);
width = 220;
},
{
layerId = "D465923C-ABAE-4975-85A4-08C1BC9DA335";
paths = (
{
closed = 1;
nodes = (
"218 0 LINE",
"218 720 LINE",
"62 720 LINE",
"62 0 LINE"
);
},
{
closed = 1;
nodes = (
"146 813 LINE",
"174 769 LINE",
"308 769 LINE",
"198 953 LINE",
"98 953 LINE",
"-12 769 LINE",
"121 769 LINE"
);
}
);
width = 220;
}
);
unicode = 00CE;
},
{
color = 4;
glyphname = Idieresis;
lastChange = "2018-06-22 04:31:17 +0000";
layers = (
{
layerId = "17A5F7C0-AED1-4270-89BA-BFDC1003B8A5";
paths = (
{
closed = 1;
nodes = (
"138 0 LINE",
"138 720 LINE",
"57 720 LINE",
"57 0 LINE"
);
},
{
closed = 1;
nodes = (
"151 947 LINE",
"151 865 LINE",
"233 865 LINE",
"233 947 LINE"
);
},
{
closed = 1;
nodes = (
"-29 947 LINE",
"-29 865 LINE",
"54 865 LINE",
"54 947 LINE"
);
}
);
width = 220;
},
{
layerId = "D465923C-ABAE-4975-85A4-08C1BC9DA335";
paths = (
{
closed = 1;
nodes = (
"230 0 LINE",
"230 720 LINE",
"74 720 LINE",
"74 0 LINE"
);
},
{
closed = 1;
nodes = (
"184 924 LINE",
"184 770 LINE",
"338 770 LINE",
"338 924 LINE"
);
},
{
closed = 1;
nodes = (
"-29 924 LINE",
"-29 770 LINE",
"124 770 LINE",
"124 924 LINE"
);
}
);
width = 220;
}
);
unicode = 00CF;
},
{
color = 4;
glyphname = Igrave;
lastChange = "2018-06-22 04:32:12 +0000";
layers = (
{
layerId = "17A5F7C0-AED1-4270-89BA-BFDC1003B8A5";
paths = (
{
closed = 1;
nodes = (
"138 0 LINE",
"138 720 LINE",
"57 720 LINE",
"57 0 LINE"
);
},
{
closed = 1;
nodes = (
"151 865 LINE",
"117 1004 LINE",
"36 1004 LINE",
"71 865 LINE"
);
}
);
width = 220;
},
{
layerId = "D465923C-ABAE-4975-85A4-08C1BC9DA335";
paths = (
{
closed = 1;
nodes = (
"251 0 LINE",
"251 720 LINE",
"95 720 LINE",
"95 0 LINE"
);
},
{
closed = 1;
nodes = (
"244 770 LINE",
"193 973 LINE",
"36 973 LINE",
"87 770 LINE"
);
}
);
width = 220;
}
);
unicode = 00CC;
},
{
color = 4;
glyphname = J;
lastChange = "2018-06-22 04:37:42 +0000";
layers = (
{
layerId = "17A5F7C0-AED1-4270-89BA-BFDC1003B8A5";
paths = (
{
closed = 1;
nodes = (
"604 0 LINE SMOOTH",
"654 0 OFFCURVE",
"724 70 OFFCURVE",
"724 120 QCURVE SMOOTH",
"724 720 LINE",
"643 720 LINE",
"643 120 LINE SMOOTH",
"643 104.328 OFFCURVE",
"619.672 81 OFFCURVE",
"604 81 QCURVE SMOOTH",
"124 81 LINE SMOOTH",
"108.328 81 OFFCURVE",
"85 104.328 OFFCURVE",
"85 120 QCURVE SMOOTH",
"85 177 LINE",
"4 177 LINE",
"4 120 LINE SMOOTH",
"4 70 OFFCURVE",
"74 0 OFFCURVE",
"124 0 QCURVE SMOOTH"
);
}
);
width = 780;
},
{
layerId = "D465923C-ABAE-4975-85A4-08C1BC9DA335";
paths = (
{
closed = 1;
nodes = (
"576 0 LINE SMOOTH",
"636.448 0 OFFCURVE",
"724 86.806 OFFCURVE",
"724 148 QCURVE SMOOTH",
"724 720 LINE",
"567 720 LINE",
"567 189 LINE SMOOTH",
"567 156 OFFCURVE",
"567 156 OFFCURVE",
"534 156 QCURVE SMOOTH",
"192 156 LINE SMOOTH",
"159 156 OFFCURVE",
"159 156 OFFCURVE",
"159 189 QCURVE SMOOTH",
"159 241 LINE",
"4 241 LINE",
"4 148 LINE SMOOTH",
"4 86.806 OFFCURVE",
"90.806 0 OFFCURVE",
"152 0 QCURVE SMOOTH"
);
}
);
width = 780;
}
);
unicode = 004A;
},
{
color = 4;
glyphname = K;
lastChange = "2018-06-22 04:45:45 +0000";
layers = (
{
layerId = "17A5F7C0-AED1-4270-89BA-BFDC1003B8A5";
paths = (
{
closed = 1;
nodes = (
"139 0 LINE",
"139 319 LINE",
"371 319 LINE",
"639 0 LINE",
"744 0 LINE",
"744 1 LINE",
"442 360 LINE",
"743 719 LINE",
"743 720 LINE",
"639 720 LINE",
"371 401 LINE",
"139 401 LINE",
"139 720 LINE",
"57 720 LINE",
"57 0 LINE"
);
}
);
width = 797;
},
{
layerId = "D465923C-ABAE-4975-85A4-08C1BC9DA335";
paths = (
{
closed = 1;
nodes = (
"213 0 LINE",
"213 282 LINE",
"354 282 LINE",
"590 0 LINE",
"752 0 LINE",
"752 54 LINE",
"495 360 LINE",
"752 666 LINE",
"752 720 LINE",
"590 720 LINE",
"374 438 LINE",
"213 438 LINE",
"213 720 LINE",
"57 720 LINE",
"57 0 LINE"
);
}
);
width = 797;
}
);
unicode = 004B;
},
{
color = 4;
glyphname = L;
lastChange = "2018-06-22 04:45:48 +0000";
layers = (
{
layerId = "17A5F7C0-AED1-4270-89BA-BFDC1003B8A5";
paths = (
{
closed = 1;
nodes = (
"777 0 LINE",
"777 81 LINE",
"138 81 LINE",
"138 721 LINE",
"57 721 LINE",
"57 0 LINE"
);
}
);
width = 779;
},
{
layerId = "D465923C-ABAE-4975-85A4-08C1BC9DA335";
paths = (
{
closed = 1;
nodes = (
"777 0 LINE",
"777 156 LINE",
"212 156 LINE",
"212 721 LINE",
"57 721 LINE",
"57 0 LINE"
);
}
);
width = 779;
}
);
unicode = 004C;
},
{
color = 4;
glyphname = M;
lastChange = "2018-06-22 04:48:26 +0000";
layers = (
{
layerId = "17A5F7C0-AED1-4270-89BA-BFDC1003B8A5";
paths = (
{
closed = 1;
nodes = (
"137 0 LINE",
"137 628 LINE",
"466 237 LINE",
"795 628 LINE",
"795 0 LINE",
"876 0 LINE",
"876 720 LINE",
"765 720 LINE",
"466 364 LINE",
"167 720 LINE",
"56 720 LINE",
"56 0 LINE"
);
}
);
width = 928;
},
{
layerId = "D465923C-ABAE-4975-85A4-08C1BC9DA335";
paths = (
{
closed = 1;
nodes = (
"211 0 LINE",
"211 482 LINE",
"460 187 LINE",
"708 483 LINE",
"708 0 LINE",
"864 0 LINE",
"864 720 LINE",
"703 720 LINE",
"460 429 LINE",
"216 720 LINE",
"56 720 LINE",
"56 0 LINE"
);
}
);
width = 928;
}
);
unicode = 004D;
},
{
color = 4;
glyphname = N;
lastChange = "2018-06-22 04:48:35 +0000";
layers = (
{
layerId = "17A5F7C0-AED1-4270-89BA-BFDC1003B8A5";
paths = (
{
closed = 1;
nodes = (
"167 720 LINE",
"56 720 LINE",
"56 0 LINE",
"137 0 LINE",
"137 628 LINE",
"665 0 LINE",
"776 0 LINE",
"776 720 LINE",
"695 720 LINE",
"695 92 LINE"
);
}
);
width = 832;
},
{
layerId = "D465923C-ABAE-4975-85A4-08C1BC9DA335";
paths = (
{
closed = 1;
nodes = (
"216 720 LINE",
"56 720 LINE",
"56 0 LINE",
"211 0 LINE",
"211 482 LINE",
"616 0 LINE",
"776 0 LINE",
"776 720 LINE",
"619 720 LINE",
"619 240 LINE"
);
}
);
width = 832;
}
);
unicode = 004E;
},
{
color = 4;
glyphname = Ntilde;
lastChange = "2018-06-22 04:50:18 +0000";
layers = (
{
layerId = "17A5F7C0-AED1-4270-89BA-BFDC1003B8A5";
paths = (
{
closed = 1;
nodes = (
"137 0 LINE",
"137 628 LINE",
"665 0 LINE",
"776 0 LINE",
"776 720 LINE",
"695 720 LINE",
"695 92 LINE",
"167 720 LINE",
"56 720 LINE",
"56 0 LINE"
);
},
{
closed = 1;
nodes = (
"530.91 869 OFFCURVE",
"564.821 877.776 OFFCURVE",
"579 883 QCURVE",
"579 934 LINE",
"563.328 926.537 OFFCURVE",
"530.164 917 OFFCURVE",
"513 917 QCURVE SMOOTH",
"457 924 OFFCURVE",
"354 989 OFFCURVE",
"302 989 QCURVE SMOOTH",
"284.09 989 OFFCURVE",
"253.433 984.478 OFFCURVE",
"240 980 QCURVE",
"240 933 LINE",
"254.925 938.224 OFFCURVE",
"290.06 941 OFFCURVE",
"302 941 QCURVE SMOOTH",
"363.194 941 OFFCURVE",
"459.269 869 OFFCURVE",
"513 869 QCURVE SMOOTH"
);
}
);
width = 832;
},
{
layerId = "D465923C-ABAE-4975-85A4-08C1BC9DA335";
paths = (
{
closed = 1;
nodes = (
"211 0 LINE",
"211 482 LINE",
"616 0 LINE",
"776 0 LINE",
"776 720 LINE",
"619 720 LINE",
"619 240 LINE",
"216 720 LINE",
"56 720 LINE",
"56 0 LINE"
);
},
{
closed = 1;
nodes = (
"521.373 774 OFFCURVE",
"571.866 790.299 OFFCURVE",
"595 800 QCURVE",
"595 926 LINE",
"561.418 904.358 OFFCURVE",
"515.418 889 OFFCURVE",
"499 889 QCURVE",
"448.254 895.716 OFFCURVE",
"367.239 951 OFFCURVE",
"315 951 QCURVE SMOOTH",
"292.612 951 OFFCURVE",
"242.388 932.955 OFFCURVE",
"220 924 QCURVE",
"220 800 LINE",
"254.328 829.104 OFFCURVE",
"292.06 836 OFFCURVE",
"304 836 QCURVE SMOOTH",
"369 836 OFFCURVE",
"438 774 OFFCURVE",
"496 774 QCURVE SMOOTH"
);
}
);
width = 832;
}
);
unicode = 00D1;
},
{
color = 4;
glyphname = O;
lastChange = "2018-06-22 04:52:44 +0000";
layers = (
{
layerId = "17A5F7C0-AED1-4270-89BA-BFDC1003B8A5";
paths = (
{
closed = 1;
nodes = (
"654 0 LINE SMOOTH",
"704 0 OFFCURVE",
"774 70 OFFCURVE",
"774 120 QCURVE SMOOTH",
"774 600 LINE SMOOTH",
"774 650 OFFCURVE",
"704 720 OFFCURVE",
"654 720 QCURVE SMOOTH",
"174 720 LINE SMOOTH",
"124 720 OFFCURVE",
"54 650 OFFCURVE",
"54 600 QCURVE SMOOTH",
"54 120 LINE SMOOTH",
"54 70 OFFCURVE",
"124 0 OFFCURVE",
"174 0 QCURVE SMOOTH"
);
},
{
closed = 1;
nodes = (
"158.328 81 OFFCURVE",
"135 104.328 OFFCURVE",
"135 120 QCURVE SMOOTH",
"135 600 LINE SMOOTH",
"135 615.672 OFFCURVE",
"158.328 639 OFFCURVE",
"174 639 QCURVE SMOOTH",
"654 639 LINE SMOOTH",
"669.672 639 OFFCURVE",
"693 615.672 OFFCURVE",
"693 600 QCURVE SMOOTH",
"693 120 LINE SMOOTH",
"693 104.328 OFFCURVE",
"669.672 81 OFFCURVE",
"654 81 QCURVE SMOOTH",
"174 81 LINE SMOOTH"
);
}
);
width = 828;
},
{
layerId = "D465923C-ABAE-4975-85A4-08C1BC9DA335";
paths = (
{
closed = 1;
nodes = (
"626 0 LINE SMOOTH",
"686.448 0 OFFCURVE",
"774 86.806 OFFCURVE",
"774 148 QCURVE SMOOTH",
"774 572 LINE SMOOTH",
"774 633.194 OFFCURVE",
"686.448 720 OFFCURVE",
"626 720 QCURVE SMOOTH",
"202 720 LINE SMOOTH",
"140.806 720 OFFCURVE",
"54 633.194 OFFCURVE",
"54 572 QCURVE SMOOTH",
"54 148 LINE SMOOTH",
"54 86.806 OFFCURVE",
"140.806 0 OFFCURVE",
"202 0 QCURVE SMOOTH"
);
},
{
closed = 1;
nodes = (
"209 156 OFFCURVE",
"209 156 OFFCURVE",
"209 189 QCURVE SMOOTH",
"209 531 LINE SMOOTH",
"209 564 OFFCURVE",
"209 564 OFFCURVE",
"242 564 QCURVE SMOOTH",
"584 564 LINE SMOOTH",
"617 564 OFFCURVE",
"617 564 OFFCURVE",
"617 531 QCURVE SMOOTH",
"617 189 LINE SMOOTH",
"617 156 OFFCURVE",
"617 156 OFFCURVE",
"584 156 QCURVE SMOOTH",
"242 156 LINE SMOOTH"
);
}
);
width = 828;
}
);
unicode = 004F;
},
{
color = 4;
glyphname = Oacute;
lastChange = "2018-06-22 04:55:34 +0000";
layers = (
{
layerId = "17A5F7C0-AED1-4270-89BA-BFDC1003B8A5";
paths = (
{
closed = 1;
nodes = (
"654 0 LINE SMOOTH",
"704 0 OFFCURVE",
"774 70 OFFCURVE",
"774 120 QCURVE SMOOTH",
"774 600 LINE SMOOTH",
"774 650 OFFCURVE",
"704 720 OFFCURVE",
"654 720 QCURVE SMOOTH",
"174 720 LINE SMOOTH",
"124 720 OFFCURVE",
"54 650 OFFCURVE",
"54 600 QCURVE SMOOTH",
"54 120 LINE SMOOTH",
"54 70 OFFCURVE",
"124 0 OFFCURVE",
"174 0 QCURVE SMOOTH"
);
},
{
closed = 1;
nodes = (
"158.328 81 OFFCURVE",
"135 104.328 OFFCURVE",
"135 120 QCURVE SMOOTH",
"135 600 LINE SMOOTH",
"135 615.672 OFFCURVE",
"158.328 639 OFFCURVE",
"174 639 QCURVE SMOOTH",
"654 639 LINE SMOOTH",
"669.672 639 OFFCURVE",
"693 615.672 OFFCURVE",
"693 600 QCURVE SMOOTH",
"693 120 LINE SMOOTH",
"693 104.328 OFFCURVE",
"669.672 81 OFFCURVE",
"654 81 QCURVE SMOOTH",
"174 81 LINE SMOOTH"
);
},
{
closed = 1;
nodes = (
"420 865 LINE",
"454 1004 LINE",
"375 1004 LINE",
"340 865 LINE"
);
}
);
width = 828;
},
{
layerId = "D465923C-ABAE-4975-85A4-08C1BC9DA335";
paths = (
{
closed = 1;
nodes = (
"626 0 LINE SMOOTH",
"686.448 0 OFFCURVE",
"774 86.806 OFFCURVE",
"774 148 QCURVE SMOOTH",
"774 572 LINE SMOOTH",
"774 633.194 OFFCURVE",
"686.448 720 OFFCURVE",
"626 720 QCURVE SMOOTH",
"202 720 LINE SMOOTH",
"140.806 720 OFFCURVE",
"54 633.194 OFFCURVE",
"54 572 QCURVE SMOOTH",
"54 148 LINE SMOOTH",
"54 86.806 OFFCURVE",
"140.806 0 OFFCURVE",
"202 0 QCURVE SMOOTH"
);
},
{
closed = 1;
nodes = (
"209 156 OFFCURVE",
"209 156 OFFCURVE",
"209 189 QCURVE SMOOTH",
"209 531 LINE SMOOTH",
"209 564 OFFCURVE",
"209 564 OFFCURVE",
"242 564 QCURVE SMOOTH",
"584 564 LINE SMOOTH",
"617 564 OFFCURVE",
"617 564 OFFCURVE",
"617 531 QCURVE SMOOTH",
"617 189 LINE SMOOTH",
"617 156 OFFCURVE",
"617 156 OFFCURVE",
"584 156 QCURVE SMOOTH",
"242 156 LINE SMOOTH"
);
},
{
closed = 1;
nodes = (
"497 770 LINE",
"548 973 LINE",
"391 973 LINE",
"340 770 LINE"
);
}
);
width = 828;
}
);
unicode = 00D3;
},
{
color = 4;
glyphname = Ocircumflex;
lastChange = "2018-06-22 04:56:27 +0000";
layers = (
{
layerId = "17A5F7C0-AED1-4270-89BA-BFDC1003B8A5";
paths = (
{
closed = 1;
nodes = (
"654 0 LINE SMOOTH",
"704 0 OFFCURVE",
"774 70 OFFCURVE",
"774 120 QCURVE SMOOTH",
"774 600 LINE SMOOTH",
"774 650 OFFCURVE",
"704 720 OFFCURVE",
"654 720 QCURVE SMOOTH",
"174 720 LINE SMOOTH",
"124 720 OFFCURVE",
"54 650 OFFCURVE",
"54 600 QCURVE SMOOTH",
"54 120 LINE SMOOTH",
"54 70 OFFCURVE",
"124 0 OFFCURVE",
"174 0 QCURVE SMOOTH"
);
},
{
closed = 1;
nodes = (
"158.328 81 OFFCURVE",
"135 104.328 OFFCURVE",
"135 120 QCURVE SMOOTH",
"135 600 LINE SMOOTH",
"135 615.672 OFFCURVE",
"158.328 639 OFFCURVE",
"174 639 QCURVE SMOOTH",
"654 639 LINE SMOOTH",
"669.672 639 OFFCURVE",
"693 615.672 OFFCURVE",
"693 600 QCURVE SMOOTH",
"693 120 LINE SMOOTH",
"693 104.328 OFFCURVE",
"669.672 81 OFFCURVE",
"654 81 QCURVE SMOOTH",
"174 81 LINE SMOOTH"
);
},
{
closed = 1;
nodes = (
"333 864 LINE",
"393 949 LINE",
"451 864 LINE",
"493 864 LINE",
"422 981 LINE",
"363 981 LINE",
"292 864 LINE"
);
}
);
width = 828;
},
{
layerId = "D465923C-ABAE-4975-85A4-08C1BC9DA335";
paths = (
{
closed = 1;
nodes = (
"626 0 LINE SMOOTH",
"686.448 0 OFFCURVE",
"774 86.806 OFFCURVE",
"774 148 QCURVE SMOOTH",
"774 572 LINE SMOOTH",
"774 633.194 OFFCURVE",
"686.448 720 OFFCURVE",
"626 720 QCURVE SMOOTH",
"202 720 LINE SMOOTH",
"140.806 720 OFFCURVE",
"54 633.194 OFFCURVE",
"54 572 QCURVE SMOOTH",
"54 148 LINE SMOOTH",
"54 86.806 OFFCURVE",
"140.806 0 OFFCURVE",
"202 0 QCURVE SMOOTH"
);
},
{
closed = 1;
nodes = (
"209 156 OFFCURVE",
"209 156 OFFCURVE",
"209 189 QCURVE SMOOTH",
"209 531 LINE SMOOTH",
"209 564 OFFCURVE",
"209 564 OFFCURVE",
"242 564 QCURVE SMOOTH",
"584 564 LINE SMOOTH",
"617 564 OFFCURVE",
"617 564 OFFCURVE",
"617 531 QCURVE SMOOTH",
"617 189 LINE SMOOTH",
"617 156 OFFCURVE",
"617 156 OFFCURVE",
"584 156 QCURVE SMOOTH",
"242 156 LINE SMOOTH"
);
},
{
closed = 1;
nodes = (
"395 769 LINE",
"420 813 LINE",
"448 769 LINE",
"582 769 LINE",
"472 953 LINE",
"372 953 LINE",
"262 769 LINE"
);
}
);
width = 828;
}
);
unicode = 00D4;
},
{
color = 4;
glyphname = Odieresis;
lastChange = "2018-06-22 04:57:21 +0000";
layers = (
{
layerId = "17A5F7C0-AED1-4270-89BA-BFDC1003B8A5";
paths = (
{
closed = 1;
nodes = (
"654 0 LINE SMOOTH",
"704 0 OFFCURVE",
"774 70 OFFCURVE",
"774 120 QCURVE SMOOTH",
"774 600 LINE SMOOTH",
"774 650 OFFCURVE",
"704 720 OFFCURVE",
"654 720 QCURVE SMOOTH",
"174 720 LINE SMOOTH",
"124 720 OFFCURVE",
"54 650 OFFCURVE",
"54 600 QCURVE SMOOTH",
"54 120 LINE SMOOTH",
"54 70 OFFCURVE",
"124 0 OFFCURVE",
"174 0 QCURVE SMOOTH"
);
},
{
closed = 1;
nodes = (
"158.328 81 OFFCURVE",
"135 104.328 OFFCURVE",
"135 120 QCURVE SMOOTH",
"135 600 LINE SMOOTH",
"135 615.672 OFFCURVE",
"158.328 639 OFFCURVE",
"174 639 QCURVE SMOOTH",
"654 639 LINE SMOOTH",
"669.672 639 OFFCURVE",
"693 615.672 OFFCURVE",
"693 600 QCURVE SMOOTH",
"693 120 LINE SMOOTH",
"693 104.328 OFFCURVE",
"669.672 81 OFFCURVE",
"654 81 QCURVE SMOOTH",
"174 81 LINE SMOOTH"
);
},
{
closed = 1;
nodes = (
"358 865 LINE",
"358 947 LINE",
"275 947 LINE",
"275 865 LINE"
);
},
{
closed = 1;
nodes = (
"537 865 LINE",
"537 947 LINE",
"455 947 LINE",
"455 865 LINE"
);
}
);
width = 828;
},
{
layerId = "D465923C-ABAE-4975-85A4-08C1BC9DA335";
paths = (
{
closed = 1;
nodes = (
"626 0 LINE SMOOTH",
"686.448 0 OFFCURVE",
"774 86.806 OFFCURVE",
"774 148 QCURVE SMOOTH",
"774 572 LINE SMOOTH",
"774 633.194 OFFCURVE",
"686.448 720 OFFCURVE",
"626 720 QCURVE SMOOTH",
"202 720 LINE SMOOTH",
"140.806 720 OFFCURVE",
"54 633.194 OFFCURVE",
"54 572 QCURVE SMOOTH",
"54 148 LINE SMOOTH",
"54 86.806 OFFCURVE",
"140.806 0 OFFCURVE",
"202 0 QCURVE SMOOTH"
);
},
{
closed = 1;
nodes = (
"209 156 OFFCURVE",
"209 156 OFFCURVE",
"209 189 QCURVE SMOOTH",
"209 531 LINE SMOOTH",
"209 564 OFFCURVE",
"209 564 OFFCURVE",
"242 564 QCURVE SMOOTH",
"584 564 LINE SMOOTH",
"617 564 OFFCURVE",
"617 564 OFFCURVE",
"617 531 QCURVE SMOOTH",
"617 189 LINE SMOOTH",
"617 156 OFFCURVE",
"617 156 OFFCURVE",
"584 156 QCURVE SMOOTH",
"242 156 LINE SMOOTH"
);
},
{
closed = 1;
nodes = (
"388 770 LINE",
"388 924 LINE",
"235 924 LINE",
"235 770 LINE"
);
},
{
closed = 1;
nodes = (
"602 770 LINE",
"602 924 LINE",
"448 924 LINE",
"448 770 LINE"
);
}
);
width = 828;
}
);
unicode = 00D6;
},
{
color = 4;
glyphname = Ograve;
lastChange = "2018-06-22 05:33:07 +0000";
layers = (
{
layerId = "17A5F7C0-AED1-4270-89BA-BFDC1003B8A5";
paths = (
{
closed = 1;
nodes = (
"654 0 LINE SMOOTH",
"704 0 OFFCURVE",
"774 70 OFFCURVE",
"774 120 QCURVE SMOOTH",
"774 600 LINE SMOOTH",
"774 650 OFFCURVE",
"704 720 OFFCURVE",
"654 720 QCURVE SMOOTH",
"174 720 LINE SMOOTH",
"124 720 OFFCURVE",
"54 650 OFFCURVE",
"54 600 QCURVE SMOOTH",
"54 120 LINE SMOOTH",
"54 70 OFFCURVE",
"124 0 OFFCURVE",
"174 0 QCURVE SMOOTH"
);
},
{
closed = 1;
nodes = (
"158.328 81 OFFCURVE",
"135 104.328 OFFCURVE",
"135 120 QCURVE SMOOTH",
"135 600 LINE SMOOTH",
"135 615.672 OFFCURVE",
"158.328 639 OFFCURVE",
"174 639 QCURVE SMOOTH",
"654 639 LINE SMOOTH",
"669.672 639 OFFCURVE",
"693 615.672 OFFCURVE",
"693 600 QCURVE SMOOTH",
"693 120 LINE SMOOTH",
"693 104.328 OFFCURVE",
"669.672 81 OFFCURVE",
"654 81 QCURVE SMOOTH",
"174 81 LINE SMOOTH"
);
},
{
closed = 1;
nodes = (
"455 865 LINE",
"421 1004 LINE",
"340 1004 LINE",
"375 865 LINE"
);
}
);
width = 828;
},
{
layerId = "D465923C-ABAE-4975-85A4-08C1BC9DA335";
paths = (
{
closed = 1;
nodes = (
"626 0 LINE SMOOTH",
"686.448 0 OFFCURVE",
"774 86.806 OFFCURVE",
"774 148 QCURVE SMOOTH",
"774 572 LINE SMOOTH",
"774 633.194 OFFCURVE",
"686.448 720 OFFCURVE",
"626 720 QCURVE SMOOTH",
"202 720 LINE SMOOTH",
"140.806 720 OFFCURVE",
"54 633.194 OFFCURVE",
"54 572 QCURVE SMOOTH",
"54 148 LINE SMOOTH",
"54 86.806 OFFCURVE",
"140.806 0 OFFCURVE",
"202 0 QCURVE SMOOTH"
);
},
{
closed = 1;
nodes = (
"209 156 OFFCURVE",
"209 156 OFFCURVE",
"209 189 QCURVE SMOOTH",
"209 531 LINE SMOOTH",
"209 564 OFFCURVE",
"209 564 OFFCURVE",
"242 564 QCURVE SMOOTH",
"584 564 LINE SMOOTH",
"617 564 OFFCURVE",
"617 564 OFFCURVE",
"617 531 QCURVE SMOOTH",
"617 189 LINE SMOOTH",
"617 156 OFFCURVE",
"617 156 OFFCURVE",
"584 156 QCURVE SMOOTH",
"242 156 LINE SMOOTH"
);
},
{
closed = 1;
nodes = (
"508 770 LINE",
"457 973 LINE",
"300 973 LINE",
"351 770 LINE"
);
}
);
width = 828;
}
);
unicode = 00D2;
},
{
color = 4;
glyphname = Otilde;
lastChange = "2018-06-22 05:34:07 +0000";
layers = (
{
layerId = "17A5F7C0-AED1-4270-89BA-BFDC1003B8A5";
paths = (
{
closed = 1;
nodes = (
"654 0 LINE SMOOTH",
"704 0 OFFCURVE",
"774 70 OFFCURVE",
"774 120 QCURVE SMOOTH",
"774 600 LINE SMOOTH",
"774 650 OFFCURVE",
"704 720 OFFCURVE",
"654 720 QCURVE SMOOTH",
"174 720 LINE SMOOTH",
"124 720 OFFCURVE",
"54 650 OFFCURVE",
"54 600 QCURVE SMOOTH",
"54 120 LINE SMOOTH",
"54 70 OFFCURVE",
"124 0 OFFCURVE",
"174 0 QCURVE SMOOTH"
);
},
{
closed = 1;
nodes = (
"158.328 81 OFFCURVE",
"135 104.328 OFFCURVE",
"135 120 QCURVE SMOOTH",
"135 600 LINE SMOOTH",
"135 615.672 OFFCURVE",
"158.328 639 OFFCURVE",
"174 639 QCURVE SMOOTH",
"654 639 LINE SMOOTH",
"669.672 639 OFFCURVE",
"693 615.672 OFFCURVE",
"693 600 QCURVE SMOOTH",
"693 120 LINE SMOOTH",
"693 104.328 OFFCURVE",
"669.672 81 OFFCURVE",
"654 81 QCURVE SMOOTH",
"174 81 LINE SMOOTH"
);
},
{
closed = 1;
nodes = (
"528.91 869 OFFCURVE",
"562.821 877.776 OFFCURVE",
"577 883 QCURVE",
"577 934 LINE",
"561.328 926.537 OFFCURVE",
"528.164 917 OFFCURVE",
"509 917 QCURVE",
"452.284 924.463 OFFCURVE",
"355.97 989 OFFCURVE",
"300 989 QCURVE SMOOTH",
"282.09 989 OFFCURVE",
"251.433 984.478 OFFCURVE",
"238 980 QCURVE",
"238 933 LINE",
"252.925 938.224 OFFCURVE",
"288.06 941 OFFCURVE",
"300 941 QCURVE SMOOTH",
"361.194 941 OFFCURVE",
"457.269 869 OFFCURVE",
"511 869 QCURVE SMOOTH"
);
}
);
width = 828;
},
{
layerId = "D465923C-ABAE-4975-85A4-08C1BC9DA335";
paths = (
{
closed = 1;
nodes = (
"626 0 LINE SMOOTH",
"686.448 0 OFFCURVE",
"774 86.806 OFFCURVE",
"774 148 QCURVE SMOOTH",
"774 572 LINE SMOOTH",
"774 633.194 OFFCURVE",
"686.448 720 OFFCURVE",
"626 720 QCURVE SMOOTH",
"202 720 LINE SMOOTH",
"140.806 720 OFFCURVE",
"54 633.194 OFFCURVE",
"54 572 QCURVE SMOOTH",
"54 148 LINE SMOOTH",
"54 86.806 OFFCURVE",
"140.806 0 OFFCURVE",
"202 0 QCURVE SMOOTH"
);
},
{
closed = 1;
nodes = (
"209 156 OFFCURVE",
"209 156 OFFCURVE",
"209 189 QCURVE SMOOTH",
"209 531 LINE SMOOTH",
"209 564 OFFCURVE",
"209 564 OFFCURVE",
"242 564 QCURVE SMOOTH",
"584 564 LINE SMOOTH",
"617 564 OFFCURVE",
"617 564 OFFCURVE",
"617 531 QCURVE SMOOTH",
"617 189 LINE SMOOTH",
"617 156 OFFCURVE",
"617 156 OFFCURVE",
"584 156 QCURVE SMOOTH",
"242 156 LINE SMOOTH"
);
},
{
closed = 1;
nodes = (
"509.373 774 OFFCURVE",
"559.866 790.299 OFFCURVE",
"583 800 QCURVE",
"583 926 LINE",
"549.418 904.358 OFFCURVE",
"503.418 889 OFFCURVE",
"487 889 QCURVE",
"436.254 895.716 OFFCURVE",
"355.239 951 OFFCURVE",
"303 951 QCURVE SMOOTH",
"280.612 951 OFFCURVE",
"230.388 932.955 OFFCURVE",
"208 924 QCURVE",
"208 800 LINE",
"242.328 829.104 OFFCURVE",
"280.06 836 OFFCURVE",
"292 836 QCURVE SMOOTH",
"357 836 OFFCURVE",
"426 774 OFFCURVE",
"484 774 QCURVE SMOOTH"
);
}
);
width = 828;
}
);
unicode = 00D5;
},
{
color = 4;
glyphname = OE;
lastChange = "2018-06-22 05:37:29 +0000";
layers = (
{
layerId = "17A5F7C0-AED1-4270-89BA-BFDC1003B8A5";
paths = (
{
closed = 1;
nodes = (
"1349 0 LINE",
"1349 81 LINE",
"773 81 LINE",
"773 319 LINE",
"1236 319 LINE",
"1236 401 LINE",
"773 401 LINE",
"773 639 LINE",
"1349 639 LINE",
"1349 720 LINE",
"173 720 LINE SMOOTH",
"123 720 OFFCURVE",
"53 650 OFFCURVE",
"53 600 QCURVE SMOOTH",
"53 120 LINE SMOOTH",
"53 70 OFFCURVE",
"123 0 OFFCURVE",
"173 0 QCURVE SMOOTH"
);
},
{
closed = 1;
nodes = (
"157.328 81 OFFCURVE",
"134 104.328 OFFCURVE",
"134 120 QCURVE SMOOTH",
"134 600 LINE SMOOTH",
"134 615.672 OFFCURVE",
"157.328 639 OFFCURVE",
"173 639 QCURVE SMOOTH",
"653 639 LINE SMOOTH",
"668.672 639 OFFCURVE",
"692 615.672 OFFCURVE",
"692 600 QCURVE SMOOTH",
"692 120 LINE SMOOTH",
"692 104.328 OFFCURVE",
"668.672 81 OFFCURVE",
"653 81 QCURVE SMOOTH",
"173 81 LINE SMOOTH"
);
}
);
width = 1374;
},
{
layerId = "D465923C-ABAE-4975-85A4-08C1BC9DA335";
paths = (
{
closed = 1;
nodes = (
"1282 0 LINE",
"1282 156 LINE",
"773 156 LINE",
"773 282 LINE",
"1182 282 LINE",
"1182 438 LINE",
"773 438 LINE",
"773 564 LINE",
"1282 564 LINE",
"1282 720 LINE",
"201 720 LINE SMOOTH",
"140.552 720 OFFCURVE",
"53 633.194 OFFCURVE",
"53 572 QCURVE SMOOTH",
"53 148 LINE SMOOTH",
"53 86.806 OFFCURVE",
"140.552 0 OFFCURVE",
"201 0 QCURVE SMOOTH"
);
},
{
closed = 1;
nodes = (
"210 156 OFFCURVE",
"210 156 OFFCURVE",
"210 189 QCURVE SMOOTH",
"210 531 LINE SMOOTH",
"210 564 OFFCURVE",
"210 564 OFFCURVE",
"243 564 QCURVE SMOOTH",
"585 564 LINE SMOOTH",
"618 564 OFFCURVE",
"618 564 OFFCURVE",
"618 531 QCURVE SMOOTH",
"618 189 LINE SMOOTH",
"618 156 OFFCURVE",
"618 156 OFFCURVE",
"585 156 QCURVE SMOOTH",
"243 156 LINE SMOOTH"
);
}
);
width = 1374;
}
);
unicode = 0152;
},
{
color = 4;
glyphname = P;
lastChange = "2018-06-22 05:40:44 +0000";
layers = (
{
layerId = "17A5F7C0-AED1-4270-89BA-BFDC1003B8A5";
paths = (
{
closed = 1;
nodes = (
"137 0 LINE",
"137 268 LINE",
"656 268 LINE SMOOTH",
"706 268 OFFCURVE",
"776 338.746 OFFCURVE",
"776 388 QCURVE SMOOTH",
"776 599 LINE SMOOTH",
"776 648.254 OFFCURVE",
"706 719 OFFCURVE",
"656 719 QCURVE SMOOTH",
"56 719 LINE",
"56 0 LINE"
);
},
{
closed = 1;
nodes = (
"160.328 350 OFFCURVE",
"137 372.328 OFFCURVE",
"137 388 QCURVE SMOOTH",
"137 599 LINE SMOOTH",
"137 614.672 OFFCURVE",
"160.328 638 OFFCURVE",
"176 638 QCURVE SMOOTH",
"656 638 LINE SMOOTH",
"671.672 638 OFFCURVE",
"695 614.672 OFFCURVE",
"695 599 QCURVE SMOOTH",
"695 388 LINE SMOOTH",
"695 372.328 OFFCURVE",
"671.672 350 OFFCURVE",
"656 350 QCURVE SMOOTH",
"176 350 LINE SMOOTH"
);
}
);
width = 791;
},
{
layerId = "D465923C-ABAE-4975-85A4-08C1BC9DA335";
paths = (
{
closed = 1;
nodes = (
"211 0 LINE",
"211 236 LINE",
"627 237 LINE SMOOTH",
"688.194 237 OFFCURVE",
"776 324.552 OFFCURVE",
"776 385 QCURVE SMOOTH",
"776 571 LINE SMOOTH",
"776 631.448 OFFCURVE",
"688.194 719 OFFCURVE",
"627 719 QCURVE SMOOTH",
"56 719 LINE",
"56 0 LINE"
);
},
{
closed = 1;
nodes = (
"211 393 OFFCURVE",
"211 393 OFFCURVE",
"211 426 QCURVE SMOOTH",
"211 531 LINE SMOOTH",
"211 564 OFFCURVE",
"211 564 OFFCURVE",
"244 564 QCURVE SMOOTH",
"586 564 LINE SMOOTH",
"619 564 OFFCURVE",
"619 564 OFFCURVE",
"619 531 QCURVE SMOOTH",
"619 426 LINE SMOOTH",
"619 393 OFFCURVE",
"619 393 OFFCURVE",
"586 393 QCURVE SMOOTH",
"244 393 LINE SMOOTH"
);
}
);
width = 791;
}
);
unicode = 0050;
},
{
color = 4;
glyphname = Q;
lastChange = "2018-06-22 05:43:25 +0000";
layers = (
{
layerId = "17A5F7C0-AED1-4270-89BA-BFDC1003B8A5";
paths = (
{
closed = 1;
nodes = (
"868 0 LINE",
"868 81 LINE",
"774 81 LINE",
"774 600 LINE",
"774 650 OFFCURVE",
"704 720 OFFCURVE",
"654 720 QCURVE SMOOTH",
"174 720 LINE SMOOTH",
"124 720 OFFCURVE",
"54 650 OFFCURVE",
"54 600 QCURVE SMOOTH",
"54 120 LINE SMOOTH",
"54 70 OFFCURVE",
"124 0 OFFCURVE",
"174 0 QCURVE SMOOTH"
);
},
{
closed = 1;
nodes = (
"158.328 81 OFFCURVE",
"135 104.328 OFFCURVE",
"135 120 QCURVE SMOOTH",
"135 600 LINE SMOOTH",
"135 615.672 OFFCURVE",
"158.328 639 OFFCURVE",
"174 639 QCURVE SMOOTH",
"654 639 LINE SMOOTH",
"669.672 639 OFFCURVE",
"693 615.672 OFFCURVE",
"693 600 QCURVE SMOOTH",
"693 120 LINE SMOOTH",
"693 104.328 OFFCURVE",
"669.672 81 OFFCURVE",
"654 81 QCURVE SMOOTH",
"174 81 LINE SMOOTH"
);
}
);
width = 884;
},
{
layerId = "D465923C-ABAE-4975-85A4-08C1BC9DA335";
paths = (
{
closed = 1;
nodes = (
"856 0 LINE",
"856 156 LINE",
"774 156 LINE",
"774 572 LINE SMOOTH",
"774 633.194 OFFCURVE",
"686.194 720 OFFCURVE",
"625 720 QCURVE SMOOTH",
"202 720 LINE SMOOTH",
"140.806 720 OFFCURVE",
"54 633.194 OFFCURVE",
"54 572 QCURVE SMOOTH",
"54 148 LINE SMOOTH",
"54 86.806 OFFCURVE",
"140.806 0 OFFCURVE",
"202 0 QCURVE SMOOTH"
);
},
{
closed = 1;
nodes = (
"209 156 OFFCURVE",
"209 156 OFFCURVE",
"209 189 QCURVE SMOOTH",
"209 531 LINE SMOOTH",
"209 564 OFFCURVE",
"209 564 OFFCURVE",
"242 564 QCURVE SMOOTH",
"584 564 LINE SMOOTH",
"617 564 OFFCURVE",
"617 564 OFFCURVE",
"617 531 QCURVE SMOOTH",
"617 189 LINE SMOOTH",
"617 156 OFFCURVE",
"617 156 OFFCURVE",
"584 156 QCURVE SMOOTH",
"242 156 LINE SMOOTH"
);
}
);
width = 884;
}
);
unicode = 0051;
},
{
color = 4;
glyphname = R;
lastChange = "2018-06-22 05:44:08 +0000";
layers = (
{
layerId = "17A5F7C0-AED1-4270-89BA-BFDC1003B8A5";
paths = (
{
closed = 1;
nodes = (
"136 0 LINE",
"136 269 LINE",
"439 268 LINE",
"664 0 LINE",
"771 0 LINE",
"771 1 LINE",
"545 268 LINE",
"655 268 LINE SMOOTH",
"705 268 OFFCURVE",
"775 338.746 OFFCURVE",
"775 388 QCURVE SMOOTH",
"775 599 LINE SMOOTH",
"775 648.254 OFFCURVE",
"705 719 OFFCURVE",
"655 719 QCURVE SMOOTH",
"55 719 LINE",
"55 0 LINE"
);
},
{
closed = 1;
nodes = (
"159.328 350 OFFCURVE",
"136 372.328 OFFCURVE",
"136 388 QCURVE SMOOTH",
"136 599 LINE SMOOTH",
"136 614.672 OFFCURVE",
"159.328 638 OFFCURVE",
"175 638 QCURVE SMOOTH",
"655 638 LINE SMOOTH",
"670.672 638 OFFCURVE",
"693 614.672 OFFCURVE",
"693 599 QCURVE SMOOTH",
"693 388 LINE SMOOTH",
"693 372.328 OFFCURVE",
"670.672 350 OFFCURVE",
"655 350 QCURVE SMOOTH",
"175 350 LINE SMOOTH"
);
}
);
width = 825;
},
{
layerId = "D465923C-ABAE-4975-85A4-08C1BC9DA335";
paths = (
{
closed = 1;
nodes = (
"210 0 LINE",
"210 236 LINE",
"416 237 LINE",
"615 0 LINE",
"775 0 LINE",
"775 53 LINE",
"619 237 LINE",
"626 237 LINE SMOOTH",
"687.194 237 OFFCURVE",
"775 324.552 OFFCURVE",
"775 385 QCURVE SMOOTH",
"775 571 LINE SMOOTH",
"775 631.448 OFFCURVE",
"687.194 719 OFFCURVE",
"626 719 QCURVE SMOOTH",
"55 719 LINE",
"55 0 LINE"
);
},
{
closed = 1;
nodes = (
"210 393 OFFCURVE",
"210 393 OFFCURVE",
"210 426 QCURVE SMOOTH",
"210 531 LINE SMOOTH",
"210 564 OFFCURVE",
"210 564 OFFCURVE",
"243 564 QCURVE SMOOTH",
"585 564 LINE SMOOTH",
"618 564 OFFCURVE",
"618 564 OFFCURVE",
"618 531 QCURVE SMOOTH",
"618 426 LINE SMOOTH",
"618 393 OFFCURVE",
"618 393 OFFCURVE",
"585 393 QCURVE SMOOTH",
"243 393 LINE SMOOTH"
);
}
);
width = 825;
}
);
unicode = 0052;
},
{
color = 4;
glyphname = S;
lastChange = "2018-06-22 05:47:24 +0000";
layers = (
{
layerId = "17A5F7C0-AED1-4270-89BA-BFDC1003B8A5";
paths = (
{
closed = 1;
nodes = (
"651 0 LINE SMOOTH",
"701 0 OFFCURVE",
"771 70 OFFCURVE",
"771 120 QCURVE SMOOTH",
"771 281 LINE SMOOTH",
"771 330.254 OFFCURVE",
"701 401 OFFCURVE",
"651 401 QCURVE SMOOTH",
"171 401 LINE SMOOTH",
"155.328 401 OFFCURVE",
"132 423.328 OFFCURVE",
"132 439 QCURVE SMOOTH",
"132 600 LINE SMOOTH",
"132 615.672 OFFCURVE",
"155.328 639 OFFCURVE",
"171 639 QCURVE SMOOTH",
"651 639 LINE SMOOTH",
"666.672 639 OFFCURVE",
"690 615.672 OFFCURVE",
"690 600 QCURVE SMOOTH",
"690 572 LINE",
"771 572 LINE",
"771 600 LINE SMOOTH",
"771 650 OFFCURVE",
"701 720 OFFCURVE",
"651 720 QCURVE SMOOTH",
"171 720 LINE SMOOTH",
"121 720 OFFCURVE",
"51 650 OFFCURVE",
"51 600 QCURVE SMOOTH",
"51 439 LINE SMOOTH",
"51 389.746 OFFCURVE",
"121 319 OFFCURVE",
"171 319 QCURVE SMOOTH",
"651 319 LINE SMOOTH",
"666.672 319 OFFCURVE",
"690 296.672 OFFCURVE",
"690 281 QCURVE SMOOTH",
"690 120 LINE SMOOTH",
"690 104.328 OFFCURVE",
"666.672 81 OFFCURVE",
"651 81 QCURVE SMOOTH",
"171 81 LINE SMOOTH",
"155.328 81 OFFCURVE",
"132 104.328 OFFCURVE",
"132 120 QCURVE SMOOTH",
"132 148 LINE",
"51 148 LINE",
"51 120 LINE SMOOTH",
"51 70 OFFCURVE",
"121 0 OFFCURVE",
"171 0 QCURVE SMOOTH"
);
}
);
width = 822;
},
{
layerId = "D465923C-ABAE-4975-85A4-08C1BC9DA335";
paths = (
{
closed = 1;
nodes = (
"623 0 LINE SMOOTH",
"683.448 0 OFFCURVE",
"771 86.806 OFFCURVE",
"771 148 QCURVE SMOOTH",
"771 290 LINE SMOOTH",
"771 351.194 OFFCURVE",
"683.448 438 OFFCURVE",
"623 438 QCURVE SMOOTH",
"239 438 LINE SMOOTH",
"206 438 OFFCURVE",
"206 438 OFFCURVE",
"206 471 QCURVE SMOOTH",
"206 531 LINE SMOOTH",
"206 564 OFFCURVE",
"206 564 OFFCURVE",
"239 564 QCURVE SMOOTH",
"581 564 LINE SMOOTH",
"614 564 OFFCURVE",
"614 564 OFFCURVE",
"614 531 QCURVE SMOOTH",
"614 505 LINE",
"771 505 LINE",
"771 572 LINE SMOOTH",
"771 633.194 OFFCURVE",
"683.448 720 OFFCURVE",
"623 720 QCURVE SMOOTH",
"199 720 LINE SMOOTH",
"137.806 720 OFFCURVE",
"51 633.194 OFFCURVE",
"51 572 QCURVE SMOOTH",
"51 430 LINE SMOOTH",
"51 368.806 OFFCURVE",
"137.806 282 OFFCURVE",
"199 282 QCURVE SMOOTH",
"581 282 LINE SMOOTH",
"614 282 OFFCURVE",
"614 282 OFFCURVE",
"614 249 QCURVE SMOOTH",
"614 189 LINE SMOOTH",
"614 156 OFFCURVE",
"614 156 OFFCURVE",
"581 156 QCURVE SMOOTH",
"239 156 LINE SMOOTH",
"206 156 OFFCURVE",
"206 156 OFFCURVE",
"206 189 QCURVE SMOOTH",
"206 215 LINE",
"51 215 LINE",
"51 148 LINE SMOOTH",
"51 86.806 OFFCURVE",
"137.806 0 OFFCURVE",
"199 0 QCURVE SMOOTH"
);
}
);
width = 822;
}
);
unicode = 0053;
},
{
color = 4;
glyphname = Scaron;
lastChange = "2018-06-22 05:49:03 +0000";
layers = (
{
layerId = "17A5F7C0-AED1-4270-89BA-BFDC1003B8A5";
paths = (
{
closed = 1;
nodes = (
"651 0 LINE SMOOTH",
"701 0 OFFCURVE",
"771 70 OFFCURVE",
"771 120 QCURVE SMOOTH",
"771 281 LINE SMOOTH",
"771 330.254 OFFCURVE",
"701 401 OFFCURVE",
"651 401 QCURVE SMOOTH",
"171 401 LINE SMOOTH",
"155.328 401 OFFCURVE",
"132 423.328 OFFCURVE",
"132 439 QCURVE SMOOTH",
"132 600 LINE SMOOTH",
"132 615.672 OFFCURVE",
"155.328 639 OFFCURVE",
"171 639 QCURVE SMOOTH",
"651 639 LINE SMOOTH",
"666.672 639 OFFCURVE",
"690 615.672 OFFCURVE",
"690 600 QCURVE SMOOTH",
"690 572 LINE",
"771 572 LINE",
"771 600 LINE SMOOTH",
"771 650 OFFCURVE",
"701 720 OFFCURVE",
"651 720 QCURVE SMOOTH",
"171 720 LINE SMOOTH",
"121 720 OFFCURVE",
"51 650 OFFCURVE",
"51 600 QCURVE SMOOTH",
"51 439 LINE SMOOTH",
"51 389.746 OFFCURVE",
"121 319 OFFCURVE",
"171 319 QCURVE SMOOTH",
"651 319 LINE SMOOTH",
"666.672 319 OFFCURVE",
"690 296.672 OFFCURVE",
"690 281 QCURVE SMOOTH",
"690 120 LINE SMOOTH",
"690 104.328 OFFCURVE",
"666.672 81 OFFCURVE",
"651 81 QCURVE SMOOTH",
"171 81 LINE SMOOTH",
"155.328 81 OFFCURVE",
"132 104.328 OFFCURVE",
"132 120 QCURVE SMOOTH",
"132 148 LINE",
"51 148 LINE",
"51 120 LINE SMOOTH",
"51 70 OFFCURVE",
"121 0 OFFCURVE",
"171 0 QCURVE SMOOTH"
);
},
{
closed = 1;
nodes = (
"420 864 LINE",
"490 981 LINE",
"449 981 LINE",
"391 896 LINE",
"331 981 LINE",
"289 981 LINE",
"361 864 LINE"
);
}
);
width = 822;
},
{
layerId = "D465923C-ABAE-4975-85A4-08C1BC9DA335";
paths = (
{
closed = 1;
nodes = (
"623 0 LINE SMOOTH",
"683.448 0 OFFCURVE",
"771 86.806 OFFCURVE",
"771 148 QCURVE SMOOTH",
"771 290 LINE SMOOTH",
"771 351.194 OFFCURVE",
"683.448 438 OFFCURVE",
"623 438 QCURVE SMOOTH",
"239 438 LINE SMOOTH",
"206 438 OFFCURVE",
"206 438 OFFCURVE",
"206 471 QCURVE SMOOTH",
"206 531 LINE SMOOTH",
"206 564 OFFCURVE",
"206 564 OFFCURVE",
"239 564 QCURVE SMOOTH",
"581 564 LINE SMOOTH",
"614 564 OFFCURVE",
"614 564 OFFCURVE",
"614 531 QCURVE SMOOTH",
"614 505 LINE",
"771 505 LINE",
"771 572 LINE SMOOTH",
"771 633.194 OFFCURVE",
"683.448 720 OFFCURVE",
"623 720 QCURVE SMOOTH",
"199 720 LINE SMOOTH",
"137.806 720 OFFCURVE",
"51 633.194 OFFCURVE",
"51 572 QCURVE SMOOTH",
"51 430 LINE SMOOTH",
"51 368.806 OFFCURVE",
"137.806 282 OFFCURVE",
"199 282 QCURVE SMOOTH",
"581 282 LINE SMOOTH",
"614 282 OFFCURVE",
"614 282 OFFCURVE",
"614 249 QCURVE SMOOTH",
"614 189 LINE SMOOTH",
"614 156 OFFCURVE",
"614 156 OFFCURVE",
"581 156 QCURVE SMOOTH",
"239 156 LINE SMOOTH",
"206 156 OFFCURVE",
"206 156 OFFCURVE",
"206 189 QCURVE SMOOTH",
"206 215 LINE",
"51 215 LINE",
"51 148 LINE SMOOTH",
"51 86.806 OFFCURVE",
"137.806 0 OFFCURVE",
"199 0 QCURVE SMOOTH"
);
},
{
closed = 1;
nodes = (
"469 769 LINE",
"579 953 LINE",
"444 953 LINE",
"417 909 LINE",
"390 953 LINE",
"259 953 LINE",
"369 769 LINE"
);
}
);
width = 822;
}
);
unicode = 0160;
},
{
color = 4;
glyphname = T;
lastChange = "2018-06-22 05:49:06 +0000";
layers = (
{
layerId = "17A5F7C0-AED1-4270-89BA-BFDC1003B8A5";
paths = (
{
closed = 1;
nodes = (
"20 639 LINE",
"340 639 LINE",
"340 0 LINE",
"421 0 LINE",
"421 639 LINE",
"740 639 LINE",
"740 720 LINE",
"20 720 LINE"
);
}
);
width = 759;
},
{
layerId = "D465923C-ABAE-4975-85A4-08C1BC9DA335";
paths = (
{
closed = 1;
nodes = (
"20 564 LINE",
"302 564 LINE",
"302 0 LINE",
"458 0 LINE",
"458 564 LINE",
"740 564 LINE",
"740 720 LINE",
"20 720 LINE"
);
}
);
width = 759;
}
);
unicode = 0054;
},
{
color = 4;
glyphname = U;
lastChange = "2018-06-22 05:50:15 +0000";
layers = (
{
layerId = "17A5F7C0-AED1-4270-89BA-BFDC1003B8A5";
paths = (
{
closed = 1;
nodes = (
"654 0 LINE SMOOTH",
"704 0 OFFCURVE",
"774 70 OFFCURVE",
"774 120 QCURVE SMOOTH",
"774 720 LINE",
"693 720 LINE",
"693 120 LINE SMOOTH",
"693 104.328 OFFCURVE",
"669.672 81 OFFCURVE",
"654 81 QCURVE SMOOTH",
"174 81 LINE SMOOTH",
"158.328 81 OFFCURVE",
"135 104.328 OFFCURVE",
"135 120 QCURVE SMOOTH",
"135 720 LINE",
"54 720 LINE",
"54 120 LINE SMOOTH",
"54 70 OFFCURVE",
"124 0 OFFCURVE",
"174 0 QCURVE SMOOTH"
);
}
);
width = 828;
},
{
layerId = "D465923C-ABAE-4975-85A4-08C1BC9DA335";
paths = (
{
closed = 1;
nodes = (
"626 0 LINE SMOOTH",
"686.448 0 OFFCURVE",
"774 86.806 OFFCURVE",
"774 148 QCURVE SMOOTH",
"774 720 LINE",
"617 720 LINE",
"617 189 LINE SMOOTH",
"617 156 OFFCURVE",
"617 156 OFFCURVE",
"584 156 QCURVE SMOOTH",
"242 156 LINE SMOOTH",
"209 156 OFFCURVE",
"209 156 OFFCURVE",
"209 189 QCURVE SMOOTH",
"209 720 LINE",
"54 720 LINE",
"54 148 LINE SMOOTH",
"54 86.806 OFFCURVE",
"140.806 0 OFFCURVE",
"202 0 QCURVE SMOOTH"
);
}
);
width = 828;
}
);
unicode = 0055;
},
{
color = 4;
glyphname = Uacute;
lastChange = "2018-06-22 14:41:02 +0000";
layers = (
{
layerId = "17A5F7C0-AED1-4270-89BA-BFDC1003B8A5";
paths = (
{
closed = 1;
nodes = (
"654 0 LINE SMOOTH",
"704 0 OFFCURVE",
"774 70 OFFCURVE",
"774 120 QCURVE SMOOTH",
"774 720 LINE",
"693 720 LINE",
"693 120 LINE SMOOTH",
"693 104.328 OFFCURVE",
"669.672 81 OFFCURVE",
"654 81 QCURVE SMOOTH",
"174 81 LINE SMOOTH",
"158.328 81 OFFCURVE",
"135 104.328 OFFCURVE",
"135 120 QCURVE SMOOTH",
"135 720 LINE",
"54 720 LINE",
"54 120 LINE SMOOTH",
"54 70 OFFCURVE",
"124 0 OFFCURVE",
"174 0 QCURVE SMOOTH"
);
},
{
closed = 1;
nodes = (
"420 865 LINE",
"454 1004 LINE",
"375 1004 LINE",
"340 865 LINE"
);
}
);
width = 828;
},
{
layerId = "D465923C-ABAE-4975-85A4-08C1BC9DA335";
paths = (
{
closed = 1;
nodes = (
"626 0 LINE SMOOTH",
"686.448 0 OFFCURVE",
"774 86.806 OFFCURVE",
"774 148 QCURVE SMOOTH",
"774 720 LINE",
"617 720 LINE",
"617 189 LINE SMOOTH",
"617 156 OFFCURVE",
"617 156 OFFCURVE",
"584 156 QCURVE SMOOTH",
"242 156 LINE SMOOTH",
"209 156 OFFCURVE",
"209 156 OFFCURVE",
"209 189 QCURVE SMOOTH",
"209 720 LINE",
"54 720 LINE",
"54 148 LINE SMOOTH",
"54 86.806 OFFCURVE",
"140.806 0 OFFCURVE",
"202 0 QCURVE SMOOTH"
);
},
{
closed = 1;
nodes = (
"477 770 LINE",
"528 973 LINE",
"371 973 LINE",
"320 770 LINE"
);
}
);
width = 828;
}
);
unicode = 00DA;
},
{
color = 4;
glyphname = Ucircumflex;
lastChange = "2018-06-22 14:49:25 +0000";
layers = (
{
layerId = "17A5F7C0-AED1-4270-89BA-BFDC1003B8A5";
paths = (
{
closed = 1;
nodes = (
"654 0 LINE SMOOTH",
"704 0 OFFCURVE",
"774 70 OFFCURVE",
"774 120 QCURVE SMOOTH",
"774 720 LINE",
"693 720 LINE",
"693 120 LINE SMOOTH",
"693 104.328 OFFCURVE",
"669.672 81 OFFCURVE",
"654 81 QCURVE SMOOTH",
"174 81 LINE SMOOTH",
"158.328 81 OFFCURVE",
"135 104.328 OFFCURVE",
"135 120 QCURVE SMOOTH",
"135 720 LINE",
"54 720 LINE",
"54 120 LINE SMOOTH",
"54 70 OFFCURVE",
"124 0 OFFCURVE",
"174 0 QCURVE SMOOTH"
);
},
{
closed = 1;
nodes = (
"333 864 LINE",
"393 949 LINE",
"451 864 LINE",
"493 864 LINE",
"422 981 LINE",
"363 981 LINE",
"292 864 LINE"
);
}
);
width = 828;
},
{
layerId = "D465923C-ABAE-4975-85A4-08C1BC9DA335";
paths = (
{
closed = 1;
nodes = (
"626 0 LINE SMOOTH",
"686.448 0 OFFCURVE",
"774 86.806 OFFCURVE",
"774 148 QCURVE SMOOTH",
"774 720 LINE",
"617 720 LINE",
"617 189 LINE SMOOTH",
"617 156 OFFCURVE",
"617 156 OFFCURVE",
"584 156 QCURVE SMOOTH",
"242 156 LINE SMOOTH",
"209 156 OFFCURVE",
"209 156 OFFCURVE",
"209 189 QCURVE SMOOTH",
"209 720 LINE",
"54 720 LINE",
"54 148 LINE SMOOTH",
"54 86.806 OFFCURVE",
"140.806 0 OFFCURVE",
"202 0 QCURVE SMOOTH"
);
},
{
closed = 1;
nodes = (
"395 769 LINE",
"420 813 LINE",
"448 769 LINE",
"582 769 LINE",
"472 953 LINE",
"372 953 LINE",
"262 769 LINE"
);
}
);
width = 828;
}
);
unicode = 00DB;
},
{
color = 4;
glyphname = Udieresis;
lastChange = "2018-06-22 14:49:25 +0000";
layers = (
{
layerId = "17A5F7C0-AED1-4270-89BA-BFDC1003B8A5";
paths = (
{
closed = 1;
nodes = (
"654 0 LINE SMOOTH",
"704 0 OFFCURVE",
"774 70 OFFCURVE",
"774 120 QCURVE SMOOTH",
"774 720 LINE",
"693 720 LINE",
"693 120 LINE SMOOTH",
"693 104.328 OFFCURVE",
"669.672 81 OFFCURVE",
"654 81 QCURVE SMOOTH",
"174 81 LINE SMOOTH",
"158.328 81 OFFCURVE",
"135 104.328 OFFCURVE",
"135 120 QCURVE SMOOTH",
"135 720 LINE",
"54 720 LINE",
"54 120 LINE SMOOTH",
"54 70 OFFCURVE",
"124 0 OFFCURVE",
"174 0 QCURVE SMOOTH"
);
},
{
closed = 1;
nodes = (
"358 865 LINE",
"358 947 LINE",
"275 947 LINE",
"275 865 LINE"
);
},
{
closed = 1;
nodes = (
"537 865 LINE",
"537 947 LINE",
"455 947 LINE",
"455 865 LINE"
);
}
);
width = 828;
},
{
layerId = "D465923C-ABAE-4975-85A4-08C1BC9DA335";
paths = (
{
closed = 1;
nodes = (
"626 0 LINE SMOOTH",
"686.448 0 OFFCURVE",
"774 86.806 OFFCURVE",
"774 148 QCURVE SMOOTH",
"774 720 LINE",
"617 720 LINE",
"617 189 LINE SMOOTH",
"617 156 OFFCURVE",
"617 156 OFFCURVE",
"584 156 QCURVE SMOOTH",
"242 156 LINE SMOOTH",
"209 156 OFFCURVE",
"209 156 OFFCURVE",
"209 189 QCURVE SMOOTH",
"209 720 LINE",
"54 720 LINE",
"54 148 LINE SMOOTH",
"54 86.806 OFFCURVE",
"140.806 0 OFFCURVE",
"202 0 QCURVE SMOOTH"
);
},
{
closed = 1;
nodes = (
"388 770 LINE",
"388 924 LINE",
"235 924 LINE",
"235 770 LINE"
);
},
{
closed = 1;
nodes = (
"602 770 LINE",
"602 924 LINE",
"448 924 LINE",
"448 770 LINE"
);
}
);
width = 828;
}
);
unicode = 00DC;
},
{
color = 4;
glyphname = Ugrave;
lastChange = "2018-06-22 14:51:17 +0000";
layers = (
{
layerId = "17A5F7C0-AED1-4270-89BA-BFDC1003B8A5";
paths = (
{
closed = 1;
nodes = (
"654 0 LINE SMOOTH",
"704 0 OFFCURVE",
"774 70 OFFCURVE",
"774 120 QCURVE SMOOTH",
"774 720 LINE",
"693 720 LINE",
"693 120 LINE SMOOTH",
"693 104.328 OFFCURVE",
"669.672 81 OFFCURVE",
"654 81 QCURVE SMOOTH",
"174 81 LINE SMOOTH",
"158.328 81 OFFCURVE",
"135 104.328 OFFCURVE",
"135 120 QCURVE SMOOTH",
"135 720 LINE",
"54 720 LINE",
"54 120 LINE SMOOTH",
"54 70 OFFCURVE",
"124 0 OFFCURVE",
"174 0 QCURVE SMOOTH"
);
},
{
closed = 1;
nodes = (
"455 865 LINE",
"421 1004 LINE",
"340 1004 LINE",
"375 865 LINE"
);
}
);
width = 828;
},
{
layerId = "D465923C-ABAE-4975-85A4-08C1BC9DA335";
paths = (
{
closed = 1;
nodes = (
"626 0 LINE SMOOTH",
"686.448 0 OFFCURVE",
"774 86.806 OFFCURVE",
"774 148 QCURVE SMOOTH",
"774 720 LINE",
"617 720 LINE",
"617 189 LINE SMOOTH",
"617 156 OFFCURVE",
"617 156 OFFCURVE",
"584 156 QCURVE SMOOTH",
"242 156 LINE SMOOTH",
"209 156 OFFCURVE",
"209 156 OFFCURVE",
"209 189 QCURVE SMOOTH",
"209 720 LINE",
"54 720 LINE",
"54 148 LINE SMOOTH",
"54 86.806 OFFCURVE",
"140.806 0 OFFCURVE",
"202 0 QCURVE SMOOTH"
);
},
{
closed = 1;
nodes = (
"508 770 LINE",
"457 973 LINE",
"300 973 LINE",
"351 770 LINE"
);
}
);
width = 828;
}
);
unicode = 00D9;
},
{
color = 4;
glyphname = V;
lastChange = "2018-06-22 14:51:57 +0000";
layers = (
{
layerId = "17A5F7C0-AED1-4270-89BA-BFDC1003B8A5";
paths = (
{
closed = 1;
nodes = (
"546 0 LINE",
"962 720 LINE",
"867 720 LINE",
"499 79 LINE",
"130 720 LINE",
"35 720 LINE",
"452 0 LINE"
);
}
);
width = 1003;
},
{
layerId = "D465923C-ABAE-4975-85A4-08C1BC9DA335";
paths = (
{
closed = 1;
nodes = (
"581 0 LINE",
"998 720 LINE",
"819 720 LINE",
"517 197 LINE",
"215 720 LINE",
"35 720 LINE",
"452 0 LINE"
);
}
);
width = 1003;
}
);
unicode = 0056;
},
{
color = 4;
glyphname = W;
lastChange = "2018-06-22 15:13:03 +0000";
layers = (
{
layerId = "17A5F7C0-AED1-4270-89BA-BFDC1003B8A5";
paths = (
{
closed = 1;
nodes = (
"367 0 LINE",
"591 615 LINE",
"815 0 LINE",
"886 0 LINE",
"1148 720 LINE",
"1060 720 LINE",
"851 142 LINE",
"640 720 LINE",
"542 720 LINE",
"332 142 LINE",
"121 720 LINE",
"35 720 LINE",
"297 0 LINE"
);
}
);
width = 1179;
},
{
layerId = "D465923C-ABAE-4975-85A4-08C1BC9DA335";
paths = (
{
closed = 1;
nodes = (
"416 0 LINE",
"585 463 LINE",
"755 0 LINE",
"874 0 LINE",
"1136 720 LINE",
"972 720 LINE",
"815 291 LINE",
"657 720 LINE",
"514 720 LINE",
"357 291 LINE",
"200 720 LINE",
"35 720 LINE",
"297 0 LINE"
);
}
);
width = 1179;
}
);
unicode = 0057;
},
{
color = 4;
glyphname = X;
lastChange = "2018-06-22 15:18:08 +0000";
layers = (
{
layerId = "17A5F7C0-AED1-4270-89BA-BFDC1003B8A5";
paths = (
{
closed = 1;
nodes = (
"150 0 LINE",
"401 297 LINE",
"651 0 LINE",
"756 0 LINE",
"756 1 LINE",
"453 360 LINE",
"755 719 LINE",
"755 720 LINE",
"651 720 LINE",
"401 423 LINE",
"150 720 LINE",
"46 720 LINE",
"46 719 LINE",
"348 360 LINE",
"46 1 LINE",
"46 0 LINE"
);
}
);
width = 812;
},
{
layerId = "D465923C-ABAE-4975-85A4-08C1BC9DA335";
paths = (
{
closed = 1;
nodes = (
"207 0 LINE",
"405 236 LINE",
"605 0 LINE",
"766 0 LINE",
"766 54 LINE",
"508 360 LINE",
"766 667 LINE",
"766 720 LINE",
"605 720 LINE",
"407 483 LINE",
"207 720 LINE",
"46 720 LINE",
"46 667 LINE",
"303 360 LINE",
"46 53 LINE",
"46 0 LINE"
);
}
);
width = 812;
}
);
unicode = 0058;
},
{
color = 4;
glyphname = Y;
lastChange = "2018-06-22 15:25:52 +0000";
layers = (
{
layerId = "17A5F7C0-AED1-4270-89BA-BFDC1003B8A5";
paths = (
{
closed = 1;
nodes = (
"429 0 LINE",
"429 271 LINE",
"760 720 LINE",
"665 720 LINE",
"389 348 LINE",
"110 720 LINE",
"17 720 LINE",
"348 271 LINE",
"348 0 LINE"
);
}
);
width = 806;
},
{
layerId = "D465923C-ABAE-4975-85A4-08C1BC9DA335";
paths = (
{
closed = 1;
nodes = (
"506 0 LINE",
"506 268 LINE",
"840 720 LINE",
"653 720 LINE",
"428 436 LINE",
"202 720 LINE",
"17 720 LINE",
"350 269 LINE",
"350 0 LINE"
);
}
);
width = 806;
}
);
unicode = 0059;
},
{
color = 4;
glyphname = Yacute;
lastChange = "2018-06-22 15:25:52 +0000";
layers = (
{
layerId = "17A5F7C0-AED1-4270-89BA-BFDC1003B8A5";
paths = (
{
closed = 1;
nodes = (
"429 0 LINE",
"429 271 LINE",
"760 720 LINE",
"665 720 LINE",
"389 348 LINE",
"110 720 LINE",
"17 720 LINE",
"348 271 LINE",
"348 0 LINE"
);
},
{
closed = 1;
nodes = (
"409 865 LINE",
"443 1004 LINE",
"364 1004 LINE",
"329 865 LINE"
);
}
);
width = 806;
},
{
layerId = "D465923C-ABAE-4975-85A4-08C1BC9DA335";
paths = (
{
closed = 1;
nodes = (
"506 0 LINE",
"506 268 LINE",
"840 720 LINE",
"653 720 LINE",
"428 436 LINE",
"202 720 LINE",
"17 720 LINE",
"350 269 LINE",
"350 0 LINE"
);
},
{
closed = 1;
nodes = (
"486 770 LINE",
"537 973 LINE",
"380 973 LINE",
"329 770 LINE"
);
}
);
width = 806;
}
);
unicode = 00DD;
},
{
color = 4;
glyphname = Ydieresis;
lastChange = "2018-06-22 15:25:52 +0000";
layers = (
{
layerId = "17A5F7C0-AED1-4270-89BA-BFDC1003B8A5";
paths = (
{
closed = 1;
nodes = (
"429 0 LINE",
"429 271 LINE",
"760 720 LINE",
"665 720 LINE",
"389 348 LINE",
"110 720 LINE",
"17 720 LINE",
"348 271 LINE",
"348 0 LINE"
);
},
{
closed = 1;
nodes = (
"347 865 LINE",
"347 947 LINE",
"264 947 LINE",
"264 865 LINE"
);
},
{
closed = 1;
nodes = (
"526 865 LINE",
"526 947 LINE",
"444 947 LINE",
"444 865 LINE"
);
}
);
width = 806;
},
{
layerId = "D465923C-ABAE-4975-85A4-08C1BC9DA335";
paths = (
{
closed = 1;
nodes = (
"506 0 LINE",
"506 268 LINE",
"840 720 LINE",
"653 720 LINE",
"428 436 LINE",
"202 720 LINE",
"17 720 LINE",
"350 269 LINE",
"350 0 LINE"
);
},
{
closed = 1;
nodes = (
"397 770 LINE",
"397 924 LINE",
"244 924 LINE",
"244 770 LINE"
);
},
{
closed = 1;
nodes = (
"611 770 LINE",
"611 924 LINE",
"457 924 LINE",
"457 770 LINE"
);
}
);
width = 806;
}
);
unicode = 0178;
},
{
color = 4;
glyphname = Z;
lastChange = "2018-06-22 15:26:07 +0000";
layers = (
{
layerId = "17A5F7C0-AED1-4270-89BA-BFDC1003B8A5";
paths = (
{
closed = 1;
nodes = (
"679 639 LINE",
"51 111 LINE",
"51 0 LINE",
"771 0 LINE",
"771 81 LINE",
"143 81 LINE",
"771 609 LINE",
"771 720 LINE",
"51 720 LINE",
"51 639 LINE"
);
}
);
width = 821;
},
{
layerId = "D465923C-ABAE-4975-85A4-08C1BC9DA335";
paths = (
{
closed = 1;
nodes = (
"533 564 LINE",
"51 159 LINE",
"51 0 LINE",
"771 0 LINE",
"771 156 LINE",
"289 156 LINE",
"771 561 LINE",
"771 720 LINE",
"51 720 LINE",
"51 564 LINE"
);
}
);
width = 821;
}
);
unicode = 005A;
},
{
color = 4;
glyphname = Zcaron;
lastChange = "2018-06-22 15:26:07 +0000";
layers = (
{
layerId = "17A5F7C0-AED1-4270-89BA-BFDC1003B8A5";
paths = (
{
closed = 1;
nodes = (
"679 639 LINE",
"51 111 LINE",
"51 0 LINE",
"771 0 LINE",
"771 81 LINE",
"143 81 LINE",
"771 609 LINE",
"771 720 LINE",
"51 720 LINE",
"51 639 LINE"
);
},
{
closed = 1;
nodes = (
"360 864 LINE",
"419 864 LINE",
"489 981 LINE",
"448 981 LINE",
"390 896 LINE",
"330 981 LINE",
"288 981 LINE"
);
}
);
width = 821;
},
{
layerId = "D465923C-ABAE-4975-85A4-08C1BC9DA335";
paths = (
{
closed = 1;
nodes = (
"533 564 LINE",
"51 159 LINE",
"51 0 LINE",
"771 0 LINE",
"771 156 LINE",
"289 156 LINE",
"771 561 LINE",
"771 720 LINE",
"51 720 LINE",
"51 564 LINE"
);
},
{
closed = 1;
nodes = (
"368 769 LINE",
"468 769 LINE",
"578 953 LINE",
"443 953 LINE",
"416 909 LINE",
"389 953 LINE",
"258 953 LINE"
);
}
);
width = 821;
}
);
unicode = 017D;
},
{
color = 3;
glyphname = A.alt;
lastChange = "2018-06-21 19:18:06 +0000";
layers = (
{
layerId = "17A5F7C0-AED1-4270-89BA-BFDC1003B8A5";
paths = (
{
closed = 1;
nodes = (
"281 202 LINE",
"645 202 LINE",
"645 0 LINE",
"728 0 LINE",
"728 721 LINE",
"616 721 LINE",
"4 0 LINE",
"111 0 LINE"
);
},
{
closed = 1;
nodes = (
"645 285 LINE",
"351 285 LINE",
"645 629 LINE"
);
}
);
width = 774;
},
{
layerId = "D465923C-ABAE-4975-85A4-08C1BC9DA335";
paths = (
{
closed = 1;
nodes = (
"156 0 LINE",
"302 174 LINE",
"552 174 LINE",
"552 0 LINE",
"706 0 LINE",
"706 720 LINE",
"549 720 LINE",
"0 50 LINE",
"0 0 LINE"
);
},
{
closed = 1;
nodes = (
"552 327 LINE",
"430 327 LINE",
"552 471 LINE"
);
}
);
width = 774;
}
);
},
{
color = 3;
glyphname = C.alt;
lastChange = "2018-06-21 19:18:06 +0000";
layers = (
{
layerId = "17A5F7C0-AED1-4270-89BA-BFDC1003B8A5";
paths = (
{
closed = 1;
nodes = (
"758.806 658.06 OFFCURVE",
"692.299 720 OFFCURVE",
"652 720 QCURVE SMOOTH",
"172 720 LINE SMOOTH",
"122 720 OFFCURVE",
"52 650 OFFCURVE",
"52 600 QCURVE SMOOTH",
"52 120 LINE SMOOTH",
"52 70 OFFCURVE",
"122 0 OFFCURVE",
"172 0 QCURVE SMOOTH",
"652 0 LINE SMOOTH",
"692.299 0 OFFCURVE",
"758.806 61.94 OFFCURVE",
"770 100 QCURVE",
"770 194 LINE",
"692 194 LINE",
"692 81 LINE",
"172 81 LINE SMOOTH",
"156.328 81 OFFCURVE",
"133 104.328 OFFCURVE",
"133 120 QCURVE SMOOTH",
"133 600 LINE SMOOTH",
"133 615.672 OFFCURVE",
"156.328 639 OFFCURVE",
"172 639 QCURVE SMOOTH",
"692 639 LINE",
"692 526 LINE",
"773 526 LINE",
"770 620 LINE"
);
}
);
width = 822;
},
{
layerId = "D465923C-ABAE-4975-85A4-08C1BC9DA335";
paths = (
{
closed = 1;
nodes = (
"760.313 649.746 OFFCURVE",
"677.731 720 OFFCURVE",
"624 720 QCURVE SMOOTH",
"200 720 LINE SMOOTH",
"138.806 720 OFFCURVE",
"52 633.194 OFFCURVE",
"52 572 QCURVE SMOOTH",
"52 148 LINE SMOOTH",
"52 86.806 OFFCURVE",
"138.806 0 OFFCURVE",
"200 0 QCURVE SMOOTH",
"624 0 LINE SMOOTH",
"678.478 0 OFFCURVE",
"761.045 70.507 OFFCURVE",
"770 122 QCURVE",
"770 255 LINE",
"616 255 LINE",
"616 156 LINE",
"207 156 LINE",
"207 564 LINE",
"616 564 LINE",
"616 465 LINE",
"773 465 LINE",
"773 599 LINE"
);
}
);
width = 822;
}
);
},
{
color = 3;
glyphname = I.alt;
lastChange = "2018-06-21 19:18:06 +0000";
layers = (
{
layerId = "17A5F7C0-AED1-4270-89BA-BFDC1003B8A5";
paths = (
{
closed = 1;
nodes = (
"49 720 LINE",
"49 639 LINE",
"368 639 LINE",
"368 81 LINE",
"49 81 LINE",
"49 0 LINE",
"769 0 LINE",
"769 81 LINE",
"450 81 LINE",
"450 639 LINE",
"769 639 LINE",
"769 720 LINE"
);
}
);
width = 818;
},
{
layerId = "D465923C-ABAE-4975-85A4-08C1BC9DA335";
paths = (
{
closed = 1;
nodes = (
"49 720 LINE",
"49 564 LINE",
"331 564 LINE",
"331 156 LINE",
"49 156 LINE",
"49 0 LINE",
"769 0 LINE",
"769 156 LINE",
"487 156 LINE",
"487 564 LINE",
"769 564 LINE",
"769 720 LINE"
);
}
);
width = 818;
}
);
},
{
color = 3;
glyphname = J.alt;
lastChange = "2018-06-21 19:18:06 +0000";
layers = (
{
layerId = "17A5F7C0-AED1-4270-89BA-BFDC1003B8A5";
paths = (
{
closed = 1;
nodes = (
"506 104.328 OFFCURVE",
"483.672 81 OFFCURVE",
"468 81 QCURVE SMOOTH",
"3 81 LINE",
"3 0 LINE",
"468 0 LINE SMOOTH",
"517.254 0 OFFCURVE",
"588 70 OFFCURVE",
"588 120 QCURVE SMOOTH",
"588 720 LINE",
"506 720 LINE",
"506 120 LINE SMOOTH"
);
}
);
width = 645;
},
{
layerId = "D465923C-ABAE-4975-85A4-08C1BC9DA335";
paths = (
{
closed = 1;
nodes = (
"455 0 LINE SMOOTH",
"515.448 0 OFFCURVE",
"604 86.806 OFFCURVE",
"604 148 QCURVE SMOOTH",
"604 720 LINE",
"447 720 LINE",
"447 156 LINE",
"3 156 LINE",
"3 0 LINE"
);
}
);
width = 645;
}
);
},
{
color = 3;
glyphname = K.alt;
lastChange = "2018-06-21 19:18:06 +0000";
layers = (
{
layerId = "17A5F7C0-AED1-4270-89BA-BFDC1003B8A5";
paths = (
{
closed = 1;
nodes = (
"694 420.328 OFFCURVE",
"670.672 398 OFFCURVE",
"655 398 QCURVE SMOOTH",
"174 398 LINE SMOOTH",
"158.328 398 OFFCURVE",
"135 420.328 OFFCURVE",
"135 436 QCURVE SMOOTH",
"135 720 LINE",
"54 720 LINE",
"54 0 LINE",
"135 0 LINE",
"135 278 LINE SMOOTH",
"135 292.925 OFFCURVE",
"158.328 316 OFFCURVE",
"174 316 QCURVE SMOOTH",
"654 316 LINE SMOOTH",
"669.672 316 OFFCURVE",
"693 292.925 OFFCURVE",
"693 278 QCURVE SMOOTH",
"693 0 LINE",
"774 0 LINE",
"774 257 LINE SMOOTH",
"774 287.597 OFFCURVE",
"697.194 357 OFFCURVE",
"636 357 QCURVE",
"697.194 357 OFFCURVE",
"775 424.91 OFFCURVE",
"775 457 QCURVE SMOOTH",
"775 720 LINE",
"694 720 LINE",
"694 436 LINE SMOOTH"
);
}
);
width = 829;
},
{
layerId = "D465923C-ABAE-4975-85A4-08C1BC9DA335";
paths = (
{
closed = 1;
nodes = (
"54 720 LINE",
"54 0 LINE",
"209 0 LINE",
"209 279 LINE",
"617 279 LINE",
"617 0 LINE",
"774 0 LINE",
"774 269 LINE SMOOTH",
"774 293.627 OFFCURVE",
"744.612 340.582 OFFCURVE",
"717 357 QCURVE",
"743.866 373.418 OFFCURVE",
"775 421.119 OFFCURVE",
"775 445 QCURVE SMOOTH",
"775 720 LINE",
"618 720 LINE",
"618 435 LINE",
"209 435 LINE",
"209 720 LINE"
);
}
);
width = 829;
}
);
},
{
color = 3;
glyphname = M.alt;
lastChange = "2018-06-21 19:18:06 +0000";
layers = (
{
layerId = "17A5F7C0-AED1-4270-89BA-BFDC1003B8A5";
paths = (
{
closed = 1;
nodes = (
"54 0 LINE",
"136 0 LINE",
"136 639 LINE",
"494 639 LINE SMOOTH",
"509.672 639 OFFCURVE",
"532 615.672 OFFCURVE",
"532 600 QCURVE SMOOTH",
"532 0 LINE",
"614 0 LINE",
"614 639 LINE",
"997 639 LINE SMOOTH",
"1012.672 639 OFFCURVE",
"1035 615.672 OFFCURVE",
"1035 600 QCURVE SMOOTH",
"1035 0 LINE",
"1117 0 LINE",
"1117 600 LINE SMOOTH",
"1117 650 OFFCURVE",
"1046.254 720 OFFCURVE",
"997 720 QCURVE SMOOTH",
"54 720 LINE"
);
}
);
width = 1155;
},
{
layerId = "D465923C-ABAE-4975-85A4-08C1BC9DA335";
paths = (
{
closed = 1;
nodes = (
"54 0 LINE",
"209 0 LINE",
"209 564 LINE",
"476 564 LINE",
"476 0 LINE",
"632 0 LINE",
"632 564 LINE",
"920 564 LINE",
"920 0 LINE",
"1076 0 LINE",
"1076 572 LINE SMOOTH",
"1076 633.194 OFFCURVE",
"988.701 720 OFFCURVE",
"929 720 QCURVE SMOOTH",
"54 720 LINE"
);
}
);
width = 1155;
}
);
},
{
color = 3;
glyphname = N.alt;
lastChange = "2018-06-21 19:18:06 +0000";
layers = (
{
layerId = "17A5F7C0-AED1-4270-89BA-BFDC1003B8A5";
paths = (
{
closed = 1;
nodes = (
"135 639 LINE",
"654 639 LINE SMOOTH",
"669.672 639 OFFCURVE",
"693 615.672 OFFCURVE",
"693 600 QCURVE SMOOTH",
"693 0 LINE",
"774 0 LINE",
"774 600 LINE SMOOTH",
"774 650 OFFCURVE",
"704 720 OFFCURVE",
"654 720 QCURVE SMOOTH",
"54 720 LINE",
"54 0 LINE",
"135 0 LINE"
);
}
);
width = 827;
},
{
layerId = "D465923C-ABAE-4975-85A4-08C1BC9DA335";
paths = (
{
closed = 1;
nodes = (
"209 564 LINE",
"617 564 LINE",
"617 0 LINE",
"774 0 LINE",
"774 572 LINE SMOOTH",
"774 633.194 OFFCURVE",
"686.448 720 OFFCURVE",
"626 720 QCURVE SMOOTH",
"54 720 LINE",
"54 0 LINE",
"209 0 LINE"
);
}
);
width = 827;
}
);
},
{
color = 3;
glyphname = O.alt;
lastChange = "2018-06-21 19:18:06 +0000";
layers = (
{
layerId = "17A5F7C0-AED1-4270-89BA-BFDC1003B8A5";
paths = (
{
closed = 1;
nodes = (
"122 720 OFFCURVE",
"52 650 OFFCURVE",
"52 600 QCURVE SMOOTH",
"52 120 LINE SMOOTH",
"52 70 OFFCURVE",
"122 0 OFFCURVE",
"172 0 QCURVE SMOOTH",
"652 0 LINE SMOOTH",
"702 0 OFFCURVE",
"772 70 OFFCURVE",
"772 120 QCURVE SMOOTH",
"772 600 LINE SMOOTH",
"772 650 OFFCURVE",
"702 720 OFFCURVE",
"652 720 QCURVE SMOOTH",
"172 720 LINE SMOOTH"
);
},
{
closed = 1;
nodes = (
"691 104.328 OFFCURVE",
"667.672 81 OFFCURVE",
"652 81 QCURVE SMOOTH",
"172 81 LINE SMOOTH",
"156.328 81 OFFCURVE",
"133 104.328 OFFCURVE",
"133 120 QCURVE SMOOTH",
"133 600 LINE SMOOTH",
"133 615.672 OFFCURVE",
"156.328 639 OFFCURVE",
"172 639 QCURVE SMOOTH",
"652 639 LINE SMOOTH",
"667.672 639 OFFCURVE",
"691 615.672 OFFCURVE",
"691 600 QCURVE SMOOTH",
"691 120 LINE SMOOTH"
);
},
{
closed = 1;
nodes = (
"453 401 LINE",
"371 401 LINE",
"371 319 LINE",
"453 319 LINE"
);
}
);
width = 824;
},
{
layerId = "D465923C-ABAE-4975-85A4-08C1BC9DA335";
paths = (
{
closed = 1;
nodes = (
"138.806 720 OFFCURVE",
"52 633.194 OFFCURVE",
"52 572 QCURVE SMOOTH",
"52 148 LINE SMOOTH",
"52 86.806 OFFCURVE",
"138.806 0 OFFCURVE",
"200 0 QCURVE SMOOTH",
"624 0 LINE SMOOTH",
"684.448 0 OFFCURVE",
"772 86.806 OFFCURVE",
"772 148 QCURVE SMOOTH",
"772 572 LINE SMOOTH",
"772 633.194 OFFCURVE",
"684.448 720 OFFCURVE",
"624 720 QCURVE SMOOTH",
"200 720 LINE SMOOTH"
);
},
{
closed = 1;
nodes = (
"615 564 LINE",
"615 156 LINE",
"207 156 LINE",
"207 564 LINE"
);
},
{
closed = 1;
nodes = (
"490 438 LINE",
"334 438 LINE",
"334 282 LINE",
"490 282 LINE"
);
}
);
width = 824;
}
);
},
{
color = 3;
glyphname = Q.alt;
lastChange = "2018-06-21 19:18:06 +0000";
layers = (
{
layerId = "17A5F7C0-AED1-4270-89BA-BFDC1003B8A5";
paths = (
{
closed = 1;
nodes = (
"124 720 OFFCURVE",
"54 650 OFFCURVE",
"54 600 QCURVE SMOOTH",
"54 120 LINE SMOOTH",
"54 70 OFFCURVE",
"124 0 OFFCURVE",
"174 0 QCURVE SMOOTH",
"373 0 LINE",
"373 -113 LINE",
"455 -113 LINE",
"455 0 LINE",
"654 0 LINE SMOOTH",
"704 0 OFFCURVE",
"774 70 OFFCURVE",
"774 120 QCURVE SMOOTH",
"774 600 LINE SMOOTH",
"774 650 OFFCURVE",
"704 720 OFFCURVE",
"654 720 QCURVE SMOOTH",
"174 720 LINE SMOOTH"
);
},
{
closed = 1;
nodes = (
"693 104.328 OFFCURVE",
"669.672 81 OFFCURVE",
"654 81 QCURVE SMOOTH",
"174 81 LINE SMOOTH",
"158.328 81 OFFCURVE",
"135 104.328 OFFCURVE",
"135 120 QCURVE SMOOTH",
"135 600 LINE SMOOTH",
"135 615.672 OFFCURVE",
"158.328 639 OFFCURVE",
"174 639 QCURVE SMOOTH",
"654 639 LINE SMOOTH",
"669.672 639 OFFCURVE",
"693 615.672 OFFCURVE",
"693 600 QCURVE SMOOTH",
"693 120 LINE SMOOTH"
);
}
);
width = 868;
},
{
layerId = "D465923C-ABAE-4975-85A4-08C1BC9DA335";
paths = (
{
closed = 1;
nodes = (
"140.806 720 OFFCURVE",
"54 633.194 OFFCURVE",
"54 572 QCURVE SMOOTH",
"54 148 LINE SMOOTH",
"54 86.806 OFFCURVE",
"140.806 0 OFFCURVE",
"202 0 QCURVE SMOOTH",
"335 0 LINE",
"335 -120 LINE",
"492 -120 LINE",
"492 0 LINE",
"626 0 LINE SMOOTH",
"686.448 0 OFFCURVE",
"774 86.806 OFFCURVE",
"774 148 QCURVE SMOOTH",
"774 572 LINE SMOOTH",
"774 633.194 OFFCURVE",
"686.448 720 OFFCURVE",
"626 720 QCURVE SMOOTH",
"202 720 LINE SMOOTH"
);
},
{
closed = 1;
nodes = (
"617 564 LINE",
"617 156 LINE",
"209 156 LINE",
"209 564 LINE"
);
}
);
width = 868;
}
);
},
{
color = 3;
glyphname = R.alt;
lastChange = "2018-06-21 19:18:06 +0000";
layers = (
{
layerId = "17A5F7C0-AED1-4270-89BA-BFDC1003B8A5";
paths = (
{
closed = 1;
nodes = (
"774 648.254 OFFCURVE",
"704 719 OFFCURVE",
"654 719 QCURVE SMOOTH",
"54 720 LINE",
"54 0 LINE",
"135 0 LINE",
"135 230 LINE SMOOTH",
"135 244.925 OFFCURVE",
"158.328 268 OFFCURVE",
"174 268 QCURVE SMOOTH",
"654 268 LINE SMOOTH",
"669.672 268 OFFCURVE",
"693 244.925 OFFCURVE",
"693 230 QCURVE SMOOTH",
"693 0 LINE",
"774 0 LINE",
"774 230 LINE SMOOTH",
"774 272.537 OFFCURVE",
"688.642 309 OFFCURVE",
"667 309 QCURVE",
"687.896 309 OFFCURVE",
"774 345.463 OFFCURVE",
"774 388 QCURVE SMOOTH",
"774 599 LINE SMOOTH"
);
},
{
closed = 1;
nodes = (
"669.672 638 OFFCURVE",
"693 614.672 OFFCURVE",
"693 599 QCURVE SMOOTH",
"693 388 LINE SMOOTH",
"693 372.328 OFFCURVE",
"669.672 350 OFFCURVE",
"654 350 QCURVE SMOOTH",
"174 350 LINE SMOOTH",
"158.328 350 OFFCURVE",
"135 372.328 OFFCURVE",
"135 388 QCURVE SMOOTH",
"135 599 LINE SMOOTH",
"135 614.672 OFFCURVE",
"158.328 638 OFFCURVE",
"174 638 QCURVE SMOOTH",
"654 638 LINE SMOOTH"
);
}
);
width = 826;
},
{
layerId = "D465923C-ABAE-4975-85A4-08C1BC9DA335";
paths = (
{
closed = 1;
nodes = (
"774 631.448 OFFCURVE",
"686.448 720 OFFCURVE",
"626 720 QCURVE SMOOTH",
"54 721 LINE",
"54 0 LINE",
"209 0 LINE",
"209 237 LINE",
"617 237 LINE",
"617 0 LINE",
"774 0 LINE",
"774 245 LINE SMOOTH",
"774 269.627 OFFCURVE",
"755.672 303.806 OFFCURVE",
"740 315 QCURVE",
"754.925 326.194 OFFCURVE",
"774 361.119 OFFCURVE",
"774 385 QCURVE SMOOTH",
"774 571 LINE SMOOTH"
);
},
{
closed = 1;
nodes = (
"617 564 LINE",
"617 393 LINE",
"209 393 LINE",
"209 564 LINE"
);
}
);
width = 826;
}
);
},
{
color = 3;
glyphname = S.alt;
lastChange = "2018-06-21 19:18:06 +0000";
layers = (
{
layerId = "17A5F7C0-AED1-4270-89BA-BFDC1003B8A5";
paths = (
{
closed = 1;
nodes = (
"150.328 401 OFFCURVE",
"127 423.328 OFFCURVE",
"127 439 QCURVE SMOOTH",
"127 600 LINE SMOOTH",
"127 615.672 OFFCURVE",
"150.328 639 OFFCURVE",
"166 639 QCURVE SMOOTH",
"766 639 LINE",
"766 720 LINE",
"166 720 LINE SMOOTH",
"116 720 OFFCURVE",
"46 650 OFFCURVE",
"46 600 QCURVE SMOOTH",
"46 439 LINE SMOOTH",
"46 389.746 OFFCURVE",
"116 319 OFFCURVE",
"166 319 QCURVE SMOOTH",
"646 319 LINE SMOOTH",
"661.672 319 OFFCURVE",
"684 296.672 OFFCURVE",
"684 281 QCURVE SMOOTH",
"684 120 LINE SMOOTH",
"684 104.328 OFFCURVE",
"661.672 81 OFFCURVE",
"646 81 QCURVE SMOOTH",
"46 81 LINE",
"46 0 LINE",
"646 0 LINE SMOOTH",
"696 0 OFFCURVE",
"766 70 OFFCURVE",
"766 120 QCURVE SMOOTH",
"766 281 LINE SMOOTH",
"766 330.254 OFFCURVE",
"696 401 OFFCURVE",
"646 401 QCURVE SMOOTH",
"166 401 LINE SMOOTH"
);
}
);
width = 812;
},
{
layerId = "D465923C-ABAE-4975-85A4-08C1BC9DA335";
paths = (
{
closed = 1;
nodes = (
"766 720 LINE",
"194 720 LINE SMOOTH",
"132.806 720 OFFCURVE",
"46 633.194 OFFCURVE",
"46 572 QCURVE SMOOTH",
"46 430 LINE SMOOTH",
"46 368.806 OFFCURVE",
"132.806 282 OFFCURVE",
"194 282 QCURVE SMOOTH",
"610 282 LINE",
"610 156 LINE",
"46 156 LINE",
"46 0 LINE",
"618 0 LINE SMOOTH",
"678.448 0 OFFCURVE",
"766 86.806 OFFCURVE",
"766 148 QCURVE SMOOTH",
"766 290 LINE SMOOTH",
"766 351.194 OFFCURVE",
"678.448 438 OFFCURVE",
"618 438 QCURVE SMOOTH",
"202 438 LINE",
"202 564 LINE",
"766 564 LINE"
);
}
);
width = 812;
}
);
},
{
color = 3;
glyphname = V.alt;
lastChange = "2018-06-21 19:18:06 +0000";
layers = (
{
layerId = "17A5F7C0-AED1-4270-89BA-BFDC1003B8A5";
paths = (
{
closed = 1;
nodes = (
"54 0 LINE",
"166 0 LINE",
"777 721 LINE",
"670 721 LINE",
"544.627 570.254 OFFCURVE",
"261.627 242.254 OFFCURVE",
"137 93 QCURVE",
"137 721 LINE",
"54 721 LINE"
);
}
);
width = 774;
},
{
layerId = "D465923C-ABAE-4975-85A4-08C1BC9DA335";
paths = (
{
closed = 1;
nodes = (
"54 0 LINE",
"211 0 LINE",
"761 656 LINE",
"761 720 LINE",
"605 720 LINE",
"207 234 LINE",
"207 720 LINE",
"54 720 LINE"
);
}
);
width = 774;
}
);
},
{
color = 3;
glyphname = W.alt;
lastChange = "2018-06-21 19:18:06 +0000";
layers = (
{
layerId = "17A5F7C0-AED1-4270-89BA-BFDC1003B8A5";
paths = (
{
closed = 1;
nodes = (
"938.881 569.254 OFFCURVE",
"656.373 242.254 OFFCURVE",
"531 93 QCURVE",
"531 442 LINE",
"770 720 LINE",
"665 720 LINE",
"538.881 569.254 OFFCURVE",
"256.373 242.254 OFFCURVE",
"131 93 QCURVE",
"131 720 LINE",
"49 720 LINE",
"49 0 LINE",
"161 0 LINE",
"449 343 LINE",
"449 0 LINE",
"561 0 LINE",
"1171 720 LINE",
"1065 720 LINE"
);
}
);
width = 1171;
},
{
layerId = "D465923C-ABAE-4975-85A4-08C1BC9DA335";
paths = (
{
closed = 1;
nodes = (
"687 359 LINE SMOOTH",
"662.373 329.149 OFFCURVE",
"609.627 266.851 OFFCURVE",
"585 237 QCURVE",
"585 413 LINE",
"800 667 LINE",
"800 720 LINE",
"640 720 LINE",
"369 397 LINE",
"370 397 LINE",
"337.164 358.194 OFFCURVE",
"269.582 276.552 OFFCURVE",
"236 237 QCURVE",
"236 720 LINE",
"80 720 LINE",
"80 0 LINE",
"240 0 LINE",
"429 225 LINE",
"429 0 LINE",
"588 0 LINE",
"1149 668 LINE",
"1149 720 LINE",
"988 720 LINE"
);
}
);
width = 1149;
}
);
},
{
color = 3;
glyphname = X.alt;
lastChange = "2018-06-21 19:18:06 +0000";
layers = (
{
layerId = "17A5F7C0-AED1-4270-89BA-BFDC1003B8A5";
paths = (
{
closed = 1;
nodes = (
"694 436 LINE SMOOTH",
"694 420.328 OFFCURVE",
"670.672 398 OFFCURVE",
"655 398 QCURVE SMOOTH",
"174 398 LINE SMOOTH",
"158.328 398 OFFCURVE",
"135 420.328 OFFCURVE",
"135 436 QCURVE SMOOTH",
"135 720 LINE",
"54 720 LINE",
"54 457 LINE SMOOTH",
"54 418.94 OFFCURVE",
"138.522 357 OFFCURVE",
"193 357 QCURVE",
"138.522 357 OFFCURVE",
"55 295.06 OFFCURVE",
"55 257 QCURVE SMOOTH",
"55 0 LINE",
"136 0 LINE",
"136 278 LINE SMOOTH",
"136 292.925 OFFCURVE",
"159.328 316 OFFCURVE",
"175 316 QCURVE SMOOTH",
"654 316 LINE SMOOTH",
"669.672 316 OFFCURVE",
"693 292.925 OFFCURVE",
"693 278 QCURVE SMOOTH",
"693 0 LINE",
"774 0 LINE",
"774 257 LINE SMOOTH",
"774 295.06 OFFCURVE",
"689.731 357 OFFCURVE",
"636 357 QCURVE",
"689.731 357 OFFCURVE",
"775 418.94 OFFCURVE",
"775 457 QCURVE SMOOTH",
"775 720 LINE",
"694 720 LINE"
);
}
);
width = 829;
},
{
layerId = "D465923C-ABAE-4975-85A4-08C1BC9DA335";
paths = (
{
closed = 1;
nodes = (
"618 435 LINE",
"209 435 LINE",
"209 720 LINE",
"54 720 LINE",
"54 445 LINE SMOOTH",
"54 419.627 OFFCURVE",
"87.358 371.925 OFFCURVE",
"109 357 QCURVE",
"85.119 342.075 OFFCURVE",
"55 295.866 OFFCURVE",
"55 269 QCURVE SMOOTH",
"55 0 LINE",
"210 0 LINE",
"210 279 LINE",
"617 279 LINE",
"617 0 LINE",
"774 0 LINE",
"774 269 LINE SMOOTH",
"774 297.358 OFFCURVE",
"745.866 342.075 OFFCURVE",
"719 357 QCURVE",
"744.373 371.925 OFFCURVE",
"775 417.388 OFFCURVE",
"775 445 QCURVE SMOOTH",
"775 720 LINE",
"618 720 LINE"
);
}
);
width = 829;
}
);
},
{
color = 3;
glyphname = Y.alt;
lastChange = "2018-06-21 19:18:06 +0000";
layers = (
{
layerId = "17A5F7C0-AED1-4270-89BA-BFDC1003B8A5";
paths = (
{
closed = 1;
nodes = (
"690 401 LINE",
"171 401 LINE SMOOTH",
"155.328 401 OFFCURVE",
"132 423.328 OFFCURVE",
"132 439 QCURVE SMOOTH",
"132 720 LINE",
"51 720 LINE",
"51 439 LINE SMOOTH",
"51 389.746 OFFCURVE",
"121 319 OFFCURVE",
"171 319 QCURVE SMOOTH",
"651 319 LINE SMOOTH",
"666.672 319 OFFCURVE",
"690 296.672 OFFCURVE",
"690 281 QCURVE SMOOTH",
"690 120 LINE SMOOTH",
"690 104.328 OFFCURVE",
"666.672 81 OFFCURVE",
"651 81 QCURVE SMOOTH",
"51 81 LINE",
"51 0 LINE",
"651 0 LINE SMOOTH",
"701 0 OFFCURVE",
"771 70 OFFCURVE",
"771 120 QCURVE SMOOTH",
"771 720 LINE",
"690 720 LINE"
);
}
);
width = 824;
},
{
layerId = "D465923C-ABAE-4975-85A4-08C1BC9DA335";
paths = (
{
closed = 1;
nodes = (
"614 438 LINE",
"206 438 LINE",
"206 720 LINE",
"51 720 LINE",
"51 430 LINE SMOOTH",
"51 368.806 OFFCURVE",
"137.806 282 OFFCURVE",
"199 282 QCURVE SMOOTH",
"614 282 LINE",
"614 156 LINE",
"51 156 LINE",
"51 0 LINE",
"623 0 LINE SMOOTH",
"683.448 0 OFFCURVE",
"771 86.806 OFFCURVE",
"771 148 QCURVE SMOOTH",
"771 720 LINE",
"614 720 LINE"
);
}
);
width = 824;
}
);
},
{
color = 3;
glyphname = Z.alt;
lastChange = "2018-06-21 19:18:06 +0000";
layers = (
{
layerId = "17A5F7C0-AED1-4270-89BA-BFDC1003B8A5";
paths = (
{
closed = 1;
nodes = (
"119 401 OFFCURVE",
"49 330.254 OFFCURVE",
"49 281 QCURVE SMOOTH",
"49 120 LINE SMOOTH",
"49 70 OFFCURVE",
"119 0 OFFCURVE",
"169 0 QCURVE SMOOTH",
"769 0 LINE",
"769 81 LINE",
"169 81 LINE SMOOTH",
"153.328 81 OFFCURVE",
"130 104.328 OFFCURVE",
"130 120 QCURVE SMOOTH",
"130 281 LINE SMOOTH",
"130 296.672 OFFCURVE",
"153.328 319 OFFCURVE",
"169 319 QCURVE SMOOTH",
"649 319 LINE SMOOTH",
"699 319 OFFCURVE",
"769 389.746 OFFCURVE",
"769 439 QCURVE SMOOTH",
"769 600 LINE SMOOTH",
"769 650 OFFCURVE",
"699 720 OFFCURVE",
"649 720 QCURVE SMOOTH",
"49 720 LINE",
"49 639 LINE",
"649 639 LINE SMOOTH",
"664.672 639 OFFCURVE",
"687 615.672 OFFCURVE",
"687 600 QCURVE SMOOTH",
"687 439 LINE SMOOTH",
"687 423.328 OFFCURVE",
"664.672 401 OFFCURVE",
"649 401 QCURVE SMOOTH",
"169 401 LINE SMOOTH"
);
}
);
width = 818;
},
{
layerId = "D465923C-ABAE-4975-85A4-08C1BC9DA335";
paths = (
{
closed = 1;
nodes = (
"135.806 438 OFFCURVE",
"49 351.194 OFFCURVE",
"49 290 QCURVE SMOOTH",
"49 148 LINE SMOOTH",
"49 86.806 OFFCURVE",
"135.806 0 OFFCURVE",
"197 0 QCURVE SMOOTH",
"769 0 LINE",
"769 156 LINE",
"204 156 LINE",
"204 282 LINE",
"621 282 LINE SMOOTH",
"681.448 282 OFFCURVE",
"769 368.806 OFFCURVE",
"769 430 QCURVE SMOOTH",
"769 572 LINE SMOOTH",
"769 633.194 OFFCURVE",
"681.448 720 OFFCURVE",
"621 720 QCURVE SMOOTH",
"49 720 LINE",
"49 564 LINE",
"612 564 LINE",
"612 438 LINE",
"197 438 LINE SMOOTH"
);
}
);
width = 818;
}
);
},
{
color = 3;
glyphname = A.alt2;
lastChange = "2018-06-21 19:18:06 +0000";
layers = (
{
layerId = "17A5F7C0-AED1-4270-89BA-BFDC1003B8A5";
paths = (
{
closed = 1;
nodes = (
"54 0 LINE",
"137 0 LINE",
"137 202 LINE",
"499 202 LINE",
"670 0 LINE",
"778 0 LINE",
"166 721 LINE",
"54 721 LINE"
);
},
{
closed = 1;
nodes = (
"432 285 LINE",
"137 285 LINE",
"137 629 LINE"
);
}
);
width = 774;
},
{
layerId = "D465923C-ABAE-4975-85A4-08C1BC9DA335";
paths = (
{
closed = 1;
nodes = (
"54 0 LINE",
"207 0 LINE",
"207 174 LINE",
"457 174 LINE",
"604 0 LINE",
"761 0 LINE",
"761 50 LINE",
"211 720 LINE",
"54 720 LINE"
);
},
{
closed = 1;
nodes = (
"329 327 LINE",
"207 327 LINE",
"207 471 LINE"
);
}
);
width = 774;
}
);
},
{
color = 3;
glyphname = V.alt2;
lastChange = "2018-06-21 19:18:06 +0000";
layers = (
{
layerId = "17A5F7C0-AED1-4270-89BA-BFDC1003B8A5";
paths = (
{
closed = 1;
nodes = (
"107 720 LINE",
"0 720 LINE",
"605 0 LINE",
"716 0 LINE",
"716 720 LINE",
"635 720 LINE",
"635 92 LINE"
);
}
);
width = 774;
},
{
layerId = "D465923C-ABAE-4975-85A4-08C1BC9DA335";
paths = (
{
closed = 1;
nodes = (
"160 720 LINE",
"0 720 LINE",
"0 668 LINE",
"561 0 LINE",
"720 0 LINE",
"720 720 LINE",
"563 720 LINE",
"563 240 LINE"
);
}
);
width = 774;
}
);
},
{
color = 3;
glyphname = W.alt2;
lastChange = "2018-06-21 19:18:06 +0000";
layers = (
{
layerId = "17A5F7C0-AED1-4270-89BA-BFDC1003B8A5";
paths = (
{
closed = 1;
nodes = (
"724 0 LINE",
"724 343 LINE",
"1012 0 LINE",
"1123 0 LINE",
"1123 720 LINE",
"1041 720 LINE",
"1041 93 LINE",
"507 720 LINE",
"401 720 LINE",
"641 442 LINE",
"641 93 LINE",
"108 720 LINE",
"0 720 LINE",
"612 0 LINE"
);
}
);
width = 1168;
},
{
layerId = "D465923C-ABAE-4975-85A4-08C1BC9DA335";
paths = (
{
closed = 1;
nodes = (
"-1 720 LINE",
"-1 668 LINE",
"560 0 LINE",
"719 0 LINE",
"719 225 LINE",
"909 0 LINE",
"1068 0 LINE",
"1068 720 LINE",
"912 720 LINE",
"912 238 LINE",
"507 720 LINE",
"348 720 LINE",
"348 667 LINE",
"563 413 LINE",
"563 240 LINE",
"159 720 LINE"
);
}
);
width = 1131;
}
);
},
{
color = 3;
glyphname = A.alt3;
lastChange = "2018-06-21 19:18:06 +0000";
layers = (
{
layerId = "17A5F7C0-AED1-4270-89BA-BFDC1003B8A5";
paths = (
{
closed = 1;
nodes = (
"740.731 181.343 OFFCURVE",
"548.269 538.657 OFFCURVE",
"452 720 QCURVE",
"358 720 LINE",
"258.746 534.925 OFFCURVE",
"70.507 185.075 OFFCURVE",
"-28 0 QCURVE",
"67 0 LINE",
"91.627 43.284 OFFCURVE",
"149.119 139.716 OFFCURVE",
"173 183 QCURVE",
"637 183 LINE",
"742 0 LINE",
"837 0 LINE"
);
},
{
closed = 1;
nodes = (
"588 264 LINE",
"220 264 LINE",
"405 644 LINE"
);
}
);
width = 827;
},
{
layerId = "D465923C-ABAE-4975-85A4-08C1BC9DA335";
paths = (
{
closed = 1;
nodes = (
"491 720 LINE",
"358 720 LINE",
"-28 0 LINE",
"150 0 LINE",
"244 161 LINE",
"606 161 LINE",
"698 0 LINE",
"876 0 LINE"
);
},
{
closed = 1;
nodes = (
"449.373 456.776 OFFCURVE",
"493.627 368.493 OFFCURVE",
"519 317 QCURVE",
"330 317 LINE",
"424 512 LINE"
);
}
);
width = 827;
}
);
},
{
color = 3;
glyphname = V.alt3;
lastChange = "2018-06-21 19:18:06 +0000";
layers = (
{
layerId = "17A5F7C0-AED1-4270-89BA-BFDC1003B8A5";
paths = (
{
closed = 1;
nodes = (
"692 81 LINE",
"173 81 LINE SMOOTH",
"157.328 81 OFFCURVE",
"134 104.328 OFFCURVE",
"134 120 QCURVE SMOOTH",
"134 720 LINE",
"53 720 LINE",
"53 120 LINE SMOOTH",
"53 70 OFFCURVE",
"123 0 OFFCURVE",
"173 0 QCURVE SMOOTH",
"773 0 LINE",
"773 720 LINE",
"692 720 LINE"
);
}
);
width = 827;
},
{
layerId = "D465923C-ABAE-4975-85A4-08C1BC9DA335";
paths = (
{
closed = 1;
nodes = (
"616 156 LINE",
"208 156 LINE",
"208 720 LINE",
"53 720 LINE",
"53 148 LINE SMOOTH",
"53 86.806 OFFCURVE",
"139.806 0 OFFCURVE",
"201 0 QCURVE SMOOTH",
"773 0 LINE",
"773 720 LINE",
"616 720 LINE"
);
}
);
width = 827;
}
);
},
{
color = 3;
glyphname = W.alt3;
lastChange = "2018-06-21 19:18:06 +0000";
layers = (
{
layerId = "17A5F7C0-AED1-4270-89BA-BFDC1003B8A5";
paths = (
{
closed = 1;
nodes = (
"872 0 LINE",
"983 0 LINE",
"983 720 LINE",
"901 720 LINE",
"901 92 LINE",
"518 549 LINE",
"135 92 LINE",
"135 720 LINE",
"54 720 LINE",
"54 0 LINE",
"164 0 LINE",
"518 421 LINE"
);
}
);
width = 1028;
},
{
layerId = "D465923C-ABAE-4975-85A4-08C1BC9DA335";
paths = (
{
closed = 1;
nodes = (
"799 0 LINE",
"958 0 LINE",
"958 720 LINE",
"802 720 LINE",
"802 240 LINE",
"507 591 LINE",
"209 239 LINE",
"209 720 LINE",
"54 720 LINE",
"54 0 LINE",
"213 0 LINE",
"506 349 LINE"
);
}
);
width = 1028;
}
);
},
{
color = 3;
glyphname = W.alt4;
lastChange = "2018-06-21 19:18:06 +0000";
layers = (
{
layerId = "17A5F7C0-AED1-4270-89BA-BFDC1003B8A5";
paths = (
{
closed = 1;
nodes = (
"1116 720 LINE",
"1034 720 LINE",
"1034 81 LINE",
"676 81 LINE SMOOTH",
"660.328 81 OFFCURVE",
"638 104.328 OFFCURVE",
"638 120 QCURVE SMOOTH",
"638 720 LINE",
"556 720 LINE",
"556 81 LINE",
"173 81 LINE SMOOTH",
"158.075 81 OFFCURVE",
"135 104.328 OFFCURVE",
"135 120 QCURVE SMOOTH",
"135 720 LINE",
"53 720 LINE",
"53 120 LINE SMOOTH",
"53 70 OFFCURVE",
"123.746 0 OFFCURVE",
"173 0 QCURVE SMOOTH",
"1116 0 LINE"
);
}
);
width = 1155;
},
{
layerId = "D465923C-ABAE-4975-85A4-08C1BC9DA335";
paths = (
{
closed = 1;
nodes = (
"1075 720 LINE",
"919 720 LINE",
"919 156 LINE",
"653 156 LINE",
"653 720 LINE",
"497 720 LINE",
"497 156 LINE",
"208 156 LINE",
"208 720 LINE",
"53 720 LINE",
"53 148 LINE SMOOTH",
"53 86.806 OFFCURVE",
"139.806 0 OFFCURVE",
"201 0 QCURVE SMOOTH",
"1075 0 LINE"
);
}
);
width = 1155;
}
);
},
{
color = 3;
glyphname = a;
lastChange = "2018-06-21 19:18:06 +0000";
layers = (
{
layerId = "17A5F7C0-AED1-4270-89BA-BFDC1003B8A5";
paths = (
{
closed = 1;
nodes = (
"52 498 LINE",
"521 498 LINE SMOOTH",
"537.418 498 OFFCURVE",
"560 474.672 OFFCURVE",
"560 459 QCURVE SMOOTH",
"560 331 LINE",
"52 331 LINE",
"52 121 LINE SMOOTH",
"52 71 OFFCURVE",
"123 0 OFFCURVE",
"173 0 QCURVE SMOOTH",
"643 0 LINE",
"643 459 LINE SMOOTH",
"643 509 OFFCURVE",
"571.746 580 OFFCURVE",
"521 580 QCURVE SMOOTH",
"52 580 LINE"
);
},
{
closed = 1;
nodes = (
"173 82 LINE SMOOTH",
"157.328 82 OFFCURVE",
"134 105.328 OFFCURVE",
"134 121 QCURVE SMOOTH",
"134 249 LINE",
"560 249 LINE",
"560 82 LINE"
);
}
);
width = 694;
},
{
layerId = "D465923C-ABAE-4975-85A4-08C1BC9DA335";
paths = (
{
closed = 1;
nodes = (
"52 427 LINE",
"487 427 LINE",
"487 367 LINE",
"52 367 LINE",
"52 145 LINE SMOOTH",
"52 86.045 OFFCURVE",
"137.299 0 OFFCURVE",
"197 0 QCURVE SMOOTH",
"640 0 LINE",
"640 435 LINE SMOOTH",
"640 493.955 OFFCURVE",
"554.701 580 OFFCURVE",
"495 580 QCURVE SMOOTH",
"52 580 LINE"
);
},
{
closed = 1;
nodes = (
"205 153 LINE",
"205 233 LINE",
"487 233 LINE",
"487 153 LINE"
);
}
);
width = 694;
}
);
unicode = 0061;
},
{
color = 3;
glyphname = aacute;
lastChange = "2018-06-21 19:18:06 +0000";
layers = (
{
layerId = "17A5F7C0-AED1-4270-89BA-BFDC1003B8A5";
paths = (
{
closed = 1;
nodes = (
"52 498 LINE",
"521 498 LINE SMOOTH",
"537.418 498 OFFCURVE",
"560 474.672 OFFCURVE",
"560 459 QCURVE SMOOTH",
"560 331 LINE",
"52 331 LINE",
"52 121 LINE SMOOTH",
"52 71 OFFCURVE",
"123 0 OFFCURVE",
"173 0 QCURVE SMOOTH",
"643 0 LINE",
"643 459 LINE SMOOTH",
"643 509 OFFCURVE",
"571.746 580 OFFCURVE",
"521 580 QCURVE SMOOTH",
"52 580 LINE"
);
},
{
closed = 1;
nodes = (
"173 82 LINE SMOOTH",
"157.328 82 OFFCURVE",
"134 105.328 OFFCURVE",
"134 121 QCURVE SMOOTH",
"134 249 LINE",
"560 249 LINE",
"560 82 LINE"
);
},
{
closed = 1;
nodes = (
"368 763 LINE",
"402 902 LINE",
"323 902 LINE",
"288 763 LINE"
);
}
);
width = 725;
},
{
layerId = "D465923C-ABAE-4975-85A4-08C1BC9DA335";
paths = (
{
closed = 1;
nodes = (
"52 427 LINE",
"487 427 LINE",
"487 367 LINE",
"52 367 LINE",
"52 145 LINE SMOOTH",
"52 86.045 OFFCURVE",
"137.299 0 OFFCURVE",
"197 0 QCURVE SMOOTH",
"640 0 LINE",
"640 435 LINE SMOOTH",
"640 493.955 OFFCURVE",
"554.701 580 OFFCURVE",
"495 580 QCURVE SMOOTH",
"52 580 LINE"
);
},
{
closed = 1;
nodes = (
"205 153 LINE",
"205 233 LINE",
"487 233 LINE",
"487 153 LINE"
);
},
{
closed = 1;
nodes = (
"435 638 LINE",
"486 841 LINE",
"329 841 LINE",
"278 638 LINE"
);
}
);
width = 725;
}
);
unicode = 00E1;
},
{
color = 3;
glyphname = acircumflex;
lastChange = "2018-06-21 19:18:06 +0000";
layers = (
{
layerId = "17A5F7C0-AED1-4270-89BA-BFDC1003B8A5";
paths = (
{
closed = 1;
nodes = (
"52 498 LINE",
"521 498 LINE SMOOTH",
"537.418 498 OFFCURVE",
"560 474.672 OFFCURVE",
"560 459 QCURVE SMOOTH",
"560 331 LINE",
"52 331 LINE",
"52 121 LINE SMOOTH",
"52 71 OFFCURVE",
"123 0 OFFCURVE",
"173 0 QCURVE SMOOTH",
"643 0 LINE",
"643 459 LINE SMOOTH",
"643 509 OFFCURVE",
"571.746 580 OFFCURVE",
"521 580 QCURVE SMOOTH",
"52 580 LINE"
);
},
{
closed = 1;
nodes = (
"173 82 LINE SMOOTH",
"157.328 82 OFFCURVE",
"134 105.328 OFFCURVE",
"134 121 QCURVE SMOOTH",
"134 249 LINE",
"560 249 LINE",
"560 82 LINE"
);
},
{
closed = 1;
nodes = (
"341 848 LINE",
"399 763 LINE",
"441 763 LINE",
"370 880 LINE",
"311 880 LINE",
"240 763 LINE",
"281 763 LINE"
);
}
);
width = 725;
},
{
layerId = "D465923C-ABAE-4975-85A4-08C1BC9DA335";
paths = (
{
closed = 1;
nodes = (
"52 427 LINE",
"487 427 LINE",
"487 367 LINE",
"52 367 LINE",
"52 145 LINE SMOOTH",
"52 86.045 OFFCURVE",
"137.299 0 OFFCURVE",
"197 0 QCURVE SMOOTH",
"640 0 LINE",
"640 435 LINE SMOOTH",
"640 493.955 OFFCURVE",
"554.701 580 OFFCURVE",
"495 580 QCURVE SMOOTH",
"52 580 LINE"
);
},
{
closed = 1;
nodes = (
"205 153 LINE",
"205 233 LINE",
"487 233 LINE",
"487 153 LINE"
);
},
{
closed = 1;
nodes = (
"368 682 LINE",
"396 638 LINE",
"530 638 LINE",
"420 822 LINE",
"320 822 LINE",
"210 638 LINE",
"343 638 LINE"
);
}
);
width = 725;
}
);
unicode = 00E2;
},
{
color = 3;
glyphname = adieresis;
lastChange = "2018-06-21 19:18:06 +0000";
layers = (
{
layerId = "17A5F7C0-AED1-4270-89BA-BFDC1003B8A5";
paths = (
{
closed = 1;
nodes = (
"52 498 LINE",
"521 498 LINE SMOOTH",
"537.418 498 OFFCURVE",
"560 474.672 OFFCURVE",
"560 459 QCURVE SMOOTH",
"560 331 LINE",
"52 331 LINE",
"52 121 LINE SMOOTH",
"52 71 OFFCURVE",
"123 0 OFFCURVE",
"173 0 QCURVE SMOOTH",
"643 0 LINE",
"643 459 LINE SMOOTH",
"643 509 OFFCURVE",
"571.746 580 OFFCURVE",
"521 580 QCURVE SMOOTH",
"52 580 LINE"
);
},
{
closed = 1;
nodes = (
"173 82 LINE SMOOTH",
"157.328 82 OFFCURVE",
"134 105.328 OFFCURVE",
"134 121 QCURVE SMOOTH",
"134 249 LINE",
"560 249 LINE",
"560 82 LINE"
);
},
{
closed = 1;
nodes = (
"403 845 LINE",
"403 763 LINE",
"485 763 LINE",
"485 845 LINE"
);
},
{
closed = 1;
nodes = (
"223 845 LINE",
"223 763 LINE",
"306 763 LINE",
"306 845 LINE"
);
}
);
width = 725;
},
{
layerId = "D465923C-ABAE-4975-85A4-08C1BC9DA335";
paths = (
{
closed = 1;
nodes = (
"52 427 LINE",
"487 427 LINE",
"487 367 LINE",
"52 367 LINE",
"52 145 LINE SMOOTH",
"52 86.045 OFFCURVE",
"137.299 0 OFFCURVE",
"197 0 QCURVE SMOOTH",
"640 0 LINE",
"640 435 LINE SMOOTH",
"640 493.955 OFFCURVE",
"554.701 580 OFFCURVE",
"495 580 QCURVE SMOOTH",
"52 580 LINE"
);
},
{
closed = 1;
nodes = (
"205 153 LINE",
"205 233 LINE",
"487 233 LINE",
"487 153 LINE"
);
},
{
closed = 1;
nodes = (
"386 792 LINE",
"386 638 LINE",
"540 638 LINE",
"540 792 LINE"
);
},
{
closed = 1;
nodes = (
"173 792 LINE",
"173 638 LINE",
"326 638 LINE",
"326 792 LINE"
);
}
);
width = 725;
}
);
unicode = 00E4;
},
{
color = 3;
glyphname = agrave;
lastChange = "2018-06-21 19:18:06 +0000";
layers = (
{
layerId = "17A5F7C0-AED1-4270-89BA-BFDC1003B8A5";
paths = (
{
closed = 1;
nodes = (
"52 498 LINE",
"521 498 LINE SMOOTH",
"537.418 498 OFFCURVE",
"560 474.672 OFFCURVE",
"560 459 QCURVE SMOOTH",
"560 331 LINE",
"52 331 LINE",
"52 121 LINE SMOOTH",
"52 71 OFFCURVE",
"123 0 OFFCURVE",
"173 0 QCURVE SMOOTH",
"643 0 LINE",
"643 459 LINE SMOOTH",
"643 509 OFFCURVE",
"571.746 580 OFFCURVE",
"521 580 QCURVE SMOOTH",
"52 580 LINE"
);
},
{
closed = 1;
nodes = (
"173 82 LINE SMOOTH",
"157.328 82 OFFCURVE",
"134 105.328 OFFCURVE",
"134 121 QCURVE SMOOTH",
"134 249 LINE",
"560 249 LINE",
"560 82 LINE"
);
},
{
closed = 1;
nodes = (
"288 902 LINE",
"297.702 863.94 OFFCURVE",
"313.298 803.299 OFFCURVE",
"323 763 QCURVE",
"403 763 LINE",
"369 902 LINE"
);
}
);
width = 725;
},
{
layerId = "D465923C-ABAE-4975-85A4-08C1BC9DA335";
paths = (
{
closed = 1;
nodes = (
"52 427 LINE",
"487 427 LINE",
"487 367 LINE",
"52 367 LINE",
"52 145 LINE SMOOTH",
"52 86.045 OFFCURVE",
"137.299 0 OFFCURVE",
"197 0 QCURVE SMOOTH",
"640 0 LINE",
"640 435 LINE SMOOTH",
"640 493.955 OFFCURVE",
"554.701 580 OFFCURVE",
"495 580 QCURVE SMOOTH",
"52 580 LINE"
);
},
{
closed = 1;
nodes = (
"205 153 LINE",
"205 233 LINE",
"487 233 LINE",
"487 153 LINE"
);
},
{
closed = 1;
nodes = (
"258 841 LINE",
"309 638 LINE",
"466 638 LINE",
"415 841 LINE"
);
}
);
width = 725;
}
);
unicode = 00E0;
},
{
color = 3;
glyphname = aring;
lastChange = "2018-06-21 19:18:06 +0000";
layers = (
{
layerId = "17A5F7C0-AED1-4270-89BA-BFDC1003B8A5";
paths = (
{
closed = 1;
nodes = (
"52 498 LINE",
"521 498 LINE SMOOTH",
"537.418 498 OFFCURVE",
"560 474.672 OFFCURVE",
"560 459 QCURVE SMOOTH",
"560 331 LINE",
"52 331 LINE",
"52 121 LINE SMOOTH",
"52 71 OFFCURVE",
"123 0 OFFCURVE",
"173 0 QCURVE SMOOTH",
"643 0 LINE",
"643 459 LINE SMOOTH",
"643 509 OFFCURVE",
"571.746 580 OFFCURVE",
"521 580 QCURVE SMOOTH",
"52 580 LINE"
);
},
{
closed = 1;
nodes = (
"173 82 LINE SMOOTH",
"157.328 82 OFFCURVE",
"134 105.328 OFFCURVE",
"134 121 QCURVE SMOOTH",
"134 249 LINE",
"560 249 LINE",
"560 82 LINE"
);
},
{
closed = 1;
nodes = (
"311.612 878 OFFCURVE",
"280 846.642 OFFCURVE",
"280 825 QCURVE SMOOTH",
"280 771 LINE SMOOTH",
"280 749.358 OFFCURVE",
"311.612 718 OFFCURVE",
"334 718 QCURVE SMOOTH",
"390 718 LINE SMOOTH",
"412.388 718 OFFCURVE",
"444 749.358 OFFCURVE",
"444 771 QCURVE SMOOTH",
"444 825 LINE SMOOTH",
"444 846.642 OFFCURVE",
"412.388 878 OFFCURVE",
"390 878 QCURVE SMOOTH",
"334 878 LINE SMOOTH"
);
},
{
closed = 1;
nodes = (
"325.269 758 OFFCURVE",
"320 763.522 OFFCURVE",
"320 768 QCURVE SMOOTH",
"320 828 LINE SMOOTH",
"320 832.478 OFFCURVE",
"325.269 838 OFFCURVE",
"329 838 QCURVE SMOOTH",
"395 838 LINE SMOOTH",
"398.731 838 OFFCURVE",
"404 832.478 OFFCURVE",
"404 828 QCURVE SMOOTH",
"404 768 LINE SMOOTH",
"404 763.522 OFFCURVE",
"398.731 758 OFFCURVE",
"395 758 QCURVE SMOOTH",
"329 758 LINE SMOOTH"
);
}
);
width = 725;
},
{
layerId = "D465923C-ABAE-4975-85A4-08C1BC9DA335";
paths = (
{
closed = 1;
nodes = (
"52 427 LINE",
"487 427 LINE",
"487 367 LINE",
"52 367 LINE",
"52 145 LINE SMOOTH",
"52 86.045 OFFCURVE",
"137.299 0 OFFCURVE",
"197 0 QCURVE SMOOTH",
"640 0 LINE",
"640 435 LINE SMOOTH",
"640 493.955 OFFCURVE",
"554.701 580 OFFCURVE",
"495 580 QCURVE SMOOTH",
"52 580 LINE"
);
},
{
closed = 1;
nodes = (
"205 153 LINE",
"205 233 LINE",
"487 233 LINE",
"487 153 LINE"
);
},
{
closed = 1;
nodes = (
"249.657 839 OFFCURVE",
"204 793.597 OFFCURVE",
"204 763 QCURVE SMOOTH",
"204 714 LINE SMOOTH",
"204 683.403 OFFCURVE",
"249.657 638 OFFCURVE",
"281 638 QCURVE SMOOTH",
"332 638 LINE SMOOTH",
"363.343 638 OFFCURVE",
"408 683.403 OFFCURVE",
"408 714 QCURVE SMOOTH",
"408 763 LINE SMOOTH",
"408 793.597 OFFCURVE",
"363.343 839 OFFCURVE",
"332 839 QCURVE SMOOTH",
"281 839 LINE SMOOTH"
);
},
{
closed = 1;
nodes = (
"332 761 LINE",
"332 707 LINE",
"281 707 LINE",
"281 761 LINE"
);
}
);
width = 725;
}
);
unicode = 00E5;
},
{
color = 3;
glyphname = atilde;
lastChange = "2018-06-21 19:18:06 +0000";
layers = (
{
layerId = "17A5F7C0-AED1-4270-89BA-BFDC1003B8A5";
paths = (
{
closed = 1;
nodes = (
"52 498 LINE",
"521 498 LINE SMOOTH",
"537.418 498 OFFCURVE",
"560 474.672 OFFCURVE",
"560 459 QCURVE SMOOTH",
"560 331 LINE",
"52 331 LINE",
"52 121 LINE SMOOTH",
"52 71 OFFCURVE",
"123 0 OFFCURVE",
"173 0 QCURVE SMOOTH",
"643 0 LINE",
"643 459 LINE SMOOTH",
"643 509 OFFCURVE",
"571.746 580 OFFCURVE",
"521 580 QCURVE SMOOTH",
"52 580 LINE"
);
},
{
closed = 1;
nodes = (
"173 82 LINE SMOOTH",
"157.328 82 OFFCURVE",
"134 105.328 OFFCURVE",
"134 121 QCURVE SMOOTH",
"134 249 LINE",
"560 249 LINE",
"560 82 LINE"
);
},
{
closed = 1;
nodes = (
"400.284 821.463 OFFCURVE",
"303.97 886 OFFCURVE",
"248 886 QCURVE SMOOTH",
"230.09 886 OFFCURVE",
"199.433 881.478 OFFCURVE",
"186 877 QCURVE",
"186 830 LINE",
"200.925 835.224 OFFCURVE",
"236.06 838 OFFCURVE",
"248 838 QCURVE SMOOTH",
"309.194 838 OFFCURVE",
"405.269 766 OFFCURVE",
"459 766 QCURVE SMOOTH",
"476.91 766 OFFCURVE",
"510.821 774.776 OFFCURVE",
"525 780 QCURVE",
"525 831 LINE",
"509.328 823.537 OFFCURVE",
"476.164 814 OFFCURVE",
"459 814 QCURVE SMOOTH",
"457 814 LINE"
);
}
);
width = 725;
},
{
layerId = "D465923C-ABAE-4975-85A4-08C1BC9DA335";
paths = (
{
closed = 1;
nodes = (
"52 427 LINE",
"487 427 LINE",
"487 367 LINE",
"52 367 LINE",
"52 145 LINE SMOOTH",
"52 86.045 OFFCURVE",
"137.299 0 OFFCURVE",
"197 0 QCURVE SMOOTH",
"640 0 LINE",
"640 435 LINE SMOOTH",
"640 493.955 OFFCURVE",
"554.701 580 OFFCURVE",
"495 580 QCURVE SMOOTH",
"52 580 LINE"
);
},
{
closed = 1;
nodes = (
"205 153 LINE",
"205 233 LINE",
"487 233 LINE",
"487 153 LINE"
);
},
{
closed = 1;
nodes = (
"283.239 818 OFFCURVE",
"231 818 QCURVE SMOOTH",
"208.612 818 OFFCURVE",
"158.388 799.955 OFFCURVE",
"136 791 QCURVE",
"136 667 LINE",
"170.328 696.104 OFFCURVE",
"208.06 703 OFFCURVE",
"220 703 QCURVE SMOOTH",
"231 703 LINE SMOOTH",
"276.522 703 OFFCURVE",
"359.015 641 OFFCURVE",
"412 641 QCURVE SMOOTH",
"437.373 641 OFFCURVE",
"487.866 657.299 OFFCURVE",
"511 667 QCURVE",
"511 793 LINE",
"477.418 771.358 OFFCURVE",
"431.418 756 OFFCURVE",
"415 756 QCURVE",
"364.254 762.716 OFFCURVE"
);
}
);
width = 725;
}
);
unicode = 00E3;
},
{
color = 3;
glyphname = ae;
lastChange = "2018-06-21 19:18:06 +0000";
layers = (
{
layerId = "17A5F7C0-AED1-4270-89BA-BFDC1003B8A5";
paths = (
{
closed = 1;
nodes = (
"53 498 LINE",
"522 498 LINE SMOOTH",
"537.672 498 OFFCURVE",
"561 474.672 OFFCURVE",
"561 459 QCURVE SMOOTH",
"561 331 LINE",
"53 331 LINE",
"53 121 LINE SMOOTH",
"53 71 OFFCURVE",
"123.254 0 OFFCURVE",
"174 0 QCURVE SMOOTH",
"1151 0 LINE",
"1151 82 LINE",
"682 82 LINE SMOOTH",
"667.075 82 OFFCURVE",
"644.493 102.075 OFFCURVE",
"643 117 QCURVE",
"643 249 LINE",
"1151 249 LINE",
"1151 459 LINE SMOOTH",
"1151 509 OFFCURVE",
"1080.746 580 OFFCURVE",
"1030 580 QCURVE SMOOTH",
"53 580 LINE"
);
},
{
closed = 1;
nodes = (
"174 82 LINE SMOOTH",
"158.328 82 OFFCURVE",
"135 105.328 OFFCURVE",
"135 121 QCURVE SMOOTH",
"135 249 LINE",
"561 249 LINE",
"561 82 LINE"
);
},
{
closed = 1;
nodes = (
"643 459 LINE SMOOTH",
"643 474.672 OFFCURVE",
"666.328 498 OFFCURVE",
"682 498 QCURVE SMOOTH",
"1030 498 LINE SMOOTH",
"1045.672 498 OFFCURVE",
"1069 474.672 OFFCURVE",
"1069 459 QCURVE SMOOTH",
"1069 331 LINE",
"643 331 LINE"
);
}
);
width = 1178;
},
{
layerId = "D465923C-ABAE-4975-85A4-08C1BC9DA335";
paths = (
{
closed = 1;
nodes = (
"53 427 LINE",
"489 427 LINE",
"489 367 LINE",
"53 367 LINE",
"53 145 LINE SMOOTH",
"53 86.045 OFFCURVE",
"138.299 0 OFFCURVE",
"198 0 QCURVE SMOOTH",
"1077 0 LINE",
"1077 153 LINE",
"642 153 LINE",
"642 213 LINE",
"1077 213 LINE",
"1077 435 LINE SMOOTH",
"1077 493.955 OFFCURVE",
"992.701 580 OFFCURVE",
"933 580 QCURVE SMOOTH",
"53 580 LINE"
);
},
{
closed = 1;
nodes = (
"206 153 LINE",
"206 233 LINE",
"489 233 LINE",
"489 153 LINE"
);
},
{
closed = 1;
nodes = (
"642 427 LINE",
"924 427 LINE",
"924 347 LINE",
"642 347 LINE"
);
}
);
width = 1178;
}
);
unicode = 00E6;
},
{
color = 3;
glyphname = b;
lastChange = "2018-06-21 19:18:06 +0000";
layers = (
{
layerId = "17A5F7C0-AED1-4270-89BA-BFDC1003B8A5";
paths = (
{
closed = 1;
nodes = (
"136 770 LINE",
"54 770 LINE",
"54 0 LINE",
"524 0 LINE SMOOTH",
"574 0 OFFCURVE",
"645 71 OFFCURVE",
"645 121 QCURVE SMOOTH",
"645 459 LINE SMOOTH",
"645 509 OFFCURVE",
"574 580 OFFCURVE",
"524 580 QCURVE SMOOTH",
"136 580 LINE"
);
},
{
closed = 1;
nodes = (
"563 105.328 OFFCURVE",
"539.672 82 OFFCURVE",
"524 82 QCURVE SMOOTH",
"176 82 LINE SMOOTH",
"159.582 82 OFFCURVE",
"136 105.328 OFFCURVE",
"136 121 QCURVE SMOOTH",
"136 459 LINE SMOOTH",
"136 474.672 OFFCURVE",
"159.582 498 OFFCURVE",
"176 498 QCURVE SMOOTH",
"524 498 LINE SMOOTH",
"539.672 498 OFFCURVE",
"563 474.672 OFFCURVE",
"563 459 QCURVE SMOOTH",
"563 121 LINE SMOOTH"
);
}
);
width = 667;
},
{
layerId = "D465923C-ABAE-4975-85A4-08C1BC9DA335";
paths = (
{
closed = 1;
nodes = (
"207 770 LINE",
"54 770 LINE",
"54 0 LINE",
"497 0 LINE SMOOTH",
"556.701 0 OFFCURVE",
"642 86.045 OFFCURVE",
"642 145 QCURVE SMOOTH",
"642 435 LINE SMOOTH",
"642 493.955 OFFCURVE",
"556.701 580 OFFCURVE",
"497 580 QCURVE SMOOTH",
"207 580 LINE"
);
},
{
closed = 1;
nodes = (
"489 427 LINE",
"489 153 LINE",
"207 153 LINE",
"207 427 LINE"
);
}
);
width = 667;
}
);
unicode = 0062;
},
{
color = 3;
glyphname = c;
lastChange = "2018-06-21 19:18:06 +0000";
layers = (
{
layerId = "17A5F7C0-AED1-4270-89BA-BFDC1003B8A5";
paths = (
{
closed = 1;
nodes = (
"156.328 82 OFFCURVE",
"133 105.328 OFFCURVE",
"133 121 QCURVE SMOOTH",
"133 459 LINE SMOOTH",
"133 474.672 OFFCURVE",
"156.328 498 OFFCURVE",
"172 498 QCURVE SMOOTH",
"640 498 LINE",
"640 580 LINE",
"172 580 LINE SMOOTH",
"122 580 OFFCURVE",
"51 509 OFFCURVE",
"51 459 QCURVE SMOOTH",
"51 121 LINE SMOOTH",
"51 71 OFFCURVE",
"122 0 OFFCURVE",
"172 0 QCURVE SMOOTH",
"642 0 LINE",
"642 82 LINE",
"172 82 LINE SMOOTH"
);
}
);
width = 695;
},
{
layerId = "D465923C-ABAE-4975-85A4-08C1BC9DA335";
paths = (
{
closed = 1;
nodes = (
"638 580 LINE",
"196 580 LINE SMOOTH",
"137.045 580 OFFCURVE",
"51 493.955 OFFCURVE",
"51 435 QCURVE SMOOTH",
"51 145 LINE SMOOTH",
"51 86.045 OFFCURVE",
"137.045 0 OFFCURVE",
"196 0 QCURVE SMOOTH",
"639 0 LINE",
"639 153 LINE",
"204 153 LINE",
"204 427 LINE",
"638 427 LINE"
);
}
);
width = 695;
}
);
unicode = 0063;
},
{
color = 3;
glyphname = ccedilla;
lastChange = "2018-06-21 19:18:06 +0000";
layers = (
{
layerId = "17A5F7C0-AED1-4270-89BA-BFDC1003B8A5";
paths = (
{
closed = 1;
nodes = (
"156.328 82 OFFCURVE",
"133 105.328 OFFCURVE",
"133 121 QCURVE SMOOTH",
"133 459 LINE SMOOTH",
"133 474.672 OFFCURVE",
"156.328 498 OFFCURVE",
"172 498 QCURVE SMOOTH",
"640 498 LINE",
"640 580 LINE",
"172 580 LINE SMOOTH",
"122 580 OFFCURVE",
"51 509 OFFCURVE",
"51 459 QCURVE SMOOTH",
"51 121 LINE SMOOTH",
"51 71 OFFCURVE",
"122 0 OFFCURVE",
"172 0 QCURVE SMOOTH",
"307 0 LINE",
"272 -139 LINE",
"352 -139 LINE",
"386 0 LINE",
"642 0 LINE",
"642 82 LINE",
"172 82 LINE SMOOTH"
);
}
);
width = 693;
},
{
layerId = "D465923C-ABAE-4975-85A4-08C1BC9DA335";
paths = (
{
closed = 1;
nodes = (
"204 427 LINE",
"638 427 LINE",
"638 580 LINE",
"196 580 LINE SMOOTH",
"137.045 580 OFFCURVE",
"51 493.955 OFFCURVE",
"51 435 QCURVE SMOOTH",
"51 145 LINE SMOOTH",
"51 86.045 OFFCURVE",
"137.045 0 OFFCURVE",
"196 0 QCURVE SMOOTH",
"313 0 LINE",
"305.537 -31.343 OFFCURVE",
"281.463 -94.418 OFFCURVE",
"274 -128 QCURVE",
"371 -128 LINE",
"378.463 -96.657 OFFCURVE",
"402.537 -33.582 OFFCURVE",
"410 0 QCURVE",
"639 0 LINE",
"639 153 LINE",
"204 153 LINE"
);
}
);
width = 693;
}
);
unicode = 00E7;
},
{
color = 3;
glyphname = d;
lastChange = "2018-06-21 19:18:06 +0000";
layers = (
{
layerId = "17A5F7C0-AED1-4270-89BA-BFDC1003B8A5";
paths = (
{
closed = 1;
nodes = (
"532 580 LINE",
"145 580 LINE SMOOTH",
"94.254 580 OFFCURVE",
"23 509 OFFCURVE",
"23 459 QCURVE SMOOTH",
"23 121 LINE SMOOTH",
"23 71 OFFCURVE",
"94.254 0 OFFCURVE",
"145 0 QCURVE SMOOTH",
"614 0 LINE",
"614 770 LINE",
"532 770 LINE"
);
},
{
closed = 1;
nodes = (
"129.328 82 OFFCURVE",
"106 105.328 OFFCURVE",
"106 121 QCURVE SMOOTH",
"106 459 LINE SMOOTH",
"106 474.672 OFFCURVE",
"129.328 498 OFFCURVE",
"145 498 QCURVE SMOOTH",
"493 498 LINE SMOOTH",
"508.672 498 OFFCURVE",
"532 474.672 OFFCURVE",
"532 459 QCURVE SMOOTH",
"532 121 LINE SMOOTH",
"532 105.328 OFFCURVE",
"508.672 82 OFFCURVE",
"493 82 QCURVE SMOOTH",
"145 82 LINE SMOOTH"
);
}
);
width = 667;
},
{
layerId = "D465923C-ABAE-4975-85A4-08C1BC9DA335";
paths = (
{
closed = 1;
nodes = (
"459 580 LINE",
"168 580 LINE SMOOTH",
"108.299 580 OFFCURVE",
"23 493.955 OFFCURVE",
"23 435 QCURVE SMOOTH",
"23 145 LINE SMOOTH",
"23 86.045 OFFCURVE",
"108.299 0 OFFCURVE",
"168 0 QCURVE SMOOTH",
"612 0 LINE",
"612 770 LINE",
"459 770 LINE"
);
},
{
closed = 1;
nodes = (
"459 427 LINE",
"459 153 LINE",
"177 153 LINE",
"177 427 LINE"
);
}
);
width = 667;
}
);
unicode = 0064;
},
{
color = 3;
glyphname = e;
lastChange = "2018-06-21 19:18:06 +0000";
layers = (
{
layerId = "17A5F7C0-AED1-4270-89BA-BFDC1003B8A5";
paths = (
{
closed = 1;
nodes = (
"122 580 OFFCURVE",
"51 509 OFFCURVE",
"51 459 QCURVE SMOOTH",
"51 121 LINE SMOOTH",
"51 71 OFFCURVE",
"122 0 OFFCURVE",
"172 0 QCURVE SMOOTH",
"642 0 LINE",
"642 82 LINE",
"172 82 LINE SMOOTH",
"156.328 82 OFFCURVE",
"133 105.328 OFFCURVE",
"133 121 QCURVE SMOOTH",
"133 249 LINE",
"642 249 LINE",
"642 459 LINE SMOOTH",
"642 509 OFFCURVE",
"570.746 580 OFFCURVE",
"520 580 QCURVE SMOOTH",
"172 580 LINE SMOOTH"
);
},
{
closed = 1;
nodes = (
"133 459 LINE SMOOTH",
"133 474.672 OFFCURVE",
"156.328 498 OFFCURVE",
"172 498 QCURVE SMOOTH",
"520 498 LINE SMOOTH",
"536.418 498 OFFCURVE",
"559 474.672 OFFCURVE",
"559 459 QCURVE SMOOTH",
"559 331 LINE",
"133 331 LINE"
);
}
);
width = 692;
},
{
layerId = "D465923C-ABAE-4975-85A4-08C1BC9DA335";
paths = (
{
closed = 1;
nodes = (
"137.045 580 OFFCURVE",
"51 493.955 OFFCURVE",
"51 435 QCURVE SMOOTH",
"51 145 LINE SMOOTH",
"51 86.045 OFFCURVE",
"137.045 0 OFFCURVE",
"196 0 QCURVE SMOOTH",
"639 0 LINE",
"639 153 LINE",
"204 153 LINE",
"204 213 LINE",
"639 213 LINE",
"639 435 LINE SMOOTH",
"639 493.955 OFFCURVE",
"553.701 580 OFFCURVE",
"494 580 QCURVE SMOOTH",
"196 580 LINE SMOOTH"
);
},
{
closed = 1;
nodes = (
"204 427 LINE",
"486 427 LINE",
"486 347 LINE",
"204 347 LINE"
);
}
);
width = 692;
}
);
unicode = 0065;
},
{
color = 3;
glyphname = eacute;
lastChange = "2018-06-21 19:18:06 +0000";
layers = (
{
layerId = "17A5F7C0-AED1-4270-89BA-BFDC1003B8A5";
paths = (
{
closed = 1;
nodes = (
"122 580 OFFCURVE",
"51 509 OFFCURVE",
"51 459 QCURVE SMOOTH",
"51 121 LINE SMOOTH",
"51 71 OFFCURVE",
"122 0 OFFCURVE",
"172 0 QCURVE SMOOTH",
"642 0 LINE",
"642 82 LINE",
"172 82 LINE SMOOTH",
"156.328 82 OFFCURVE",
"133 105.328 OFFCURVE",
"133 121 QCURVE SMOOTH",
"133 249 LINE",
"642 249 LINE",
"642 459 LINE SMOOTH",
"642 509 OFFCURVE",
"570.746 580 OFFCURVE",
"520 580 QCURVE SMOOTH",
"172 580 LINE SMOOTH"
);
},
{
closed = 1;
nodes = (
"133 459 LINE SMOOTH",
"133 474.672 OFFCURVE",
"156.328 498 OFFCURVE",
"172 498 QCURVE SMOOTH",
"520 498 LINE SMOOTH",
"536.418 498 OFFCURVE",
"559 474.672 OFFCURVE",
"559 459 QCURVE SMOOTH",
"559 331 LINE",
"133 331 LINE"
);
},
{
closed = 1;
nodes = (
"325 764 LINE",
"359 903 LINE",
"280 903 LINE",
"245 764 LINE"
);
}
);
width = 638;
},
{
layerId = "D465923C-ABAE-4975-85A4-08C1BC9DA335";
paths = (
{
closed = 1;
nodes = (
"137.045 580 OFFCURVE",
"51 493.955 OFFCURVE",
"51 435 QCURVE SMOOTH",
"51 145 LINE SMOOTH",
"51 86.045 OFFCURVE",
"137.045 0 OFFCURVE",
"196 0 QCURVE SMOOTH",
"639 0 LINE",
"639 153 LINE",
"204 153 LINE",
"204 213 LINE",
"639 213 LINE",
"639 435 LINE SMOOTH",
"639 493.955 OFFCURVE",
"553.701 580 OFFCURVE",
"494 580 QCURVE SMOOTH",
"196 580 LINE SMOOTH"
);
},
{
closed = 1;
nodes = (
"204 427 LINE",
"486 427 LINE",
"486 347 LINE",
"204 347 LINE"
);
},
{
closed = 1;
nodes = (
"422 639 LINE",
"473 842 LINE",
"316 842 LINE",
"265 639 LINE"
);
}
);
width = 638;
}
);
unicode = 00E9;
},
{
color = 3;
glyphname = ecircumflex;
lastChange = "2018-06-21 19:18:06 +0000";
layers = (
{
layerId = "17A5F7C0-AED1-4270-89BA-BFDC1003B8A5";
paths = (
{
closed = 1;
nodes = (
"122 580 OFFCURVE",
"51 509 OFFCURVE",
"51 459 QCURVE SMOOTH",
"51 121 LINE SMOOTH",
"51 71 OFFCURVE",
"122 0 OFFCURVE",
"172 0 QCURVE SMOOTH",
"642 0 LINE",
"642 82 LINE",
"172 82 LINE SMOOTH",
"156.328 82 OFFCURVE",
"133 105.328 OFFCURVE",
"133 121 QCURVE SMOOTH",
"133 249 LINE",
"642 249 LINE",
"642 459 LINE SMOOTH",
"642 509 OFFCURVE",
"570.746 580 OFFCURVE",
"520 580 QCURVE SMOOTH",
"172 580 LINE SMOOTH"
);
},
{
closed = 1;
nodes = (
"133 459 LINE SMOOTH",
"133 474.672 OFFCURVE",
"156.328 498 OFFCURVE",
"172 498 QCURVE SMOOTH",
"520 498 LINE SMOOTH",
"536.418 498 OFFCURVE",
"559 474.672 OFFCURVE",
"559 459 QCURVE SMOOTH",
"559 331 LINE",
"133 331 LINE"
);
},
{
closed = 1;
nodes = (
"298 848 LINE",
"356 763 LINE",
"398 763 LINE",
"327 880 LINE",
"268 880 LINE",
"197 763 LINE",
"238 763 LINE"
);
}
);
width = 638;
},
{
layerId = "D465923C-ABAE-4975-85A4-08C1BC9DA335";
paths = (
{
closed = 1;
nodes = (
"137.045 580 OFFCURVE",
"51 493.955 OFFCURVE",
"51 435 QCURVE SMOOTH",
"51 145 LINE SMOOTH",
"51 86.045 OFFCURVE",
"137.045 0 OFFCURVE",
"196 0 QCURVE SMOOTH",
"639 0 LINE",
"639 153 LINE",
"204 153 LINE",
"204 213 LINE",
"639 213 LINE",
"639 435 LINE SMOOTH",
"639 493.955 OFFCURVE",
"553.701 580 OFFCURVE",
"494 580 QCURVE SMOOTH",
"196 580 LINE SMOOTH"
);
},
{
closed = 1;
nodes = (
"204 427 LINE",
"486 427 LINE",
"486 347 LINE",
"204 347 LINE"
);
},
{
closed = 1;
nodes = (
"355 682 LINE",
"383 638 LINE",
"517 638 LINE",
"407 822 LINE",
"307 822 LINE",
"197 638 LINE",
"330 638 LINE"
);
}
);
width = 638;
}
);
unicode = 00EA;
},
{
color = 3;
glyphname = edieresis;
lastChange = "2018-06-21 19:18:06 +0000";
layers = (
{
layerId = "17A5F7C0-AED1-4270-89BA-BFDC1003B8A5";
paths = (
{
closed = 1;
nodes = (
"122 580 OFFCURVE",
"51 509 OFFCURVE",
"51 459 QCURVE SMOOTH",
"51 121 LINE SMOOTH",
"51 71 OFFCURVE",
"122 0 OFFCURVE",
"172 0 QCURVE SMOOTH",
"642 0 LINE",
"642 82 LINE",
"172 82 LINE SMOOTH",
"156.328 82 OFFCURVE",
"133 105.328 OFFCURVE",
"133 121 QCURVE SMOOTH",
"133 249 LINE",
"642 249 LINE",
"642 459 LINE SMOOTH",
"642 509 OFFCURVE",
"570.746 580 OFFCURVE",
"520 580 QCURVE SMOOTH",
"172 580 LINE SMOOTH"
);
},
{
closed = 1;
nodes = (
"133 459 LINE SMOOTH",
"133 474.672 OFFCURVE",
"156.328 498 OFFCURVE",
"172 498 QCURVE SMOOTH",
"520 498 LINE SMOOTH",
"536.418 498 OFFCURVE",
"559 474.672 OFFCURVE",
"559 459 QCURVE SMOOTH",
"559 331 LINE",
"133 331 LINE"
);
},
{
closed = 1;
nodes = (
"360 845 LINE",
"360 763 LINE",
"442 763 LINE",
"442 845 LINE"
);
},
{
closed = 1;
nodes = (
"180 845 LINE",
"180 763 LINE",
"263 763 LINE",
"263 845 LINE"
);
}
);
width = 638;
},
{
layerId = "D465923C-ABAE-4975-85A4-08C1BC9DA335";
paths = (
{
closed = 1;
nodes = (
"137.045 580 OFFCURVE",
"51 493.955 OFFCURVE",
"51 435 QCURVE SMOOTH",
"51 145 LINE SMOOTH",
"51 86.045 OFFCURVE",
"137.045 0 OFFCURVE",
"196 0 QCURVE SMOOTH",
"639 0 LINE",
"639 153 LINE",
"204 153 LINE",
"204 213 LINE",
"639 213 LINE",
"639 435 LINE SMOOTH",
"639 493.955 OFFCURVE",
"553.701 580 OFFCURVE",
"494 580 QCURVE SMOOTH",
"196 580 LINE SMOOTH"
);
},
{
closed = 1;
nodes = (
"204 427 LINE",
"486 427 LINE",
"486 347 LINE",
"204 347 LINE"
);
},
{
closed = 1;
nodes = (
"393 792 LINE",
"393 638 LINE",
"547 638 LINE",
"547 792 LINE"
);
},
{
closed = 1;
nodes = (
"180 792 LINE",
"180 638 LINE",
"333 638 LINE",
"333 792 LINE"
);
}
);
width = 638;
}
);
unicode = 00EB;
},
{
color = 3;
glyphname = egrave;
lastChange = "2018-06-21 19:18:06 +0000";
layers = (
{
layerId = "17A5F7C0-AED1-4270-89BA-BFDC1003B8A5";
paths = (
{
closed = 1;
nodes = (
"122 580 OFFCURVE",
"51 509 OFFCURVE",
"51 459 QCURVE SMOOTH",
"51 121 LINE SMOOTH",
"51 71 OFFCURVE",
"122 0 OFFCURVE",
"172 0 QCURVE SMOOTH",
"642 0 LINE",
"642 82 LINE",
"172 82 LINE SMOOTH",
"156.328 82 OFFCURVE",
"133 105.328 OFFCURVE",
"133 121 QCURVE SMOOTH",
"133 249 LINE",
"642 249 LINE",
"642 459 LINE SMOOTH",
"642 509 OFFCURVE",
"570.746 580 OFFCURVE",
"520 580 QCURVE SMOOTH",
"172 580 LINE SMOOTH"
);
},
{
closed = 1;
nodes = (
"133 459 LINE SMOOTH",
"133 474.672 OFFCURVE",
"156.328 498 OFFCURVE",
"172 498 QCURVE SMOOTH",
"520 498 LINE SMOOTH",
"536.418 498 OFFCURVE",
"559 474.672 OFFCURVE",
"559 459 QCURVE SMOOTH",
"559 331 LINE",
"133 331 LINE"
);
},
{
closed = 1;
nodes = (
"245 902 LINE",
"254.701 863.94 OFFCURVE",
"270.298 803.299 OFFCURVE",
"280 763 QCURVE",
"360 763 LINE",
"326 902 LINE"
);
}
);
width = 638;
},
{
layerId = "D465923C-ABAE-4975-85A4-08C1BC9DA335";
paths = (
{
closed = 1;
nodes = (
"137.045 580 OFFCURVE",
"51 493.955 OFFCURVE",
"51 435 QCURVE SMOOTH",
"51 145 LINE SMOOTH",
"51 86.045 OFFCURVE",
"137.045 0 OFFCURVE",
"196 0 QCURVE SMOOTH",
"639 0 LINE",
"639 153 LINE",
"204 153 LINE",
"204 213 LINE",
"639 213 LINE",
"639 435 LINE SMOOTH",
"639 493.955 OFFCURVE",
"553.701 580 OFFCURVE",
"494 580 QCURVE SMOOTH",
"196 580 LINE SMOOTH"
);
},
{
closed = 1;
nodes = (
"204 427 LINE",
"486 427 LINE",
"486 347 LINE",
"204 347 LINE"
);
},
{
closed = 1;
nodes = (
"245 841 LINE",
"296 638 LINE",
"453 638 LINE",
"402 841 LINE"
);
}
);
width = 638;
}
);
unicode = 00E8;
},
{
color = 3;
glyphname = f;
lastChange = "2018-06-21 19:18:06 +0000";
layers = (
{
layerId = "17A5F7C0-AED1-4270-89BA-BFDC1003B8A5";
paths = (
{
closed = 1;
nodes = (
"386 770 LINE",
"174 770 LINE SMOOTH",
"123.254 770 OFFCURVE",
"53 699.746 OFFCURVE",
"53 649 QCURVE SMOOTH",
"53 0 LINE",
"135 0 LINE",
"135 498 LINE",
"386 498 LINE",
"386 580 LINE",
"135 580 LINE",
"135 649 LINE SMOOTH",
"135 664.672 OFFCURVE",
"158.328 688 OFFCURVE",
"174 688 QCURVE SMOOTH",
"386 688 LINE"
);
}
);
width = 407;
},
{
layerId = "D465923C-ABAE-4975-85A4-08C1BC9DA335";
paths = (
{
closed = 1;
nodes = (
"421 770 LINE",
"199 770 LINE SMOOTH",
"138.552 770 OFFCURVE",
"53 683.955 OFFCURVE",
"53 625 QCURVE SMOOTH",
"53 0 LINE",
"206 0 LINE",
"206 427 LINE",
"421 427 LINE",
"421 580 LINE",
"206 580 LINE",
"206 616 LINE",
"421 616 LINE"
);
}
);
width = 440;
}
);
unicode = 0066;
},
{
color = 3;
glyphname = g;
lastChange = "2018-06-21 19:18:06 +0000";
layers = (
{
layerId = "17A5F7C0-AED1-4270-89BA-BFDC1003B8A5";
paths = (
{
closed = 1;
nodes = (
"631 509 OFFCURVE",
"560.746 580 OFFCURVE",
"510 580 QCURVE SMOOTH",
"162 580 LINE SMOOTH",
"112 580 OFFCURVE",
"41 509 OFFCURVE",
"41 459 QCURVE SMOOTH",
"41 121 LINE SMOOTH",
"41 71 OFFCURVE",
"112 0 OFFCURVE",
"162 0 QCURVE SMOOTH",
"549 0 LINE",
"549 -107 LINE SMOOTH",
"549 -122.672 OFFCURVE",
"525.672 -146 OFFCURVE",
"510 -146 QCURVE SMOOTH",
"148 -146 LINE",
"148 -229 LINE",
"510 -229 LINE SMOOTH",
"560.746 -229 OFFCURVE",
"631 -157.746 OFFCURVE",
"631 -107 QCURVE SMOOTH",
"631 459 LINE SMOOTH"
);
},
{
closed = 1;
nodes = (
"146.328 82 OFFCURVE",
"123 105.328 OFFCURVE",
"123 121 QCURVE SMOOTH",
"123 459 LINE SMOOTH",
"123 474.672 OFFCURVE",
"146.328 498 OFFCURVE",
"162 498 QCURVE SMOOTH",
"510 498 LINE SMOOTH",
"525.672 498 OFFCURVE",
"549 474.672 OFFCURVE",
"549 459 QCURVE SMOOTH",
"549 121 LINE SMOOTH",
"549 105.328 OFFCURVE",
"525.672 82 OFFCURVE",
"510 82 QCURVE SMOOTH",
"162 82 LINE SMOOTH"
);
}
);
width = 683;
},
{
layerId = "D465923C-ABAE-4975-85A4-08C1BC9DA335";
paths = (
{
closed = 1;
nodes = (
"630 493.955 OFFCURVE",
"544.701 580 OFFCURVE",
"485 580 QCURVE SMOOTH",
"187 580 LINE SMOOTH",
"127.299 580 OFFCURVE",
"41 493.955 OFFCURVE",
"41 435 QCURVE SMOOTH",
"41 145 LINE SMOOTH",
"41 86.045 OFFCURVE",
"127.299 0 OFFCURVE",
"187 0 QCURVE SMOOTH",
"477 0 LINE",
"477 -75 LINE",
"133 -75 LINE",
"133 -229 LINE",
"485 -229 LINE SMOOTH",
"544.701 -229 OFFCURVE",
"630 -143.701 OFFCURVE",
"630 -84 QCURVE SMOOTH",
"630 435 LINE SMOOTH"
);
},
{
closed = 1;
nodes = (
"477 427 LINE",
"477 153 LINE",
"194 153 LINE",
"194 427 LINE"
);
}
);
width = 683;
}
);
unicode = 0067;
},
{
color = 3;
glyphname = h;
lastChange = "2018-06-21 19:18:06 +0000";
layers = (
{
layerId = "17A5F7C0-AED1-4270-89BA-BFDC1003B8A5";
paths = (
{
closed = 1;
nodes = (
"136 770 LINE",
"54 770 LINE",
"54 0 LINE",
"136 0 LINE",
"136 459 LINE SMOOTH",
"136 474.672 OFFCURVE",
"159.582 498 OFFCURVE",
"176 498 QCURVE SMOOTH",
"524 498 LINE SMOOTH",
"539.672 498 OFFCURVE",
"563 474.672 OFFCURVE",
"563 459 QCURVE SMOOTH",
"563 0 LINE",
"645 0 LINE",
"645 459 LINE SMOOTH",
"645 509 OFFCURVE",
"573.254 580 OFFCURVE",
"524 580 QCURVE SMOOTH",
"136 580 LINE"
);
}
);
width = 668;
},
{
layerId = "D465923C-ABAE-4975-85A4-08C1BC9DA335";
paths = (
{
closed = 1;
nodes = (
"207 770 LINE",
"54 770 LINE",
"54 0 LINE",
"207 0 LINE",
"207 427 LINE",
"489 427 LINE",
"489 0 LINE",
"642 0 LINE",
"642 435 LINE SMOOTH",
"642 493.955 OFFCURVE",
"555.955 580 OFFCURVE",
"497 580 QCURVE SMOOTH",
"207 580 LINE"
);
}
);
width = 668;
}
);
unicode = 0068;
},
{
color = 3;
glyphname = i;
lastChange = "2018-06-21 19:18:06 +0000";
layers = (
{
layerId = "17A5F7C0-AED1-4270-89BA-BFDC1003B8A5";
paths = (
{
closed = 1;
nodes = (
"134 0 LINE",
"134 580 LINE",
"52 580 LINE",
"52 0 LINE"
);
},
{
closed = 1;
nodes = (
"52 688 LINE",
"134 688 LINE",
"134 770 LINE",
"52 770 LINE"
);
}
);
width = 208;
},
{
layerId = "D465923C-ABAE-4975-85A4-08C1BC9DA335";
paths = (
{
closed = 1;
nodes = (
"205 0 LINE",
"205 580 LINE",
"52 580 LINE",
"52 0 LINE"
);
},
{
closed = 1;
nodes = (
"52 616 LINE",
"205 616 LINE",
"205 770 LINE",
"52 770 LINE"
);
}
);
width = 229;
}
);
unicode = 0069;
},
{
color = 3;
glyphname = dotlessi;
lastChange = "2018-06-21 19:18:06 +0000";
layers = (
{
layerId = "17A5F7C0-AED1-4270-89BA-BFDC1003B8A5";
paths = (
{
closed = 1;
nodes = (
"134 0 LINE",
"134 580 LINE",
"52 580 LINE",
"52 0 LINE"
);
}
);
width = 214;
},
{
layerId = "D465923C-ABAE-4975-85A4-08C1BC9DA335";
paths = (
{
closed = 1;
nodes = (
"205 0 LINE",
"205 580 LINE",
"52 580 LINE",
"52 0 LINE"
);
}
);
width = 214;
}
);
unicode = 0131;
},
{
color = 3;
glyphname = iacute;
lastChange = "2018-06-21 19:18:06 +0000";
layers = (
{
layerId = "17A5F7C0-AED1-4270-89BA-BFDC1003B8A5";
paths = (
{
closed = 1;
nodes = (
"133 0 LINE",
"133 580 LINE",
"51 580 LINE",
"51 0 LINE"
);
},
{
closed = 1;
nodes = (
"129 763 LINE",
"163 902 LINE",
"84 902 LINE",
"49 763 LINE"
);
}
);
width = 214;
},
{
layerId = "D465923C-ABAE-4975-85A4-08C1BC9DA335";
paths = (
{
closed = 1;
nodes = (
"204 0 LINE",
"204 580 LINE",
"51 580 LINE",
"51 0 LINE"
);
},
{
closed = 1;
nodes = (
"206 638 LINE",
"257 841 LINE",
"100 841 LINE",
"49 638 LINE"
);
}
);
width = 214;
}
);
unicode = 00ED;
},
{
color = 3;
glyphname = icircumflex;
lastChange = "2018-06-21 19:18:06 +0000";
layers = (
{
layerId = "17A5F7C0-AED1-4270-89BA-BFDC1003B8A5";
paths = (
{
closed = 1;
nodes = (
"133 0 LINE",
"133 580 LINE",
"51 580 LINE",
"51 0 LINE"
);
},
{
closed = 1;
nodes = (
"86 848 LINE",
"144 763 LINE",
"186 763 LINE",
"115 880 LINE",
"56 880 LINE",
"-15 763 LINE",
"26 763 LINE"
);
}
);
width = 214;
},
{
layerId = "D465923C-ABAE-4975-85A4-08C1BC9DA335";
paths = (
{
closed = 1;
nodes = (
"204 0 LINE",
"204 580 LINE",
"51 580 LINE",
"51 0 LINE"
);
},
{
closed = 1;
nodes = (
"143 682 LINE",
"171 638 LINE",
"305 638 LINE",
"195 822 LINE",
"95 822 LINE",
"-15 638 LINE",
"118 638 LINE"
);
}
);
width = 214;
}
);
unicode = 00EE;
},
{
color = 3;
glyphname = idieresis;
lastChange = "2018-06-21 19:18:06 +0000";
layers = (
{
layerId = "17A5F7C0-AED1-4270-89BA-BFDC1003B8A5";
paths = (
{
closed = 1;
nodes = (
"137 0 LINE",
"137 580 LINE",
"55 580 LINE",
"55 0 LINE"
);
},
{
closed = 1;
nodes = (
"148 847 LINE",
"148 765 LINE",
"230 765 LINE",
"230 847 LINE"
);
},
{
closed = 1;
nodes = (
"-32 847 LINE",
"-32 765 LINE",
"51 765 LINE",
"51 847 LINE"
);
}
);
width = 214;
},
{
layerId = "D465923C-ABAE-4975-85A4-08C1BC9DA335";
paths = (
{
closed = 1;
nodes = (
"208 0 LINE",
"208 580 LINE",
"55 580 LINE",
"55 0 LINE"
);
},
{
closed = 1;
nodes = (
"181 794 LINE",
"181 640 LINE",
"335 640 LINE",
"335 794 LINE"
);
},
{
closed = 1;
nodes = (
"-32 794 LINE",
"-32 640 LINE",
"121 640 LINE",
"121 794 LINE"
);
}
);
width = 214;
}
);
unicode = 00EF;
},
{
color = 3;
glyphname = igrave;
lastChange = "2018-06-21 19:18:06 +0000";
layers = (
{
layerId = "17A5F7C0-AED1-4270-89BA-BFDC1003B8A5";
paths = (
{
closed = 1;
nodes = (
"138 0 LINE",
"138 580 LINE",
"56 580 LINE",
"56 0 LINE"
);
},
{
closed = 1;
nodes = (
"16 903 LINE",
"25.701 864.94 OFFCURVE",
"41.299 804.299 OFFCURVE",
"51 764 QCURVE",
"131 764 LINE",
"97 903 LINE"
);
}
);
width = 214;
},
{
layerId = "D465923C-ABAE-4975-85A4-08C1BC9DA335";
paths = (
{
closed = 1;
nodes = (
"209 0 LINE",
"209 580 LINE",
"56 580 LINE",
"56 0 LINE"
);
},
{
closed = 1;
nodes = (
"16 842 LINE",
"67 639 LINE",
"224 639 LINE",
"173 842 LINE"
);
}
);
width = 214;
}
);
unicode = 00EC;
},
{
color = 3;
glyphname = j;
lastChange = "2018-06-21 19:18:06 +0000";
layers = (
{
layerId = "17A5F7C0-AED1-4270-89BA-BFDC1003B8A5";
paths = (
{
closed = 1;
nodes = (
"97 688 LINE",
"180 688 LINE",
"180 770 LINE",
"97 770 LINE"
);
},
{
closed = 1;
nodes = (
"97 580 LINE",
"97 -121 LINE SMOOTH",
"97 -136.672 OFFCURVE",
"73.672 -160 OFFCURVE",
"58 -160 QCURVE SMOOTH",
"-187 -160 LINE",
"-187 -243 LINE",
"58 -243 LINE SMOOTH",
"108.746 -243 OFFCURVE",
"180 -171.746 OFFCURVE",
"180 -121 QCURVE SMOOTH",
"180 580 LINE"
);
}
);
width = 239;
},
{
layerId = "D465923C-ABAE-4975-85A4-08C1BC9DA335";
paths = (
{
closed = 1;
nodes = (
"58 616 LINE",
"211 616 LINE",
"211 770 LINE",
"58 770 LINE"
);
},
{
closed = 1;
nodes = (
"58 580 LINE",
"58 -54 LINE",
"-187 -54 LINE",
"-187 -208 LINE",
"65 -208 LINE SMOOTH",
"124.701 -208 OFFCURVE",
"211 -122.701 OFFCURVE",
"211 -63 QCURVE SMOOTH",
"211 580 LINE"
);
}
);
width = 239;
}
);
unicode = 006A;
},
{
color = 3;
glyphname = k;
lastChange = "2018-06-21 19:18:06 +0000";
layers = (
{
layerId = "17A5F7C0-AED1-4270-89BA-BFDC1003B8A5";
paths = (
{
closed = 1;
nodes = (
"296 331 LINE",
"136 331 LINE",
"136 770 LINE",
"54 770 LINE",
"54 0 LINE",
"136 0 LINE",
"136 249 LINE",
"296 249 LINE",
"524 0 LINE",
"631 0 LINE",
"369 290 LINE",
"632 580 LINE",
"524 580 LINE"
);
}
);
width = 646;
},
{
layerId = "D465923C-ABAE-4975-85A4-08C1BC9DA335";
paths = (
{
closed = 1;
nodes = (
"285 367 LINE",
"207 367 LINE",
"207 770 LINE",
"54 770 LINE",
"54 0 LINE",
"207 0 LINE",
"207 213 LINE",
"285 213 LINE",
"482 0 LINE",
"636 0 LINE",
"636 52 LINE",
"420 290 LINE",
"636 528 LINE",
"636 580 LINE",
"482 580 LINE"
);
}
);
width = 646;
}
);
unicode = 006B;
},
{
color = 3;
glyphname = l;
lastChange = "2018-06-21 19:18:06 +0000";
layers = (
{
layerId = "17A5F7C0-AED1-4270-89BA-BFDC1003B8A5";
paths = (
{
closed = 1;
nodes = (
"52 121 LINE SMOOTH",
"52 71 OFFCURVE",
"123 0 OFFCURVE",
"173 0 QCURVE SMOOTH",
"271 0 LINE",
"271 82 LINE",
"173 82 LINE SMOOTH",
"157.328 82 OFFCURVE",
"134 105.328 OFFCURVE",
"134 121 QCURVE SMOOTH",
"134 770 LINE",
"52 770 LINE"
);
}
);
width = 302;
},
{
layerId = "D465923C-ABAE-4975-85A4-08C1BC9DA335";
paths = (
{
closed = 1;
nodes = (
"52 145 LINE SMOOTH",
"52 86.045 OFFCURVE",
"138.045 0 OFFCURVE",
"197 0 QCURVE SMOOTH",
"323 0 LINE",
"323 153 LINE",
"206 153 LINE",
"206 771 LINE",
"52 771 LINE"
);
}
);
width = 337;
}
);
unicode = 006C;
},
{
color = 3;
glyphname = m;
lastChange = "2018-06-21 19:18:06 +0000";
layers = (
{
layerId = "17A5F7C0-AED1-4270-89BA-BFDC1003B8A5";
paths = (
{
closed = 1;
nodes = (
"54 0 LINE",
"137 0 LINE",
"137 459 LINE SMOOTH",
"137 474.672 OFFCURVE",
"160.328 498 OFFCURVE",
"176 498 QCURVE SMOOTH",
"418 498 LINE SMOOTH",
"433.672 498 OFFCURVE",
"457 474.672 OFFCURVE",
"457 459 QCURVE SMOOTH",
"457 0 LINE",
"540 0 LINE",
"540 459 LINE SMOOTH",
"540 474.672 OFFCURVE",
"562.582 498 OFFCURVE",
"579 498 QCURVE SMOOTH",
"820 498 LINE SMOOTH",
"836.418 498 OFFCURVE",
"860 474.672 OFFCURVE",
"860 459 QCURVE SMOOTH",
"860 0 LINE",
"941 0 LINE",
"941 459 LINE SMOOTH",
"941 509 OFFCURVE",
"870.746 580 OFFCURVE",
"820 580 QCURVE SMOOTH",
"54 580 LINE"
);
}
);
width = 978;
},
{
layerId = "D465923C-ABAE-4975-85A4-08C1BC9DA335";
paths = (
{
closed = 1;
nodes = (
"54 0 LINE",
"207 0 LINE",
"207 427 LINE",
"399 427 LINE",
"399 0 LINE",
"553 0 LINE",
"553 427 LINE",
"745 427 LINE",
"745 0 LINE",
"897 0 LINE",
"897 435 LINE SMOOTH",
"897 493.955 OFFCURVE",
"811.701 580 OFFCURVE",
"752 580 QCURVE SMOOTH",
"54 580 LINE"
);
}
);
width = 978;
}
);
unicode = 006D;
},
{
color = 3;
glyphname = n;
lastChange = "2018-06-21 19:18:06 +0000";
layers = (
{
layerId = "17A5F7C0-AED1-4270-89BA-BFDC1003B8A5";
paths = (
{
closed = 1;
nodes = (
"54 0 LINE",
"136 0 LINE",
"136 459 LINE SMOOTH",
"136 474.672 OFFCURVE",
"159.582 498 OFFCURVE",
"176 498 QCURVE SMOOTH",
"524 498 LINE SMOOTH",
"539.672 498 OFFCURVE",
"563 474.672 OFFCURVE",
"563 459 QCURVE SMOOTH",
"563 0 LINE",
"645 0 LINE",
"645 459 LINE SMOOTH",
"645 509 OFFCURVE",
"574 580 OFFCURVE",
"524 580 QCURVE SMOOTH",
"54 580 LINE"
);
}
);
width = 696;
},
{
layerId = "D465923C-ABAE-4975-85A4-08C1BC9DA335";
paths = (
{
closed = 1;
nodes = (
"54 0 LINE",
"207 0 LINE",
"207 427 LINE",
"489 427 LINE",
"489 0 LINE",
"642 0 LINE",
"642 435 LINE SMOOTH",
"642 493.955 OFFCURVE",
"556.701 580 OFFCURVE",
"497 580 QCURVE SMOOTH",
"54 580 LINE"
);
}
);
width = 696;
}
);
unicode = 006E;
},
{
color = 3;
glyphname = ntilde;
lastChange = "2018-06-21 19:18:06 +0000";
layers = (
{
layerId = "17A5F7C0-AED1-4270-89BA-BFDC1003B8A5";
paths = (
{
closed = 1;
nodes = (
"54 0 LINE",
"136 0 LINE",
"136 459 LINE SMOOTH",
"136 474.672 OFFCURVE",
"159.582 498 OFFCURVE",
"176 498 QCURVE SMOOTH",
"524 498 LINE SMOOTH",
"539.672 498 OFFCURVE",
"563 474.672 OFFCURVE",
"563 459 QCURVE SMOOTH",
"563 0 LINE",
"645 0 LINE",
"645 459 LINE SMOOTH",
"645 509 OFFCURVE",
"574 580 OFFCURVE",
"524 580 QCURVE SMOOTH",
"54 580 LINE"
);
},
{
closed = 1;
nodes = (
"392.284 820.463 OFFCURVE",
"295.97 885 OFFCURVE",
"240 885 QCURVE SMOOTH",
"222.09 885 OFFCURVE",
"191.433 880.478 OFFCURVE",
"178 876 QCURVE",
"178 829 LINE",
"192.925 834.224 OFFCURVE",
"228.06 837 OFFCURVE",
"240 837 QCURVE SMOOTH",
"301.194 837 OFFCURVE",
"397.269 765 OFFCURVE",
"451 765 QCURVE SMOOTH",
"468.91 765 OFFCURVE",
"502.821 773.776 OFFCURVE",
"517 779 QCURVE",
"517 830 LINE",
"501.328 822.537 OFFCURVE",
"468.164 813 OFFCURVE",
"451 813 QCURVE SMOOTH",
"449 813 LINE"
);
}
);
width = 708;
},
{
layerId = "D465923C-ABAE-4975-85A4-08C1BC9DA335";
paths = (
{
closed = 1;
nodes = (
"54 0 LINE",
"207 0 LINE",
"207 427 LINE",
"489 427 LINE",
"489 0 LINE",
"642 0 LINE",
"642 435 LINE SMOOTH",
"642 493.955 OFFCURVE",
"556.701 580 OFFCURVE",
"497 580 QCURVE SMOOTH",
"54 580 LINE"
);
},
{
closed = 1;
nodes = (
"285.239 817 OFFCURVE",
"233 817 QCURVE SMOOTH",
"210.612 817 OFFCURVE",
"160.388 798.955 OFFCURVE",
"138 790 QCURVE",
"138 666 LINE",
"172.328 695.104 OFFCURVE",
"210.06 702 OFFCURVE",
"222 702 QCURVE SMOOTH",
"233 702 LINE SMOOTH",
"278.522 702 OFFCURVE",
"361.015 640 OFFCURVE",
"414 640 QCURVE SMOOTH",
"439.373 640 OFFCURVE",
"489.866 656.299 OFFCURVE",
"513 666 QCURVE",
"513 792 LINE",
"479.418 770.358 OFFCURVE",
"433.418 755 OFFCURVE",
"417 755 QCURVE",
"366.254 761.716 OFFCURVE"
);
}
);
width = 708;
}
);
unicode = 00F1;
},
{
color = 3;
glyphname = o;
lastChange = "2018-06-21 19:18:06 +0000";
layers = (
{
layerId = "17A5F7C0-AED1-4270-89BA-BFDC1003B8A5";
paths = (
{
closed = 1;
nodes = (
"122 580 OFFCURVE",
"51 509 OFFCURVE",
"51 459 QCURVE SMOOTH",
"51 121 LINE SMOOTH",
"51 71 OFFCURVE",
"122 0 OFFCURVE",
"172 0 QCURVE SMOOTH",
"520 0 LINE SMOOTH",
"570.746 0 OFFCURVE",
"642 71 OFFCURVE",
"642 121 QCURVE SMOOTH",
"642 459 LINE SMOOTH",
"642 509 OFFCURVE",
"570.746 580 OFFCURVE",
"520 580 QCURVE SMOOTH",
"172 580 LINE SMOOTH"
);
},
{
closed = 1;
nodes = (
"536.418 498 OFFCURVE",
"559 474.672 OFFCURVE",
"559 459 QCURVE SMOOTH",
"559 121 LINE SMOOTH",
"559 105.328 OFFCURVE",
"536.418 82 OFFCURVE",
"520 82 QCURVE SMOOTH",
"172 82 LINE SMOOTH",
"156.328 82 OFFCURVE",
"133 105.328 OFFCURVE",
"133 121 QCURVE SMOOTH",
"133 459 LINE SMOOTH",
"133 474.672 OFFCURVE",
"156.328 498 OFFCURVE",
"172 498 QCURVE SMOOTH",
"520 498 LINE SMOOTH"
);
}
);
width = 692;
},
{
layerId = "D465923C-ABAE-4975-85A4-08C1BC9DA335";
paths = (
{
closed = 1;
nodes = (
"137.045 580 OFFCURVE",
"51 493.955 OFFCURVE",
"51 435 QCURVE SMOOTH",
"51 145 LINE SMOOTH",
"51 86.045 OFFCURVE",
"137.045 0 OFFCURVE",
"196 0 QCURVE SMOOTH",
"494 0 LINE SMOOTH",
"553.701 0 OFFCURVE",
"639 86.045 OFFCURVE",
"639 145 QCURVE SMOOTH",
"639 435 LINE SMOOTH",
"639 493.955 OFFCURVE",
"553.701 580 OFFCURVE",
"494 580 QCURVE SMOOTH",
"196 580 LINE SMOOTH"
);
},
{
closed = 1;
nodes = (
"486 427 LINE",
"486 153 LINE",
"204 153 LINE",
"204 427 LINE"
);
}
);
width = 692;
}
);
unicode = 006F;
},
{
color = 3;
glyphname = oacute;
lastChange = "2018-06-21 19:18:06 +0000";
layers = (
{
layerId = "17A5F7C0-AED1-4270-89BA-BFDC1003B8A5";
paths = (
{
closed = 1;
nodes = (
"122 580 OFFCURVE",
"51 509 OFFCURVE",
"51 459 QCURVE SMOOTH",
"51 121 LINE SMOOTH",
"51 71 OFFCURVE",
"122 0 OFFCURVE",
"172 0 QCURVE SMOOTH",
"520 0 LINE SMOOTH",
"570.746 0 OFFCURVE",
"642 71 OFFCURVE",
"642 121 QCURVE SMOOTH",
"642 459 LINE SMOOTH",
"642 509 OFFCURVE",
"570.746 580 OFFCURVE",
"520 580 QCURVE SMOOTH",
"172 580 LINE SMOOTH"
);
},
{
closed = 1;
nodes = (
"536.418 498 OFFCURVE",
"559 474.672 OFFCURVE",
"559 459 QCURVE SMOOTH",
"559 121 LINE SMOOTH",
"559 105.328 OFFCURVE",
"536.418 82 OFFCURVE",
"520 82 QCURVE SMOOTH",
"172 82 LINE SMOOTH",
"156.328 82 OFFCURVE",
"133 105.328 OFFCURVE",
"133 121 QCURVE SMOOTH",
"133 459 LINE SMOOTH",
"133 474.672 OFFCURVE",
"156.328 498 OFFCURVE",
"172 498 QCURVE SMOOTH",
"520 498 LINE SMOOTH"
);
},
{
closed = 1;
nodes = (
"352 764 LINE",
"386 903 LINE",
"307 903 LINE",
"272 764 LINE"
);
}
);
width = 692;
},
{
layerId = "D465923C-ABAE-4975-85A4-08C1BC9DA335";
paths = (
{
closed = 1;
nodes = (
"137.045 580 OFFCURVE",
"51 493.955 OFFCURVE",
"51 435 QCURVE SMOOTH",
"51 145 LINE SMOOTH",
"51 86.045 OFFCURVE",
"137.045 0 OFFCURVE",
"196 0 QCURVE SMOOTH",
"494 0 LINE SMOOTH",
"553.701 0 OFFCURVE",
"639 86.045 OFFCURVE",
"639 145 QCURVE SMOOTH",
"639 435 LINE SMOOTH",
"639 493.955 OFFCURVE",
"553.701 580 OFFCURVE",
"494 580 QCURVE SMOOTH",
"196 580 LINE SMOOTH"
);
},
{
closed = 1;
nodes = (
"486 427 LINE",
"486 153 LINE",
"204 153 LINE",
"204 427 LINE"
);
},
{
closed = 1;
nodes = (
"419 639 LINE",
"470 842 LINE",
"313 842 LINE",
"262 639 LINE"
);
}
);
width = 692;
}
);
unicode = 00F3;
},
{
color = 3;
glyphname = ocircumflex;
lastChange = "2018-06-21 19:18:06 +0000";
layers = (
{
layerId = "17A5F7C0-AED1-4270-89BA-BFDC1003B8A5";
paths = (
{
closed = 1;
nodes = (
"122 580 OFFCURVE",
"51 509 OFFCURVE",
"51 459 QCURVE SMOOTH",
"51 121 LINE SMOOTH",
"51 71 OFFCURVE",
"122 0 OFFCURVE",
"172 0 QCURVE SMOOTH",
"520 0 LINE SMOOTH",
"570.746 0 OFFCURVE",
"642 71 OFFCURVE",
"642 121 QCURVE SMOOTH",
"642 459 LINE SMOOTH",
"642 509 OFFCURVE",
"570.746 580 OFFCURVE",
"520 580 QCURVE SMOOTH",
"172 580 LINE SMOOTH"
);
},
{
closed = 1;
nodes = (
"536.418 498 OFFCURVE",
"559 474.672 OFFCURVE",
"559 459 QCURVE SMOOTH",
"559 121 LINE SMOOTH",
"559 105.328 OFFCURVE",
"536.418 82 OFFCURVE",
"520 82 QCURVE SMOOTH",
"172 82 LINE SMOOTH",
"156.328 82 OFFCURVE",
"133 105.328 OFFCURVE",
"133 121 QCURVE SMOOTH",
"133 459 LINE SMOOTH",
"133 474.672 OFFCURVE",
"156.328 498 OFFCURVE",
"172 498 QCURVE SMOOTH",
"520 498 LINE SMOOTH"
);
},
{
closed = 1;
nodes = (
"325 848 LINE",
"383 763 LINE",
"425 763 LINE",
"354 880 LINE",
"295 880 LINE",
"224 763 LINE",
"265 763 LINE"
);
}
);
width = 692;
},
{
layerId = "D465923C-ABAE-4975-85A4-08C1BC9DA335";
paths = (
{
closed = 1;
nodes = (
"137.045 580 OFFCURVE",
"51 493.955 OFFCURVE",
"51 435 QCURVE SMOOTH",
"51 145 LINE SMOOTH",
"51 86.045 OFFCURVE",
"137.045 0 OFFCURVE",
"196 0 QCURVE SMOOTH",
"494 0 LINE SMOOTH",
"553.701 0 OFFCURVE",
"639 86.045 OFFCURVE",
"639 145 QCURVE SMOOTH",
"639 435 LINE SMOOTH",
"639 493.955 OFFCURVE",
"553.701 580 OFFCURVE",
"494 580 QCURVE SMOOTH",
"196 580 LINE SMOOTH"
);
},
{
closed = 1;
nodes = (
"486 427 LINE",
"486 153 LINE",
"204 153 LINE",
"204 427 LINE"
);
},
{
closed = 1;
nodes = (
"352 682 LINE",
"380 638 LINE",
"514 638 LINE",
"404 822 LINE",
"304 822 LINE",
"194 638 LINE",
"327 638 LINE"
);
}
);
width = 692;
}
);
unicode = 00F4;
},
{
color = 3;
glyphname = odieresis;
lastChange = "2018-06-21 19:18:06 +0000";
layers = (
{
layerId = "17A5F7C0-AED1-4270-89BA-BFDC1003B8A5";
paths = (
{
closed = 1;
nodes = (
"122 580 OFFCURVE",
"51 509 OFFCURVE",
"51 459 QCURVE SMOOTH",
"51 121 LINE SMOOTH",
"51 71 OFFCURVE",
"122 0 OFFCURVE",
"172 0 QCURVE SMOOTH",
"520 0 LINE SMOOTH",
"570.746 0 OFFCURVE",
"642 71 OFFCURVE",
"642 121 QCURVE SMOOTH",
"642 459 LINE SMOOTH",
"642 509 OFFCURVE",
"570.746 580 OFFCURVE",
"520 580 QCURVE SMOOTH",
"172 580 LINE SMOOTH"
);
},
{
closed = 1;
nodes = (
"536.418 498 OFFCURVE",
"559 474.672 OFFCURVE",
"559 459 QCURVE SMOOTH",
"559 121 LINE SMOOTH",
"559 105.328 OFFCURVE",
"536.418 82 OFFCURVE",
"520 82 QCURVE SMOOTH",
"172 82 LINE SMOOTH",
"156.328 82 OFFCURVE",
"133 105.328 OFFCURVE",
"133 121 QCURVE SMOOTH",
"133 459 LINE SMOOTH",
"133 474.672 OFFCURVE",
"156.328 498 OFFCURVE",
"172 498 QCURVE SMOOTH",
"520 498 LINE SMOOTH"
);
},
{
closed = 1;
nodes = (
"387 847 LINE",
"387 765 LINE",
"469 765 LINE",
"469 847 LINE"
);
},
{
closed = 1;
nodes = (
"207 847 LINE",
"207 765 LINE",
"290 765 LINE",
"290 847 LINE"
);
}
);
width = 692;
},
{
layerId = "D465923C-ABAE-4975-85A4-08C1BC9DA335";
paths = (
{
closed = 1;
nodes = (
"137.045 580 OFFCURVE",
"51 493.955 OFFCURVE",
"51 435 QCURVE SMOOTH",
"51 145 LINE SMOOTH",
"51 86.045 OFFCURVE",
"137.045 0 OFFCURVE",
"196 0 QCURVE SMOOTH",
"494 0 LINE SMOOTH",
"553.701 0 OFFCURVE",
"639 86.045 OFFCURVE",
"639 145 QCURVE SMOOTH",
"639 435 LINE SMOOTH",
"639 493.955 OFFCURVE",
"553.701 580 OFFCURVE",
"494 580 QCURVE SMOOTH",
"196 580 LINE SMOOTH"
);
},
{
closed = 1;
nodes = (
"486 427 LINE",
"486 153 LINE",
"204 153 LINE",
"204 427 LINE"
);
},
{
closed = 1;
nodes = (
"380 794 LINE",
"380 640 LINE",
"534 640 LINE",
"534 794 LINE"
);
},
{
closed = 1;
nodes = (
"167 794 LINE",
"167 640 LINE",
"320 640 LINE",
"320 794 LINE"
);
}
);
width = 692;
}
);
unicode = 00F6;
},
{
color = 3;
glyphname = ograve;
lastChange = "2018-06-21 19:18:06 +0000";
layers = (
{
layerId = "17A5F7C0-AED1-4270-89BA-BFDC1003B8A5";
paths = (
{
closed = 1;
nodes = (
"122 580 OFFCURVE",
"51 509 OFFCURVE",
"51 459 QCURVE SMOOTH",
"51 121 LINE SMOOTH",
"51 71 OFFCURVE",
"122 0 OFFCURVE",
"172 0 QCURVE SMOOTH",
"520 0 LINE SMOOTH",
"570.746 0 OFFCURVE",
"642 71 OFFCURVE",
"642 121 QCURVE SMOOTH",
"642 459 LINE SMOOTH",
"642 509 OFFCURVE",
"570.746 580 OFFCURVE",
"520 580 QCURVE SMOOTH",
"172 580 LINE SMOOTH"
);
},
{
closed = 1;
nodes = (
"536.418 498 OFFCURVE",
"559 474.672 OFFCURVE",
"559 459 QCURVE SMOOTH",
"559 121 LINE SMOOTH",
"559 105.328 OFFCURVE",
"536.418 82 OFFCURVE",
"520 82 QCURVE SMOOTH",
"172 82 LINE SMOOTH",
"156.328 82 OFFCURVE",
"133 105.328 OFFCURVE",
"133 121 QCURVE SMOOTH",
"133 459 LINE SMOOTH",
"133 474.672 OFFCURVE",
"156.328 498 OFFCURVE",
"172 498 QCURVE SMOOTH",
"520 498 LINE SMOOTH"
);
},
{
closed = 1;
nodes = (
"272 903 LINE",
"281.702 864.94 OFFCURVE",
"297.298 804.299 OFFCURVE",
"307 764 QCURVE",
"387 764 LINE",
"353 903 LINE"
);
}
);
width = 692;
},
{
layerId = "D465923C-ABAE-4975-85A4-08C1BC9DA335";
paths = (
{
closed = 1;
nodes = (
"137.045 580 OFFCURVE",
"51 493.955 OFFCURVE",
"51 435 QCURVE SMOOTH",
"51 145 LINE SMOOTH",
"51 86.045 OFFCURVE",
"137.045 0 OFFCURVE",
"196 0 QCURVE SMOOTH",
"494 0 LINE SMOOTH",
"553.701 0 OFFCURVE",
"639 86.045 OFFCURVE",
"639 145 QCURVE SMOOTH",
"639 435 LINE SMOOTH",
"639 493.955 OFFCURVE",
"553.701 580 OFFCURVE",
"494 580 QCURVE SMOOTH",
"196 580 LINE SMOOTH"
);
},
{
closed = 1;
nodes = (
"486 427 LINE",
"486 153 LINE",
"204 153 LINE",
"204 427 LINE"
);
},
{
closed = 1;
nodes = (
"242 842 LINE",
"293 639 LINE",
"450 639 LINE",
"399 842 LINE"
);
}
);
width = 692;
}
);
unicode = 00F2;
},
{
color = 3;
glyphname = otilde;
lastChange = "2018-06-21 19:18:06 +0000";
layers = (
{
layerId = "17A5F7C0-AED1-4270-89BA-BFDC1003B8A5";
paths = (
{
closed = 1;
nodes = (
"122 580 OFFCURVE",
"51 509 OFFCURVE",
"51 459 QCURVE SMOOTH",
"51 121 LINE SMOOTH",
"51 71 OFFCURVE",
"122 0 OFFCURVE",
"172 0 QCURVE SMOOTH",
"520 0 LINE SMOOTH",
"570.746 0 OFFCURVE",
"642 71 OFFCURVE",
"642 121 QCURVE SMOOTH",
"642 459 LINE SMOOTH",
"642 509 OFFCURVE",
"570.746 580 OFFCURVE",
"520 580 QCURVE SMOOTH",
"172 580 LINE SMOOTH"
);
},
{
closed = 1;
nodes = (
"536.418 498 OFFCURVE",
"559 474.672 OFFCURVE",
"559 459 QCURVE SMOOTH",
"559 121 LINE SMOOTH",
"559 105.328 OFFCURVE",
"536.418 82 OFFCURVE",
"520 82 QCURVE SMOOTH",
"172 82 LINE SMOOTH",
"156.328 82 OFFCURVE",
"133 105.328 OFFCURVE",
"133 121 QCURVE SMOOTH",
"133 459 LINE SMOOTH",
"133 474.672 OFFCURVE",
"156.328 498 OFFCURVE",
"172 498 QCURVE SMOOTH",
"520 498 LINE SMOOTH"
);
},
{
closed = 1;
nodes = (
"384.284 820.463 OFFCURVE",
"287.97 885 OFFCURVE",
"232 885 QCURVE SMOOTH",
"214.09 885 OFFCURVE",
"183.433 880.478 OFFCURVE",
"170 876 QCURVE",
"170 829 LINE",
"184.925 834.224 OFFCURVE",
"220.06 837 OFFCURVE",
"232 837 QCURVE SMOOTH",
"293.194 837 OFFCURVE",
"389.269 765 OFFCURVE",
"443 765 QCURVE SMOOTH",
"460.91 765 OFFCURVE",
"494.821 773.776 OFFCURVE",
"509 779 QCURVE",
"509 830 LINE",
"493.328 822.537 OFFCURVE",
"460.164 813 OFFCURVE",
"443 813 QCURVE SMOOTH",
"441 813 LINE"
);
}
);
width = 692;
},
{
layerId = "D465923C-ABAE-4975-85A4-08C1BC9DA335";
paths = (
{
closed = 1;
nodes = (
"137.045 580 OFFCURVE",
"51 493.955 OFFCURVE",
"51 435 QCURVE SMOOTH",
"51 145 LINE SMOOTH",
"51 86.045 OFFCURVE",
"137.045 0 OFFCURVE",
"196 0 QCURVE SMOOTH",
"494 0 LINE SMOOTH",
"553.701 0 OFFCURVE",
"639 86.045 OFFCURVE",
"639 145 QCURVE SMOOTH",
"639 435 LINE SMOOTH",
"639 493.955 OFFCURVE",
"553.701 580 OFFCURVE",
"494 580 QCURVE SMOOTH",
"196 580 LINE SMOOTH"
);
},
{
closed = 1;
nodes = (
"486 427 LINE",
"486 153 LINE",
"204 153 LINE",
"204 427 LINE"
);
},
{
closed = 1;
nodes = (
"287.239 817 OFFCURVE",
"235 817 QCURVE SMOOTH",
"212.612 817 OFFCURVE",
"162.388 798.955 OFFCURVE",
"140 790 QCURVE",
"140 666 LINE",
"174.328 695.104 OFFCURVE",
"212.06 702 OFFCURVE",
"224 702 QCURVE SMOOTH",
"235 702 LINE SMOOTH",
"280.522 702 OFFCURVE",
"363.015 640 OFFCURVE",
"416 640 QCURVE SMOOTH",
"441.373 640 OFFCURVE",
"491.866 656.299 OFFCURVE",
"515 666 QCURVE",
"515 792 LINE",
"481.418 770.358 OFFCURVE",
"435.418 755 OFFCURVE",
"419 755 QCURVE",
"368.254 761.716 OFFCURVE"
);
}
);
width = 692;
}
);
unicode = 00F5;
},
{
color = 3;
glyphname = oe;
lastChange = "2018-06-21 19:18:06 +0000";
layers = (
{
layerId = "17A5F7C0-AED1-4270-89BA-BFDC1003B8A5";
paths = (
{
closed = 1;
nodes = (
"1150 459 LINE SMOOTH",
"1150 509 OFFCURVE",
"1079.746 580 OFFCURVE",
"1029 580 QCURVE SMOOTH",
"173 580 LINE SMOOTH",
"122.254 580 OFFCURVE",
"52 509 OFFCURVE",
"52 459 QCURVE SMOOTH",
"52 121 LINE SMOOTH",
"52 71 OFFCURVE",
"122.254 0 OFFCURVE",
"173 0 QCURVE SMOOTH",
"1150 0 LINE",
"1150 82 LINE",
"681 82 LINE SMOOTH",
"665.328 82 OFFCURVE",
"642 105.328 OFFCURVE",
"642 121 QCURVE SMOOTH",
"642 249 LINE",
"1150 249 LINE"
);
},
{
closed = 1;
nodes = (
"1044.672 498 OFFCURVE",
"1068 474.672 OFFCURVE",
"1068 459 QCURVE SMOOTH",
"1068 331 LINE",
"642 331 LINE",
"642 459 LINE SMOOTH",
"642 474.672 OFFCURVE",
"665.328 498 OFFCURVE",
"681 498 QCURVE SMOOTH",
"1029 498 LINE SMOOTH"
);
},
{
closed = 1;
nodes = (
"157.328 82 OFFCURVE",
"134 105.328 OFFCURVE",
"134 121 QCURVE SMOOTH",
"134 459 LINE SMOOTH",
"134 474.672 OFFCURVE",
"157.328 498 OFFCURVE",
"173 498 QCURVE SMOOTH",
"521 498 LINE SMOOTH",
"536.672 498 OFFCURVE",
"560 474.672 OFFCURVE",
"560 459 QCURVE SMOOTH",
"560 121 LINE SMOOTH",
"560 105.328 OFFCURVE",
"536.672 82 OFFCURVE",
"521 82 QCURVE SMOOTH",
"173 82 LINE SMOOTH"
);
}
);
width = 1177;
},
{
layerId = "D465923C-ABAE-4975-85A4-08C1BC9DA335";
paths = (
{
closed = 1;
nodes = (
"1076 435 LINE SMOOTH",
"1076 493.955 OFFCURVE",
"991.701 580 OFFCURVE",
"932 580 QCURVE SMOOTH",
"198 580 LINE SMOOTH",
"137.552 580 OFFCURVE",
"52 493.955 OFFCURVE",
"52 435 QCURVE SMOOTH",
"52 145 LINE SMOOTH",
"52 86.045 OFFCURVE",
"137.552 0 OFFCURVE",
"198 0 QCURVE SMOOTH",
"1076 0 LINE",
"1076 153 LINE",
"641 153 LINE",
"641 213 LINE",
"1076 213 LINE"
);
},
{
closed = 1;
nodes = (
"641 427 LINE",
"923 427 LINE",
"923 347 LINE",
"641 347 LINE"
);
},
{
closed = 1;
nodes = (
"488 427 LINE",
"488 153 LINE",
"205 153 LINE",
"205 427 LINE"
);
}
);
width = 1177;
}
);
unicode = 0153;
},
{
color = 3;
glyphname = p;
lastChange = "2018-06-21 19:18:06 +0000";
layers = (
{
layerId = "17A5F7C0-AED1-4270-89BA-BFDC1003B8A5";
paths = (
{
closed = 1;
nodes = (
"54 -230 LINE",
"136 -230 LINE",
"136 0 LINE",
"524 0 LINE SMOOTH",
"574 0 OFFCURVE",
"645 71 OFFCURVE",
"645 121 QCURVE SMOOTH",
"645 459 LINE SMOOTH",
"645 509 OFFCURVE",
"574 580 OFFCURVE",
"524 580 QCURVE SMOOTH",
"54 580 LINE"
);
},
{
closed = 1;
nodes = (
"563 105.328 OFFCURVE",
"539.672 82 OFFCURVE",
"524 82 QCURVE SMOOTH",
"176 82 LINE SMOOTH",
"159.582 82 OFFCURVE",
"136 105.328 OFFCURVE",
"136 121 QCURVE SMOOTH",
"136 459 LINE SMOOTH",
"136 474.672 OFFCURVE",
"159.582 498 OFFCURVE",
"176 498 QCURVE SMOOTH",
"524 498 LINE SMOOTH",
"539.672 498 OFFCURVE",
"563 474.672 OFFCURVE",
"563 459 QCURVE SMOOTH",
"563 121 LINE SMOOTH"
);
}
);
width = 664;
},
{
layerId = "D465923C-ABAE-4975-85A4-08C1BC9DA335";
paths = (
{
closed = 1;
nodes = (
"54 -230 LINE",
"207 -230 LINE",
"207 0 LINE",
"497 0 LINE SMOOTH",
"556.701 0 OFFCURVE",
"642 86.045 OFFCURVE",
"642 145 QCURVE SMOOTH",
"642 435 LINE SMOOTH",
"642 493.955 OFFCURVE",
"556.701 580 OFFCURVE",
"497 580 QCURVE SMOOTH",
"54 580 LINE"
);
},
{
closed = 1;
nodes = (
"489 427 LINE",
"489 153 LINE",
"207 153 LINE",
"207 427 LINE"
);
}
);
width = 664;
}
);
unicode = 0070;
},
{
color = 3;
glyphname = q;
lastChange = "2018-06-21 19:18:06 +0000";
layers = (
{
layerId = "17A5F7C0-AED1-4270-89BA-BFDC1003B8A5";
paths = (
{
closed = 1;
nodes = (
"20 71 OFFCURVE",
"91.254 0 OFFCURVE",
"142 0 QCURVE SMOOTH",
"529 0 LINE",
"529 -230 LINE",
"611 -230 LINE",
"611 580 LINE",
"142 580 LINE SMOOTH",
"91.254 580 OFFCURVE",
"20 509 OFFCURVE",
"20 459 QCURVE SMOOTH",
"20 121 LINE SMOOTH"
);
},
{
closed = 1;
nodes = (
"103 474.672 OFFCURVE",
"125.582 498 OFFCURVE",
"142 498 QCURVE SMOOTH",
"490 498 LINE SMOOTH",
"505.672 498 OFFCURVE",
"529 474.672 OFFCURVE",
"529 459 QCURVE SMOOTH",
"529 121 LINE SMOOTH",
"529 105.328 OFFCURVE",
"505.672 82 OFFCURVE",
"490 82 QCURVE SMOOTH",
"142 82 LINE SMOOTH",
"125.582 82 OFFCURVE",
"103 105.328 OFFCURVE",
"103 121 QCURVE SMOOTH",
"103 459 LINE SMOOTH"
);
}
);
width = 664;
},
{
layerId = "D465923C-ABAE-4975-85A4-08C1BC9DA335";
paths = (
{
closed = 1;
nodes = (
"20 86.045 OFFCURVE",
"105.299 0 OFFCURVE",
"165 0 QCURVE SMOOTH",
"456 0 LINE",
"456 -230 LINE",
"609 -230 LINE",
"609 580 LINE",
"165 580 LINE SMOOTH",
"105.299 580 OFFCURVE",
"20 493.955 OFFCURVE",
"20 435 QCURVE SMOOTH",
"20 145 LINE SMOOTH"
);
},
{
closed = 1;
nodes = (
"456 427 LINE",
"456 153 LINE",
"174 153 LINE",
"174 427 LINE"
);
}
);
width = 664;
}
);
unicode = 0071;
},
{
color = 3;
glyphname = r;
lastChange = "2018-06-21 19:18:06 +0000";
layers = (
{
layerId = "17A5F7C0-AED1-4270-89BA-BFDC1003B8A5";
paths = (
{
closed = 1;
nodes = (
"123 580 OFFCURVE",
"52 509 OFFCURVE",
"52 459 QCURVE SMOOTH",
"52 0 LINE",
"134 0 LINE",
"134 459 LINE SMOOTH",
"134 474.672 OFFCURVE",
"157.328 498 OFFCURVE",
"173 498 QCURVE SMOOTH",
"499 498 LINE",
"499 580 LINE",
"173 580 LINE SMOOTH"
);
}
);
width = 512;
},
{
layerId = "D465923C-ABAE-4975-85A4-08C1BC9DA335";
paths = (
{
closed = 1;
nodes = (
"138.299 580 OFFCURVE",
"52 493.955 OFFCURVE",
"52 435 QCURVE SMOOTH",
"52 0 LINE",
"205 0 LINE",
"205 427 LINE",
"518 427 LINE",
"518 580 LINE",
"198 580 LINE SMOOTH"
);
}
);
width = 526;
}
);
unicode = 0072;
},
{
color = 3;
glyphname = s;
lastChange = "2018-06-21 19:18:06 +0000";
layers = (
{
layerId = "17A5F7C0-AED1-4270-89BA-BFDC1003B8A5";
paths = (
{
closed = 1;
nodes = (
"639 509 OFFCURVE",
"567.746 580 OFFCURVE",
"517 580 QCURVE SMOOTH",
"169 580 LINE SMOOTH",
"119 580 OFFCURVE",
"48 509 OFFCURVE",
"48 459 QCURVE SMOOTH",
"48 370 LINE SMOOTH",
"48 320 OFFCURVE",
"119 249 OFFCURVE",
"169 249 QCURVE SMOOTH",
"517 249 LINE SMOOTH",
"532.672 249 OFFCURVE",
"556 225.672 OFFCURVE",
"556 210 QCURVE SMOOTH",
"556 121 LINE SMOOTH",
"556 105.328 OFFCURVE",
"532.672 82 OFFCURVE",
"517 82 QCURVE SMOOTH",
"169 82 LINE SMOOTH",
"153.328 82 OFFCURVE",
"130 105.328 OFFCURVE",
"130 121 QCURVE SMOOTH",
"130 129 LINE",
"48 129 LINE",
"48 121 LINE SMOOTH",
"48 71 OFFCURVE",
"119 0 OFFCURVE",
"169 0 QCURVE SMOOTH",
"517 0 LINE SMOOTH",
"567.746 0 OFFCURVE",
"639 71 OFFCURVE",
"639 121 QCURVE SMOOTH",
"639 210 LINE SMOOTH",
"639 260 OFFCURVE",
"567.746 331 OFFCURVE",
"517 331 QCURVE SMOOTH",
"169 331 LINE SMOOTH",
"153.328 331 OFFCURVE",
"130 354.328 OFFCURVE",
"130 370 QCURVE SMOOTH",
"130 459 LINE SMOOTH",
"130 474.672 OFFCURVE",
"153.328 498 OFFCURVE",
"169 498 QCURVE SMOOTH",
"517 498 LINE SMOOTH",
"532.672 498 OFFCURVE",
"556 474.672 OFFCURVE",
"556 459 QCURVE SMOOTH",
"556 451 LINE",
"639 451 LINE",
"639 459 LINE SMOOTH"
);
}
);
width = 686;
},
{
layerId = "D465923C-ABAE-4975-85A4-08C1BC9DA335";
paths = (
{
closed = 1;
nodes = (
"637 493.955 OFFCURVE",
"551.448 580 OFFCURVE",
"491 580 QCURVE SMOOTH",
"193 580 LINE SMOOTH",
"134.045 580 OFFCURVE",
"48 493.955 OFFCURVE",
"48 435 QCURVE SMOOTH",
"48 358 LINE SMOOTH",
"48 299.045 OFFCURVE",
"134.045 213 OFFCURVE",
"193 213 QCURVE SMOOTH",
"483 213 LINE",
"483 153 LINE",
"201 153 LINE",
"201 174 LINE",
"48 174 LINE",
"48 145 LINE SMOOTH",
"48 86.045 OFFCURVE",
"134.045 0 OFFCURVE",
"193 0 QCURVE SMOOTH",
"491 0 LINE SMOOTH",
"551.448 0 OFFCURVE",
"637 86.045 OFFCURVE",
"637 145 QCURVE SMOOTH",
"637 222 LINE SMOOTH",
"637 280.955 OFFCURVE",
"551.448 367 OFFCURVE",
"491 367 QCURVE SMOOTH",
"201 367 LINE",
"201 427 LINE",
"483 427 LINE",
"483 406 LINE",
"637 406 LINE",
"637 435 LINE SMOOTH"
);
}
);
width = 686;
}
);
unicode = 0073;
},
{
color = 3;
glyphname = scaron;
lastChange = "2018-06-21 19:18:06 +0000";
layers = (
{
layerId = "17A5F7C0-AED1-4270-89BA-BFDC1003B8A5";
paths = (
{
closed = 1;
nodes = (
"639 509 OFFCURVE",
"567.746 580 OFFCURVE",
"517 580 QCURVE SMOOTH",
"169 580 LINE SMOOTH",
"119 580 OFFCURVE",
"48 509 OFFCURVE",
"48 459 QCURVE SMOOTH",
"48 370 LINE SMOOTH",
"48 320 OFFCURVE",
"119 249 OFFCURVE",
"169 249 QCURVE SMOOTH",
"517 249 LINE SMOOTH",
"532.672 249 OFFCURVE",
"556 225.672 OFFCURVE",
"556 210 QCURVE SMOOTH",
"556 121 LINE SMOOTH",
"556 105.328 OFFCURVE",
"532.672 82 OFFCURVE",
"517 82 QCURVE SMOOTH",
"169 82 LINE SMOOTH",
"153.328 82 OFFCURVE",
"130 105.328 OFFCURVE",
"130 121 QCURVE SMOOTH",
"130 129 LINE",
"48 129 LINE",
"48 121 LINE SMOOTH",
"48 71 OFFCURVE",
"119 0 OFFCURVE",
"169 0 QCURVE SMOOTH",
"517 0 LINE SMOOTH",
"567.746 0 OFFCURVE",
"639 71 OFFCURVE",
"639 121 QCURVE SMOOTH",
"639 210 LINE SMOOTH",
"639 260 OFFCURVE",
"567.746 331 OFFCURVE",
"517 331 QCURVE SMOOTH",
"169 331 LINE SMOOTH",
"153.328 331 OFFCURVE",
"130 354.328 OFFCURVE",
"130 370 QCURVE SMOOTH",
"130 459 LINE SMOOTH",
"130 474.672 OFFCURVE",
"153.328 498 OFFCURVE",
"169 498 QCURVE SMOOTH",
"517 498 LINE SMOOTH",
"532.672 498 OFFCURVE",
"556 474.672 OFFCURVE",
"556 459 QCURVE SMOOTH",
"556 451 LINE",
"639 451 LINE",
"639 459 LINE SMOOTH"
);
},
{
closed = 1;
nodes = (
"293 763 LINE",
"352 763 LINE",
"422 880 LINE",
"381 880 LINE",
"323 795 LINE",
"263 880 LINE",
"221 880 LINE"
);
}
);
width = 687;
},
{
layerId = "D465923C-ABAE-4975-85A4-08C1BC9DA335";
paths = (
{
closed = 1;
nodes = (
"637 493.955 OFFCURVE",
"551.448 580 OFFCURVE",
"491 580 QCURVE SMOOTH",
"193 580 LINE SMOOTH",
"134.045 580 OFFCURVE",
"48 493.955 OFFCURVE",
"48 435 QCURVE SMOOTH",
"48 358 LINE SMOOTH",
"48 299.045 OFFCURVE",
"134.045 213 OFFCURVE",
"193 213 QCURVE SMOOTH",
"483 213 LINE",
"483 153 LINE",
"201 153 LINE",
"201 174 LINE",
"48 174 LINE",
"48 145 LINE SMOOTH",
"48 86.045 OFFCURVE",
"134.045 0 OFFCURVE",
"193 0 QCURVE SMOOTH",
"491 0 LINE SMOOTH",
"551.448 0 OFFCURVE",
"637 86.045 OFFCURVE",
"637 145 QCURVE SMOOTH",
"637 222 LINE SMOOTH",
"637 280.955 OFFCURVE",
"551.448 367 OFFCURVE",
"491 367 QCURVE SMOOTH",
"201 367 LINE",
"201 427 LINE",
"483 427 LINE",
"483 406 LINE",
"637 406 LINE",
"637 435 LINE SMOOTH"
);
},
{
closed = 1;
nodes = (
"301 638 LINE",
"401 638 LINE",
"511 822 LINE",
"376 822 LINE",
"349 778 LINE",
"322 822 LINE",
"191 822 LINE"
);
}
);
width = 687;
}
);
unicode = 0161;
},
{
color = 3;
glyphname = germandbls;
lastChange = "2018-06-21 19:18:06 +0000";
layers = (
{
layerId = "17A5F7C0-AED1-4270-89BA-BFDC1003B8A5";
paths = (
{
closed = 1;
nodes = (
"772.806 664.806 OFFCURVE",
"704.791 728 OFFCURVE",
"663 728 QCURVE SMOOTH",
"178 728 LINE SMOOTH",
"127.254 728 OFFCURVE",
"57 656.746 OFFCURVE",
"57 606 QCURVE SMOOTH",
"57 0 LINE",
"139 0 LINE",
"139 605 LINE SMOOTH",
"139 620.672 OFFCURVE",
"162.328 644 OFFCURVE",
"178 644 QCURVE SMOOTH",
"663 644 LINE SMOOTH",
"678.672 644 OFFCURVE",
"702 620.672 OFFCURVE",
"702 605 QCURVE SMOOTH",
"702 443 LINE SMOOTH",
"702 427.328 OFFCURVE",
"678.672 404 OFFCURVE",
"663 404 QCURVE SMOOTH",
"284 404 LINE",
"284 333 LINE",
"663 333 LINE SMOOTH",
"678.672 333 OFFCURVE",
"702 309.672 OFFCURVE",
"702 294 QCURVE SMOOTH",
"702 121 LINE SMOOTH",
"702 105.328 OFFCURVE",
"678.672 82 OFFCURVE",
"663 82 QCURVE SMOOTH",
"284 82 LINE",
"284 0 LINE",
"663 0 LINE SMOOTH",
"713 0 OFFCURVE",
"784 71 OFFCURVE",
"784 121 QCURVE SMOOTH",
"784 294 LINE SMOOTH",
"784 314.149 OFFCURVE",
"768.179 355.343 OFFCURVE",
"754 374 QCURVE",
"768.179 393.403 OFFCURVE",
"784 434.851 OFFCURVE",
"784 455 QCURVE SMOOTH",
"784 626 LINE"
);
}
);
width = 833;
},
{
layerId = "D465923C-ABAE-4975-85A4-08C1BC9DA335";
paths = (
{
closed = 1;
nodes = (
"755.045 637.746 OFFCURVE",
"671.731 706 OFFCURVE",
"618 706 QCURVE SMOOTH",
"203 706 LINE SMOOTH",
"143.299 706 OFFCURVE",
"57 620.701 OFFCURVE",
"57 561 QCURVE SMOOTH",
"57 0 LINE",
"210 0 LINE",
"210 552 LINE",
"611 552 LINE",
"611 429 LINE",
"273 429 LINE",
"273 285 LINE",
"611 285 LINE",
"611 153 LINE",
"273 153 LINE",
"273 0 LINE",
"618 0 LINE SMOOTH",
"677.701 0 OFFCURVE",
"764 86.045 OFFCURVE",
"764 145 QCURVE SMOOTH",
"764 294 LINE SMOOTH",
"764 311.91 OFFCURVE",
"755.955 345.582 OFFCURVE",
"747 362 QCURVE",
"755.209 377.672 OFFCURVE",
"764 414.582 OFFCURVE",
"764 431 QCURVE SMOOTH",
"764 587 LINE"
);
}
);
width = 833;
}
);
unicode = 00DF;
},
{
color = 3;
glyphname = t;
lastChange = "2018-06-21 19:18:06 +0000";
layers = (
{
layerId = "17A5F7C0-AED1-4270-89BA-BFDC1003B8A5";
paths = (
{
closed = 1;
nodes = (
"386 580 LINE",
"135 580 LINE",
"135 770 LINE",
"53 770 LINE",
"53 121 LINE SMOOTH",
"53 71 OFFCURVE",
"123.254 0 OFFCURVE",
"174 0 QCURVE SMOOTH",
"386 0 LINE",
"386 82 LINE",
"174 82 LINE SMOOTH",
"158.328 82 OFFCURVE",
"135 105.328 OFFCURVE",
"135 121 QCURVE SMOOTH",
"135 498 LINE",
"386 498 LINE"
);
}
);
width = 410;
},
{
layerId = "D465923C-ABAE-4975-85A4-08C1BC9DA335";
paths = (
{
closed = 1;
nodes = (
"421 580 LINE",
"206 580 LINE",
"206 752 LINE",
"53 752 LINE",
"53 145 LINE SMOOTH",
"53 86.045 OFFCURVE",
"138.552 0 OFFCURVE",
"199 0 QCURVE SMOOTH",
"421 0 LINE",
"421 153 LINE",
"206 153 LINE",
"206 427 LINE",
"421 427 LINE"
);
}
);
width = 451;
}
);
unicode = 0074;
},
{
color = 3;
glyphname = u;
lastChange = "2018-06-21 19:18:06 +0000";
layers = (
{
layerId = "17A5F7C0-AED1-4270-89BA-BFDC1003B8A5";
paths = (
{
closed = 1;
nodes = (
"562 121 LINE SMOOTH",
"562 105.328 OFFCURVE",
"538.418 82 OFFCURVE",
"522 82 QCURVE SMOOTH",
"174 82 LINE SMOOTH",
"158.328 82 OFFCURVE",
"135 105.328 OFFCURVE",
"135 121 QCURVE SMOOTH",
"135 580 LINE",
"53 580 LINE",
"53 121 LINE SMOOTH",
"53 71 OFFCURVE",
"124 0 OFFCURVE",
"174 0 QCURVE SMOOTH",
"522 0 LINE SMOOTH",
"572.746 0 OFFCURVE",
"644 71 OFFCURVE",
"644 121 QCURVE SMOOTH",
"644 580 LINE",
"562 580 LINE"
);
}
);
width = 695;
},
{
layerId = "D465923C-ABAE-4975-85A4-08C1BC9DA335";
paths = (
{
closed = 1;
nodes = (
"488 153 LINE",
"206 153 LINE",
"206 580 LINE",
"53 580 LINE",
"53 145 LINE SMOOTH",
"53 86.045 OFFCURVE",
"138.299 0 OFFCURVE",
"198 0 QCURVE SMOOTH",
"496 0 LINE SMOOTH",
"555.701 0 OFFCURVE",
"641 86.045 OFFCURVE",
"641 145 QCURVE SMOOTH",
"641 580 LINE",
"488 580 LINE"
);
}
);
width = 695;
}
);
unicode = 0075;
},
{
color = 3;
glyphname = uacute;
lastChange = "2018-06-21 19:18:06 +0000";
layers = (
{
layerId = "17A5F7C0-AED1-4270-89BA-BFDC1003B8A5";
paths = (
{
closed = 1;
nodes = (
"562 121 LINE SMOOTH",
"562 105.328 OFFCURVE",
"538.418 82 OFFCURVE",
"522 82 QCURVE SMOOTH",
"174 82 LINE SMOOTH",
"158.328 82 OFFCURVE",
"135 105.328 OFFCURVE",
"135 121 QCURVE SMOOTH",
"135 580 LINE",
"53 580 LINE",
"53 121 LINE SMOOTH",
"53 71 OFFCURVE",
"124 0 OFFCURVE",
"174 0 QCURVE SMOOTH",
"522 0 LINE SMOOTH",
"572.746 0 OFFCURVE",
"644 71 OFFCURVE",
"644 121 QCURVE SMOOTH",
"644 580 LINE",
"562 580 LINE"
);
},
{
closed = 1;
nodes = (
"353 764 LINE",
"387 903 LINE",
"308 903 LINE",
"273 764 LINE"
);
}
);
width = 695;
},
{
layerId = "D465923C-ABAE-4975-85A4-08C1BC9DA335";
paths = (
{
closed = 1;
nodes = (
"488 153 LINE",
"206 153 LINE",
"206 580 LINE",
"53 580 LINE",
"53 145 LINE SMOOTH",
"53 86.045 OFFCURVE",
"138.299 0 OFFCURVE",
"198 0 QCURVE SMOOTH",
"496 0 LINE SMOOTH",
"555.701 0 OFFCURVE",
"641 86.045 OFFCURVE",
"641 145 QCURVE SMOOTH",
"641 580 LINE",
"488 580 LINE"
);
},
{
closed = 1;
nodes = (
"430 639 LINE",
"481 842 LINE",
"324 842 LINE",
"273 639 LINE"
);
}
);
width = 695;
}
);
unicode = 00FA;
},
{
color = 3;
glyphname = ucircumflex;
lastChange = "2018-06-21 19:18:06 +0000";
layers = (
{
layerId = "17A5F7C0-AED1-4270-89BA-BFDC1003B8A5";
paths = (
{
closed = 1;
nodes = (
"562 121 LINE SMOOTH",
"562 105.328 OFFCURVE",
"538.418 82 OFFCURVE",
"522 82 QCURVE SMOOTH",
"174 82 LINE SMOOTH",
"158.328 82 OFFCURVE",
"135 105.328 OFFCURVE",
"135 121 QCURVE SMOOTH",
"135 580 LINE",
"53 580 LINE",
"53 121 LINE SMOOTH",
"53 71 OFFCURVE",
"124 0 OFFCURVE",
"174 0 QCURVE SMOOTH",
"522 0 LINE SMOOTH",
"572.746 0 OFFCURVE",
"644 71 OFFCURVE",
"644 121 QCURVE SMOOTH",
"644 580 LINE",
"562 580 LINE"
);
},
{
closed = 1;
nodes = (
"326 849 LINE",
"384 764 LINE",
"426 764 LINE",
"355 881 LINE",
"296 881 LINE",
"225 764 LINE",
"266 764 LINE"
);
}
);
width = 695;
},
{
layerId = "D465923C-ABAE-4975-85A4-08C1BC9DA335";
paths = (
{
closed = 1;
nodes = (
"488 153 LINE",
"206 153 LINE",
"206 580 LINE",
"53 580 LINE",
"53 145 LINE SMOOTH",
"53 86.045 OFFCURVE",
"138.299 0 OFFCURVE",
"198 0 QCURVE SMOOTH",
"496 0 LINE SMOOTH",
"555.701 0 OFFCURVE",
"641 86.045 OFFCURVE",
"641 145 QCURVE SMOOTH",
"641 580 LINE",
"488 580 LINE"
);
},
{
closed = 1;
nodes = (
"343 683 LINE",
"371 639 LINE",
"505 639 LINE",
"395 823 LINE",
"295 823 LINE",
"185 639 LINE",
"318 639 LINE"
);
}
);
width = 695;
}
);
unicode = 00FB;
},
{
color = 3;
glyphname = udieresis;
lastChange = "2018-06-21 19:18:06 +0000";
layers = (
{
layerId = "17A5F7C0-AED1-4270-89BA-BFDC1003B8A5";
paths = (
{
closed = 1;
nodes = (
"562 121 LINE SMOOTH",
"562 105.328 OFFCURVE",
"538.418 82 OFFCURVE",
"522 82 QCURVE SMOOTH",
"174 82 LINE SMOOTH",
"158.328 82 OFFCURVE",
"135 105.328 OFFCURVE",
"135 121 QCURVE SMOOTH",
"135 580 LINE",
"53 580 LINE",
"53 121 LINE SMOOTH",
"53 71 OFFCURVE",
"124 0 OFFCURVE",
"174 0 QCURVE SMOOTH",
"522 0 LINE SMOOTH",
"572.746 0 OFFCURVE",
"644 71 OFFCURVE",
"644 121 QCURVE SMOOTH",
"644 580 LINE",
"562 580 LINE"
);
},
{
closed = 1;
nodes = (
"388 845 LINE",
"388 763 LINE",
"470 763 LINE",
"470 845 LINE"
);
},
{
closed = 1;
nodes = (
"208 845 LINE",
"208 763 LINE",
"291 763 LINE",
"291 845 LINE"
);
}
);
width = 695;
},
{
layerId = "D465923C-ABAE-4975-85A4-08C1BC9DA335";
paths = (
{
closed = 1;
nodes = (
"488 153 LINE",
"206 153 LINE",
"206 580 LINE",
"53 580 LINE",
"53 145 LINE SMOOTH",
"53 86.045 OFFCURVE",
"138.299 0 OFFCURVE",
"198 0 QCURVE SMOOTH",
"496 0 LINE SMOOTH",
"555.701 0 OFFCURVE",
"641 86.045 OFFCURVE",
"641 145 QCURVE SMOOTH",
"641 580 LINE",
"488 580 LINE"
);
},
{
closed = 1;
nodes = (
"391 792 LINE",
"391 638 LINE",
"545 638 LINE",
"545 792 LINE"
);
},
{
closed = 1;
nodes = (
"178 792 LINE",
"178 638 LINE",
"331 638 LINE",
"331 792 LINE"
);
}
);
width = 695;
}
);
unicode = 00FC;
},
{
color = 3;
glyphname = ugrave;
lastChange = "2018-06-21 19:18:06 +0000";
layers = (
{
layerId = "17A5F7C0-AED1-4270-89BA-BFDC1003B8A5";
paths = (
{
closed = 1;
nodes = (
"562 121 LINE SMOOTH",
"562 105.328 OFFCURVE",
"538.418 82 OFFCURVE",
"522 82 QCURVE SMOOTH",
"174 82 LINE SMOOTH",
"158.328 82 OFFCURVE",
"135 105.328 OFFCURVE",
"135 121 QCURVE SMOOTH",
"135 580 LINE",
"53 580 LINE",
"53 121 LINE SMOOTH",
"53 71 OFFCURVE",
"124 0 OFFCURVE",
"174 0 QCURVE SMOOTH",
"522 0 LINE SMOOTH",
"572.746 0 OFFCURVE",
"644 71 OFFCURVE",
"644 121 QCURVE SMOOTH",
"644 580 LINE",
"562 580 LINE"
);
},
{
closed = 1;
nodes = (
"273 903 LINE",
"282.702 864.94 OFFCURVE",
"298.298 804.299 OFFCURVE",
"308 764 QCURVE",
"388 764 LINE",
"354 903 LINE"
);
}
);
width = 695;
},
{
layerId = "D465923C-ABAE-4975-85A4-08C1BC9DA335";
paths = (
{
closed = 1;
nodes = (
"488 153 LINE",
"206 153 LINE",
"206 580 LINE",
"53 580 LINE",
"53 145 LINE SMOOTH",
"53 86.045 OFFCURVE",
"138.299 0 OFFCURVE",
"198 0 QCURVE SMOOTH",
"496 0 LINE SMOOTH",
"555.701 0 OFFCURVE",
"641 86.045 OFFCURVE",
"641 145 QCURVE SMOOTH",
"641 580 LINE",
"488 580 LINE"
);
},
{
closed = 1;
nodes = (
"233 842 LINE",
"284 639 LINE",
"441 639 LINE",
"390 842 LINE"
);
}
);
width = 695;
}
);
unicode = 00F9;
},
{
color = 3;
glyphname = v;
lastChange = "2018-06-21 19:18:06 +0000";
layers = (
{
layerId = "17A5F7C0-AED1-4270-89BA-BFDC1003B8A5";
paths = (
{
closed = 1;
nodes = (
"389 80 LINE",
"117 580 LINE",
"21 580 LINE",
"100.104 435.224 OFFCURVE",
"261.896 145.522 OFFCURVE",
"341 0 QCURVE",
"436 0 LINE",
"757 580 LINE",
"661 580 LINE"
);
}
);
width = 790;
},
{
layerId = "D465923C-ABAE-4975-85A4-08C1BC9DA335";
paths = (
{
closed = 1;
nodes = (
"406 195 LINE",
"197 580 LINE",
"21 580 LINE",
"340 0 LINE",
"471 0 LINE",
"791 580 LINE",
"615 580 LINE"
);
}
);
width = 790;
}
);
unicode = 0076;
},
{
color = 3;
glyphname = w;
lastChange = "2018-06-21 19:18:06 +0000";
layers = (
{
layerId = "17A5F7C0-AED1-4270-89BA-BFDC1003B8A5";
paths = (
{
closed = 1;
nodes = (
"793 149 LINE",
"594 580 LINE",
"486 580 LINE",
"299 148 LINE",
"123 580 LINE",
"35 580 LINE",
"92.463 433.731 OFFCURVE",
"204.791 147.015 OFFCURVE",
"263 0 QCURVE",
"335 0 LINE",
"540 479 LINE",
"756 0 LINE",
"827 0 LINE",
"1046 580 LINE",
"957 580 LINE"
);
}
);
width = 1071;
},
{
layerId = "D465923C-ABAE-4975-85A4-08C1BC9DA335";
paths = (
{
closed = 1;
nodes = (
"830.134 507.612 OFFCURVE",
"770.104 349.627 OFFCURVE",
"741 275 QCURVE",
"601 580 LINE",
"453 580 LINE",
"433.597 532.985 OFFCURVE",
"385.896 427.507 OFFCURVE",
"365 379 QCURVE SMOOTH",
"322 279 LINE",
"197 580 LINE",
"35 580 LINE",
"263 0 LINE",
"378 0 LINE",
"528 346 LINE",
"685 0 LINE",
"801 0 LINE",
"1019 580 LINE",
"857 580 LINE"
);
}
);
width = 1053;
}
);
unicode = 0077;
},
{
color = 3;
glyphname = x;
lastChange = "2018-06-21 19:18:06 +0000";
layers = (
{
layerId = "17A5F7C0-AED1-4270-89BA-BFDC1003B8A5";
paths = (
{
closed = 1;
nodes = (
"487.716 530 OFFCURVE",
"383.791 409.254 OFFCURVE",
"342 360 QCURVE",
"154 580 LINE",
"46 580 LINE",
"288 295 LINE",
"46 0 LINE",
"154 0 LINE",
"198.03 53.731 OFFCURVE",
"298.716 179.015 OFFCURVE",
"342 232 QCURVE",
"531 0 LINE",
"639 0 LINE",
"396 295 LINE",
"638 580 LINE",
"531 580 LINE"
);
}
);
width = 692;
},
{
layerId = "D465923C-ABAE-4975-85A4-08C1BC9DA335";
paths = (
{
closed = 1;
nodes = (
"453.164 540.448 OFFCURVE",
"379.328 452.298 OFFCURVE",
"345 412 QCURVE",
"203 580 LINE",
"46 580 LINE",
"46 530 LINE",
"246 295 LINE",
"46 50 LINE",
"46 0 LINE",
"203 0 LINE",
"345 174 LINE",
"487 0 LINE",
"644 0 LINE",
"644 50 LINE",
"554 161 LINE SMOOTH",
"527.134 193.836 OFFCURVE",
"470.866 261.418 OFFCURVE",
"444 295 QCURVE",
"644 530 LINE",
"644 580 LINE",
"486 580 LINE"
);
}
);
width = 692;
}
);
unicode = 0078;
},
{
color = 3;
glyphname = y;
lastChange = "2018-06-21 19:18:06 +0000";
layers = (
{
layerId = "17A5F7C0-AED1-4270-89BA-BFDC1003B8A5";
paths = (
{
closed = 1;
nodes = (
"550 578 LINE",
"550 121 LINE SMOOTH",
"550 105.328 OFFCURVE",
"526.672 82 OFFCURVE",
"511 82 QCURVE SMOOTH",
"163 82 LINE SMOOTH",
"147.328 82 OFFCURVE",
"124 105.328 OFFCURVE",
"124 121 QCURVE SMOOTH",
"124 578 LINE",
"42 578 LINE",
"42 121 LINE SMOOTH",
"42 71 OFFCURVE",
"113 0 OFFCURVE",
"163 0 QCURVE SMOOTH",
"550 0 LINE",
"550 -108 LINE SMOOTH",
"550 -123.672 OFFCURVE",
"526.672 -147 OFFCURVE",
"511 -147 QCURVE SMOOTH",
"149 -147 LINE",
"149 -230 LINE",
"511 -230 LINE SMOOTH",
"561.746 -230 OFFCURVE",
"632 -158.746 OFFCURVE",
"632 -108 QCURVE SMOOTH",
"632 578 LINE"
);
}
);
width = 685;
},
{
layerId = "D465923C-ABAE-4975-85A4-08C1BC9DA335";
paths = (
{
closed = 1;
nodes = (
"478 578 LINE",
"478 153 LINE",
"195 153 LINE",
"195 578 LINE",
"42 578 LINE",
"42 145 LINE SMOOTH",
"42 86.045 OFFCURVE",
"128.299 0 OFFCURVE",
"188 0 QCURVE SMOOTH",
"478 0 LINE",
"478 -54 LINE",
"134 -54 LINE",
"134 -208 LINE",
"486 -208 LINE SMOOTH",
"545.701 -208 OFFCURVE",
"631 -122.701 OFFCURVE",
"631 -63 QCURVE SMOOTH",
"631 578 LINE"
);
}
);
width = 685;
}
);
unicode = 0079;
},
{
color = 3;
glyphname = yacute;
lastChange = "2018-06-21 19:18:06 +0000";
layers = (
{
layerId = "17A5F7C0-AED1-4270-89BA-BFDC1003B8A5";
paths = (
{
closed = 1;
nodes = (
"550 578 LINE",
"550 121 LINE SMOOTH",
"550 105.328 OFFCURVE",
"526.672 82 OFFCURVE",
"511 82 QCURVE SMOOTH",
"163 82 LINE SMOOTH",
"147.328 82 OFFCURVE",
"124 105.328 OFFCURVE",
"124 121 QCURVE SMOOTH",
"124 578 LINE",
"42 578 LINE",
"42 121 LINE SMOOTH",
"42 71 OFFCURVE",
"113 0 OFFCURVE",
"163 0 QCURVE SMOOTH",
"550 0 LINE",
"550 -108 LINE SMOOTH",
"550 -123.672 OFFCURVE",
"526.672 -147 OFFCURVE",
"511 -147 QCURVE SMOOTH",
"149 -147 LINE",
"149 -230 LINE",
"511 -230 LINE SMOOTH",
"561.746 -230 OFFCURVE",
"632 -158.746 OFFCURVE",
"632 -108 QCURVE SMOOTH",
"632 578 LINE"
);
},
{
closed = 1;
nodes = (
"350 764 LINE",
"384 903 LINE",
"305 903 LINE",
"270 764 LINE"
);
}
);
width = 688;
},
{
layerId = "D465923C-ABAE-4975-85A4-08C1BC9DA335";
paths = (
{
closed = 1;
nodes = (
"478 578 LINE",
"478 153 LINE",
"195 153 LINE",
"195 578 LINE",
"42 578 LINE",
"42 145 LINE SMOOTH",
"42 86.045 OFFCURVE",
"128.299 0 OFFCURVE",
"188 0 QCURVE SMOOTH",
"478 0 LINE",
"478 -54 LINE",
"134 -54 LINE",
"134 -208 LINE",
"486 -208 LINE SMOOTH",
"545.701 -208 OFFCURVE",
"631 -122.701 OFFCURVE",
"631 -63 QCURVE SMOOTH",
"631 578 LINE"
);
},
{
closed = 1;
nodes = (
"427 639 LINE",
"478 842 LINE",
"321 842 LINE",
"270 639 LINE"
);
}
);
width = 688;
}
);
unicode = 00FD;
},
{
color = 3;
glyphname = ydieresis;
lastChange = "2018-06-21 19:18:06 +0000";
layers = (
{
layerId = "17A5F7C0-AED1-4270-89BA-BFDC1003B8A5";
paths = (
{
closed = 1;
nodes = (
"550 578 LINE",
"550 121 LINE SMOOTH",
"550 105.328 OFFCURVE",
"526.672 82 OFFCURVE",
"511 82 QCURVE SMOOTH",
"163 82 LINE SMOOTH",
"147.328 82 OFFCURVE",
"124 105.328 OFFCURVE",
"124 121 QCURVE SMOOTH",
"124 578 LINE",
"42 578 LINE",
"42 121 LINE SMOOTH",
"42 71 OFFCURVE",
"113 0 OFFCURVE",
"163 0 QCURVE SMOOTH",
"550 0 LINE",
"550 -108 LINE SMOOTH",
"550 -123.672 OFFCURVE",
"526.672 -147 OFFCURVE",
"511 -147 QCURVE SMOOTH",
"149 -147 LINE",
"149 -230 LINE",
"511 -230 LINE SMOOTH",
"561.746 -230 OFFCURVE",
"632 -158.746 OFFCURVE",
"632 -108 QCURVE SMOOTH",
"632 578 LINE"
);
},
{
closed = 1;
nodes = (
"385 847 LINE",
"385 765 LINE",
"467 765 LINE",
"467 847 LINE"
);
},
{
closed = 1;
nodes = (
"205 847 LINE",
"205 765 LINE",
"288 765 LINE",
"288 847 LINE"
);
}
);
width = 688;
},
{
layerId = "D465923C-ABAE-4975-85A4-08C1BC9DA335";
paths = (
{
closed = 1;
nodes = (
"478 578 LINE",
"478 153 LINE",
"195 153 LINE",
"195 578 LINE",
"42 578 LINE",
"42 145 LINE SMOOTH",
"42 86.045 OFFCURVE",
"128.299 0 OFFCURVE",
"188 0 QCURVE SMOOTH",
"478 0 LINE",
"478 -54 LINE",
"134 -54 LINE",
"134 -208 LINE",
"486 -208 LINE SMOOTH",
"545.701 -208 OFFCURVE",
"631 -122.701 OFFCURVE",
"631 -63 QCURVE SMOOTH",
"631 578 LINE"
);
},
{
closed = 1;
nodes = (
"388 794 LINE",
"388 640 LINE",
"542 640 LINE",
"542 794 LINE"
);
},
{
closed = 1;
nodes = (
"175 794 LINE",
"175 640 LINE",
"328 640 LINE",
"328 794 LINE"
);
}
);
width = 688;
}
);
unicode = 00FF;
},
{
color = 3;
glyphname = z;
lastChange = "2018-06-21 19:18:06 +0000";
layers = (
{
layerId = "17A5F7C0-AED1-4270-89BA-BFDC1003B8A5";
paths = (
{
closed = 1;
nodes = (
"555 498 LINE",
"54 112 LINE",
"54 0 LINE",
"645 0 LINE",
"645 82 LINE",
"144 82 LINE",
"645 468 LINE",
"645 580 LINE",
"54 580 LINE",
"54 498 LINE"
);
}
);
width = 698;
},
{
layerId = "D465923C-ABAE-4975-85A4-08C1BC9DA335";
paths = (
{
closed = 1;
nodes = (
"403 427 LINE",
"54 157 LINE",
"54 0 LINE",
"642 0 LINE",
"642 153 LINE",
"293 153 LINE",
"642 423 LINE",
"642 580 LINE",
"54 580 LINE",
"54 427 LINE"
);
}
);
width = 698;
}
);
unicode = 007A;
},
{
color = 3;
glyphname = zcaron;
lastChange = "2018-06-21 19:18:06 +0000";
layers = (
{
layerId = "17A5F7C0-AED1-4270-89BA-BFDC1003B8A5";
paths = (
{
closed = 1;
nodes = (
"555 498 LINE",
"54 112 LINE",
"54 0 LINE",
"645 0 LINE",
"645 82 LINE",
"144 82 LINE",
"645 468 LINE",
"645 580 LINE",
"54 580 LINE",
"54 498 LINE"
);
},
{
closed = 1;
nodes = (
"299 766 LINE",
"358 766 LINE",
"428 883 LINE",
"387 883 LINE",
"329 798 LINE",
"269 883 LINE",
"227 883 LINE"
);
}
);
width = 698;
},
{
layerId = "D465923C-ABAE-4975-85A4-08C1BC9DA335";
paths = (
{
closed = 1;
nodes = (
"403 427 LINE",
"54 157 LINE",
"54 0 LINE",
"642 0 LINE",
"642 153 LINE",
"293 153 LINE",
"642 423 LINE",
"642 580 LINE",
"54 580 LINE",
"54 427 LINE"
);
},
{
closed = 1;
nodes = (
"307 651 LINE",
"407 651 LINE",
"517 835 LINE",
"382 835 LINE",
"355 791 LINE",
"328 835 LINE",
"197 835 LINE"
);
}
);
width = 698;
}
);
unicode = 017E;
},
{
color = 3;
glyphname = a.alt;
lastChange = "2018-06-21 19:18:06 +0000";
layers = (
{
layerId = "17A5F7C0-AED1-4270-89BA-BFDC1003B8A5";
paths = (
{
closed = 1;
nodes = (
"122 580 OFFCURVE",
"51 509 OFFCURVE",
"51 459 QCURVE SMOOTH",
"51 121 LINE SMOOTH",
"51 71 OFFCURVE",
"122 0 OFFCURVE",
"172 0 QCURVE SMOOTH",
"642 0 LINE",
"642 459 LINE SMOOTH",
"642 509 OFFCURVE",
"570.746 580 OFFCURVE",
"520 580 QCURVE SMOOTH",
"172 580 LINE SMOOTH"
);
},
{
closed = 1;
nodes = (
"156.328 82 OFFCURVE",
"133 105.328 OFFCURVE",
"133 121 QCURVE SMOOTH",
"133 459 LINE SMOOTH",
"133 474.672 OFFCURVE",
"156.328 498 OFFCURVE",
"172 498 QCURVE SMOOTH",
"520 498 LINE SMOOTH",
"536.418 498 OFFCURVE",
"559 474.672 OFFCURVE",
"559 459 QCURVE SMOOTH",
"559 82 LINE",
"172 82 LINE SMOOTH"
);
}
);
width = 693;
},
{
layerId = "D465923C-ABAE-4975-85A4-08C1BC9DA335";
paths = (
{
closed = 1;
nodes = (
"137.045 580 OFFCURVE",
"51 493.955 OFFCURVE",
"51 435 QCURVE SMOOTH",
"51 145 LINE SMOOTH",
"51 86.045 OFFCURVE",
"137.045 0 OFFCURVE",
"196 0 QCURVE SMOOTH",
"639 0 LINE",
"639 435 LINE SMOOTH",
"639 493.955 OFFCURVE",
"553.701 580 OFFCURVE",
"494 580 QCURVE SMOOTH",
"196 580 LINE SMOOTH"
);
},
{
closed = 1;
nodes = (
"204 427 LINE",
"486 427 LINE",
"486 153 LINE",
"204 153 LINE"
);
}
);
width = 693;
}
);
},
{
color = 3;
glyphname = k.alt;
lastChange = "2018-06-21 19:18:06 +0000";
layers = (
{
layerId = "17A5F7C0-AED1-4270-89BA-BFDC1003B8A5";
paths = (
{
closed = 1;
nodes = (
"563 580 LINE",
"563 370 LINE SMOOTH",
"563 354.328 OFFCURVE",
"539.672 331 OFFCURVE",
"524 331 QCURVE SMOOTH",
"136 331 LINE",
"136 770 LINE",
"54 770 LINE",
"54 0 LINE",
"136 0 LINE",
"136 249 LINE",
"524 249 LINE SMOOTH",
"539.672 249 OFFCURVE",
"563 225.672 OFFCURVE",
"563 210 QCURVE SMOOTH",
"563 0 LINE",
"645 0 LINE",
"645 210 LINE SMOOTH",
"645 229.403 OFFCURVE",
"629.433 271.343 OFFCURVE",
"616 290 QCURVE",
"629.433 308.657 OFFCURVE",
"645 350.597 OFFCURVE",
"645 370 QCURVE SMOOTH",
"645 580 LINE"
);
}
);
width = 669;
},
{
layerId = "D465923C-ABAE-4975-85A4-08C1BC9DA335";
paths = (
{
closed = 1;
nodes = (
"489 580 LINE",
"489 367 LINE",
"207 367 LINE",
"207 752 LINE",
"54 752 LINE",
"54 0 LINE",
"207 0 LINE",
"207 213 LINE",
"489 213 LINE",
"489 0 LINE",
"642 0 LINE",
"642 222 LINE SMOOTH",
"642 238.418 OFFCURVE",
"623.209 274.328 OFFCURVE",
"615 290 QCURVE",
"623.209 305.672 OFFCURVE",
"642 340.836 OFFCURVE",
"642 358 QCURVE SMOOTH",
"642 580 LINE"
);
}
);
width = 669;
}
);
},
{
color = 3;
glyphname = v.alt;
lastChange = "2018-06-21 19:18:06 +0000";
layers = (
{
layerId = "17A5F7C0-AED1-4270-89BA-BFDC1003B8A5";
paths = (
{
closed = 1;
nodes = (
"562 82 LINE",
"174 82 LINE SMOOTH",
"158.328 82 OFFCURVE",
"135 105.328 OFFCURVE",
"135 121 QCURVE SMOOTH",
"135 580 LINE",
"53 580 LINE",
"53 121 LINE SMOOTH",
"53 71 OFFCURVE",
"124 0 OFFCURVE",
"174 0 QCURVE SMOOTH",
"644 0 LINE",
"644 580 LINE",
"562 580 LINE"
);
}
);
width = 697;
},
{
layerId = "D465923C-ABAE-4975-85A4-08C1BC9DA335";
paths = (
{
closed = 1;
nodes = (
"488 153 LINE",
"206 153 LINE",
"206 580 LINE",
"53 580 LINE",
"53 145 LINE SMOOTH",
"53 86.045 OFFCURVE",
"138.299 0 OFFCURVE",
"198 0 QCURVE SMOOTH",
"641 0 LINE",
"641 580 LINE",
"488 580 LINE"
);
}
);
width = 697;
}
);
},
{
color = 3;
glyphname = w.alt;
lastChange = "2018-06-21 19:18:06 +0000";
layers = (
{
layerId = "17A5F7C0-AED1-4270-89BA-BFDC1003B8A5";
paths = (
{
closed = 1;
nodes = (
"940 580 LINE",
"858 580 LINE",
"858 121 LINE SMOOTH",
"858 105.328 OFFCURVE",
"834.672 82 OFFCURVE",
"819 82 QCURVE SMOOTH",
"576 82 LINE SMOOTH",
"560.328 82 OFFCURVE",
"537 105.328 OFFCURVE",
"537 121 QCURVE SMOOTH",
"537 580 LINE",
"455 580 LINE",
"455 121 LINE SMOOTH",
"455 105.328 OFFCURVE",
"431.672 82 OFFCURVE",
"416 82 QCURVE SMOOTH",
"175 82 LINE SMOOTH",
"158.582 82 OFFCURVE",
"135 105.328 OFFCURVE",
"135 121 QCURVE SMOOTH",
"135 580 LINE",
"53 580 LINE",
"53 121 LINE SMOOTH",
"53 71 OFFCURVE",
"124.254 0 OFFCURVE",
"175 0 QCURVE SMOOTH",
"940 0 LINE"
);
}
);
width = 978;
},
{
layerId = "D465923C-ABAE-4975-85A4-08C1BC9DA335";
paths = (
{
closed = 1;
nodes = (
"896 580 LINE",
"743 580 LINE",
"743 153 LINE",
"551 153 LINE",
"551 580 LINE",
"397 580 LINE",
"397 153 LINE",
"205 153 LINE",
"205 580 LINE",
"53 580 LINE",
"53 145 LINE SMOOTH",
"53 86.045 OFFCURVE",
"139.299 0 OFFCURVE",
"199 0 QCURVE SMOOTH",
"896 0 LINE"
);
}
);
width = 978;
}
);
},
{
color = 3;
glyphname = x.alt;
lastChange = "2018-06-21 19:18:06 +0000";
layers = (
{
layerId = "17A5F7C0-AED1-4270-89BA-BFDC1003B8A5";
paths = (
{
closed = 1;
nodes = (
"563 580 LINE",
"563 370 LINE SMOOTH",
"563 354.328 OFFCURVE",
"539.672 331 OFFCURVE",
"524 331 QCURVE SMOOTH",
"176 331 LINE SMOOTH",
"159.582 331 OFFCURVE",
"136 354.328 OFFCURVE",
"136 370 QCURVE SMOOTH",
"136 580 LINE",
"54 580 LINE",
"54 370 LINE SMOOTH",
"54 350.597 OFFCURVE",
"69.567 308.657 OFFCURVE",
"83 290 QCURVE",
"69.567 271.343 OFFCURVE",
"54 229.403 OFFCURVE",
"54 210 QCURVE SMOOTH",
"54 0 LINE",
"136 0 LINE",
"136 210 LINE SMOOTH",
"136 225.672 OFFCURVE",
"159.582 249 OFFCURVE",
"176 249 QCURVE SMOOTH",
"524 249 LINE SMOOTH",
"539.672 249 OFFCURVE",
"563 225.672 OFFCURVE",
"563 210 QCURVE SMOOTH",
"563 0 LINE",
"645 0 LINE",
"645 210 LINE SMOOTH",
"645 229.403 OFFCURVE",
"629.433 271.343 OFFCURVE",
"616 290 QCURVE",
"629.433 308.657 OFFCURVE",
"645 350.597 OFFCURVE",
"645 370 QCURVE SMOOTH",
"645 580 LINE"
);
}
);
width = 698;
},
{
layerId = "D465923C-ABAE-4975-85A4-08C1BC9DA335";
paths = (
{
closed = 1;
nodes = (
"489 580 LINE",
"489 367 LINE",
"207 367 LINE",
"207 580 LINE",
"54 580 LINE",
"54 358 LINE SMOOTH",
"54 340.836 OFFCURVE",
"72.791 305.672 OFFCURVE",
"81 290 QCURVE",
"72.791 274.328 OFFCURVE",
"54 238.418 OFFCURVE",
"54 222 QCURVE SMOOTH",
"54 0 LINE",
"207 0 LINE",
"207 213 LINE",
"489 213 LINE",
"489 0 LINE",
"642 0 LINE",
"642 222 LINE SMOOTH",
"642 238.418 OFFCURVE",
"623.209 274.328 OFFCURVE",
"615 290 QCURVE",
"623.209 305.672 OFFCURVE",
"642 340.836 OFFCURVE",
"642 358 QCURVE SMOOTH",
"642 580 LINE"
);
}
);
width = 698;
}
);
},
{
color = 3;
glyphname = z.alt;
lastChange = "2018-06-21 19:18:06 +0000";
layers = (
{
layerId = "17A5F7C0-AED1-4270-89BA-BFDC1003B8A5";
paths = (
{
closed = 1;
nodes = (
"570.746 249 OFFCURVE",
"642 320 OFFCURVE",
"642 370 QCURVE SMOOTH",
"642 459 LINE SMOOTH",
"642 509 OFFCURVE",
"570.746 580 OFFCURVE",
"520 580 QCURVE SMOOTH",
"51 580 LINE",
"51 498 LINE",
"520 498 LINE SMOOTH",
"536.418 498 OFFCURVE",
"559 474.672 OFFCURVE",
"559 459 QCURVE SMOOTH",
"559 370 LINE SMOOTH",
"559 354.328 OFFCURVE",
"536.418 331 OFFCURVE",
"520 331 QCURVE SMOOTH",
"172 331 LINE SMOOTH",
"122 331 OFFCURVE",
"51 260 OFFCURVE",
"51 210 QCURVE SMOOTH",
"51 121 LINE SMOOTH",
"51 71 OFFCURVE",
"122 0 OFFCURVE",
"172 0 QCURVE SMOOTH",
"642 0 LINE",
"642 82 LINE",
"172 82 LINE SMOOTH",
"156.328 82 OFFCURVE",
"133 105.328 OFFCURVE",
"133 121 QCURVE SMOOTH",
"133 210 LINE SMOOTH",
"133 225.672 OFFCURVE",
"156.328 249 OFFCURVE",
"172 249 QCURVE SMOOTH",
"520 249 LINE SMOOTH"
);
}
);
width = 692;
},
{
layerId = "D465923C-ABAE-4975-85A4-08C1BC9DA335";
paths = (
{
closed = 1;
nodes = (
"553.701 213 OFFCURVE",
"639 299.045 OFFCURVE",
"639 358 QCURVE SMOOTH",
"639 435 LINE SMOOTH",
"639 493.955 OFFCURVE",
"553.701 580 OFFCURVE",
"494 580 QCURVE SMOOTH",
"51 580 LINE",
"51 427 LINE",
"486 427 LINE",
"486 367 LINE",
"196 367 LINE SMOOTH",
"137.045 367 OFFCURVE",
"51 280.955 OFFCURVE",
"51 222 QCURVE SMOOTH",
"51 145 LINE SMOOTH",
"51 86.045 OFFCURVE",
"137.045 0 OFFCURVE",
"196 0 QCURVE SMOOTH",
"639 0 LINE",
"639 153 LINE",
"204 153 LINE",
"204 213 LINE",
"494 213 LINE SMOOTH"
);
}
);
width = 692;
}
);
},
{
color = 3;
glyphname = a.sc;
lastChange = "2018-06-21 19:18:06 +0000";
layers = (
{
layerId = "17A5F7C0-AED1-4270-89BA-BFDC1003B8A5";
paths = (
{
closed = 1;
nodes = (
"124 580 OFFCURVE",
"53 509 OFFCURVE",
"53 459 QCURVE SMOOTH",
"53 0 LINE",
"135 0 LINE",
"135 160 LINE",
"593 160 LINE",
"593 0 LINE",
"675 0 LINE",
"675 459 LINE SMOOTH",
"675 509 OFFCURVE",
"604 580 OFFCURVE",
"554 580 QCURVE SMOOTH",
"174 580 LINE SMOOTH"
);
},
{
closed = 1;
nodes = (
"135 459 LINE SMOOTH",
"135 474.672 OFFCURVE",
"158.328 498 OFFCURVE",
"174 498 QCURVE SMOOTH",
"554 498 LINE SMOOTH",
"569.672 498 OFFCURVE",
"593 474.672 OFFCURVE",
"593 459 QCURVE SMOOTH",
"593 243 LINE",
"135 243 LINE"
);
}
);
width = 725;
},
{
layerId = "D465923C-ABAE-4975-85A4-08C1BC9DA335";
paths = (
{
closed = 1;
nodes = (
"139.299 580 OFFCURVE",
"53 493.955 OFFCURVE",
"53 435 QCURVE SMOOTH",
"53 0 LINE",
"206 0 LINE",
"206 138 LINE",
"516 138 LINE",
"516 0 LINE",
"669 0 LINE",
"669 435 LINE SMOOTH",
"669 493.955 OFFCURVE",
"583.701 580 OFFCURVE",
"524 580 QCURVE SMOOTH",
"199 580 LINE SMOOTH"
);
},
{
closed = 1;
nodes = (
"206 427 LINE",
"516 427 LINE",
"516 291 LINE",
"206 291 LINE"
);
}
);
width = 725;
}
);
},
{
color = 3;
glyphname = b.sc;
lastChange = "2018-06-21 19:18:06 +0000";
layers = (
{
layerId = "17A5F7C0-AED1-4270-89BA-BFDC1003B8A5";
paths = (
{
closed = 1;
nodes = (
"616.224 325.94 OFFCURVE",
"624 352.821 OFFCURVE",
"624 367 QCURVE SMOOTH",
"624 460 LINE SMOOTH",
"624 510 OFFCURVE",
"552.746 581 OFFCURVE",
"502 581 QCURVE SMOOTH",
"54 581 LINE",
"54 0 LINE",
"534 0 LINE SMOOTH",
"584 0 OFFCURVE",
"655 71 OFFCURVE",
"655 121 QCURVE SMOOTH",
"655 207 LINE SMOOTH",
"655 232.373 OFFCURVE",
"632.91 279.582 OFFCURVE",
"615 296 QCURVE",
"611 314 LINE"
);
},
{
closed = 1;
nodes = (
"517.672 499 OFFCURVE",
"541 475.672 OFFCURVE",
"541 460 QCURVE SMOOTH",
"541 367 LINE SMOOTH",
"541 351.328 OFFCURVE",
"517.672 328 OFFCURVE",
"502 328 QCURVE SMOOTH",
"175 328 LINE SMOOTH",
"159.328 328 OFFCURVE",
"136 351.328 OFFCURVE",
"136 367 QCURVE SMOOTH",
"136 460 LINE SMOOTH",
"136 475.672 OFFCURVE",
"159.328 499 OFFCURVE",
"175 499 QCURVE SMOOTH",
"502 499 LINE SMOOTH"
);
},
{
closed = 1;
nodes = (
"573 105.328 OFFCURVE",
"549.672 82 OFFCURVE",
"534 82 QCURVE SMOOTH",
"175 82 LINE SMOOTH",
"159.328 82 OFFCURVE",
"136 105.328 OFFCURVE",
"136 121 QCURVE SMOOTH",
"136 207 LINE SMOOTH",
"136 222.672 OFFCURVE",
"159.328 246 OFFCURVE",
"175 246 QCURVE SMOOTH",
"534 246 LINE SMOOTH",
"549.672 246 OFFCURVE",
"573 222.672 OFFCURVE",
"573 207 QCURVE SMOOTH",
"573 121 LINE SMOOTH"
);
}
);
width = 700;
},
{
layerId = "D465923C-ABAE-4975-85A4-08C1BC9DA335";
paths = (
{
closed = 1;
nodes = (
"624 494.702 OFFCURVE",
"538.701 581 OFFCURVE",
"479 581 QCURVE SMOOTH",
"54 581 LINE",
"54 0 LINE",
"507 0 LINE SMOOTH",
"565.955 0 OFFCURVE",
"652 86.045 OFFCURVE",
"652 145 QCURVE SMOOTH",
"652 219 LINE SMOOTH",
"652 245.119 OFFCURVE",
"634.672 292.343 OFFCURVE",
"619 311 QCURVE",
"621.985 321.448 OFFCURVE",
"624 343.313 OFFCURVE",
"624 356 QCURVE SMOOTH",
"624 435 LINE SMOOTH"
);
},
{
closed = 1;
nodes = (
"499 221 LINE",
"499 153 LINE",
"207 153 LINE",
"207 221 LINE"
);
},
{
closed = 1;
nodes = (
"471 438 LINE",
"471 364 LINE",
"207 364 LINE",
"207 438 LINE"
);
}
);
width = 700;
}
);
},
{
color = 3;
glyphname = c.sc;
lastChange = "2018-06-21 19:18:06 +0000";
layers = (
{
layerId = "17A5F7C0-AED1-4270-89BA-BFDC1003B8A5";
paths = (
{
closed = 1;
nodes = (
"640 581 LINE",
"172 581 LINE SMOOTH",
"122 581 OFFCURVE",
"51 510 OFFCURVE",
"51 460 QCURVE SMOOTH",
"51 121 LINE SMOOTH",
"51 71 OFFCURVE",
"122 0 OFFCURVE",
"172 0 QCURVE SMOOTH",
"640 0 LINE",
"640 82 LINE",
"172 82 LINE SMOOTH",
"156.328 82 OFFCURVE",
"133 105.328 OFFCURVE",
"133 121 QCURVE SMOOTH",
"133 460 LINE SMOOTH",
"133 475.672 OFFCURVE",
"156.328 499 OFFCURVE",
"172 499 QCURVE SMOOTH",
"640 499 LINE"
);
}
);
width = 693;
},
{
layerId = "D465923C-ABAE-4975-85A4-08C1BC9DA335";
paths = (
{
closed = 1;
nodes = (
"638 581 LINE",
"196 581 LINE SMOOTH",
"136.299 581 OFFCURVE",
"51 494.702 OFFCURVE",
"51 435 QCURVE SMOOTH",
"51 145 LINE SMOOTH",
"51 86.045 OFFCURVE",
"136.299 0 OFFCURVE",
"196 0 QCURVE SMOOTH",
"638 0 LINE",
"638 153 LINE",
"204 153 LINE",
"204 428 LINE",
"638 428 LINE"
);
}
);
width = 693;
}
);
},
{
color = 3;
glyphname = d.sc;
lastChange = "2018-06-21 19:18:06 +0000";
layers = (
{
layerId = "17A5F7C0-AED1-4270-89BA-BFDC1003B8A5";
paths = (
{
closed = 1;
nodes = (
"54 0 LINE",
"534 0 LINE SMOOTH",
"584 0 OFFCURVE",
"655 71 OFFCURVE",
"655 121 QCURVE SMOOTH",
"655 460 LINE SMOOTH",
"655 510 OFFCURVE",
"584 581 OFFCURVE",
"534 581 QCURVE SMOOTH",
"54 581 LINE"
);
},
{
closed = 1;
nodes = (
"573 105.328 OFFCURVE",
"549.672 82 OFFCURVE",
"534 82 QCURVE SMOOTH",
"175 82 LINE SMOOTH",
"159.328 82 OFFCURVE",
"136 105.328 OFFCURVE",
"136 121 QCURVE SMOOTH",
"136 460 LINE SMOOTH",
"136 475.672 OFFCURVE",
"159.328 499 OFFCURVE",
"175 499 QCURVE SMOOTH",
"534 499 LINE SMOOTH",
"549.672 499 OFFCURVE",
"573 475.672 OFFCURVE",
"573 460 QCURVE SMOOTH",
"573 121 LINE SMOOTH"
);
}
);
width = 705;
},
{
layerId = "D465923C-ABAE-4975-85A4-08C1BC9DA335";
paths = (
{
closed = 1;
nodes = (
"54 0 LINE",
"507 0 LINE SMOOTH",
"565.955 0 OFFCURVE",
"652 86.045 OFFCURVE",
"652 145 QCURVE SMOOTH",
"652 435 LINE SMOOTH",
"652 494.702 OFFCURVE",
"565.955 581 OFFCURVE",
"507 581 QCURVE SMOOTH",
"54 581 LINE"
);
},
{
closed = 1;
nodes = (
"499 428 LINE",
"499 153 LINE",
"207 153 LINE",
"207 428 LINE"
);
}
);
width = 705;
}
);
},
{
color = 3;
glyphname = e.sc;
lastChange = "2018-06-21 19:18:06 +0000";
layers = (
{
layerId = "17A5F7C0-AED1-4270-89BA-BFDC1003B8A5";
paths = (
{
closed = 1;
nodes = (
"54 581 LINE",
"54 0 LINE",
"581 0 LINE",
"581 82 LINE",
"136 82 LINE",
"136 249 LINE",
"467 249 LINE",
"467 331 LINE",
"136 331 LINE",
"136 499 LINE",
"581 499 LINE",
"581 581 LINE"
);
}
);
width = 638;
},
{
layerId = "D465923C-ABAE-4975-85A4-08C1BC9DA335";
paths = (
{
closed = 1;
nodes = (
"54 581 LINE",
"54 0 LINE",
"589 0 LINE",
"589 153 LINE",
"207 153 LINE",
"207 213 LINE",
"492 213 LINE",
"492 367 LINE",
"207 367 LINE",
"207 428 LINE",
"589 428 LINE",
"589 581 LINE"
);
}
);
width = 638;
}
);
},
{
color = 3;
glyphname = f.sc;
lastChange = "2018-06-21 19:18:06 +0000";
layers = (
{
layerId = "17A5F7C0-AED1-4270-89BA-BFDC1003B8A5";
paths = (
{
closed = 1;
nodes = (
"54 0 LINE",
"136 0 LINE",
"136 249 LINE",
"467 249 LINE",
"467 331 LINE",
"136 331 LINE",
"136 499 LINE",
"581 499 LINE",
"581 581 LINE",
"54 581 LINE"
);
}
);
width = 591;
},
{
layerId = "D465923C-ABAE-4975-85A4-08C1BC9DA335";
paths = (
{
closed = 1;
nodes = (
"54 0 LINE",
"207 0 LINE",
"207 213 LINE",
"492 213 LINE",
"492 367 LINE",
"207 367 LINE",
"207 428 LINE",
"589 428 LINE",
"589 581 LINE",
"54 581 LINE"
);
}
);
width = 591;
}
);
},
{
color = 3;
glyphname = g.sc;
lastChange = "2018-06-21 19:18:06 +0000";
layers = (
{
layerId = "17A5F7C0-AED1-4270-89BA-BFDC1003B8A5";
paths = (
{
closed = 1;
nodes = (
"642 510 OFFCURVE",
"570.746 581 OFFCURVE",
"520 581 QCURVE SMOOTH",
"172 581 LINE SMOOTH",
"122 581 OFFCURVE",
"51 510 OFFCURVE",
"51 460 QCURVE SMOOTH",
"51 121 LINE SMOOTH",
"51 71 OFFCURVE",
"122 0 OFFCURVE",
"172 0 QCURVE SMOOTH",
"520 0 LINE SMOOTH",
"570.746 0 OFFCURVE",
"642 71 OFFCURVE",
"642 121 QCURVE SMOOTH",
"642 299 LINE",
"380 299 LINE",
"380 217 LINE",
"559 217 LINE",
"559 121 LINE SMOOTH",
"559 105.328 OFFCURVE",
"536.418 82 OFFCURVE",
"520 82 QCURVE SMOOTH",
"172 82 LINE SMOOTH",
"156.328 82 OFFCURVE",
"133 105.328 OFFCURVE",
"133 121 QCURVE SMOOTH",
"133 460 LINE SMOOTH",
"133 475.672 OFFCURVE",
"156.328 499 OFFCURVE",
"172 499 QCURVE SMOOTH",
"520 499 LINE SMOOTH",
"536.418 499 OFFCURVE",
"559 475.672 OFFCURVE",
"559 460 QCURVE SMOOTH",
"559 446 LINE",
"642 446 LINE",
"642 460 LINE SMOOTH"
);
}
);
width = 690;
},
{
layerId = "D465923C-ABAE-4975-85A4-08C1BC9DA335";
paths = (
{
closed = 1;
nodes = (
"639 494.702 OFFCURVE",
"553.701 581 OFFCURVE",
"494 581 QCURVE SMOOTH",
"196 581 LINE SMOOTH",
"137.045 581 OFFCURVE",
"51 494.702 OFFCURVE",
"51 435 QCURVE SMOOTH",
"51 145 LINE SMOOTH",
"51 86.045 OFFCURVE",
"137.045 0 OFFCURVE",
"196 0 QCURVE SMOOTH",
"494 0 LINE SMOOTH",
"553.701 0 OFFCURVE",
"639 86.045 OFFCURVE",
"639 145 QCURVE SMOOTH",
"639 339 LINE",
"342 339 LINE",
"342 196 LINE",
"486 196 LINE",
"486 153 LINE",
"204 153 LINE",
"204 428 LINE",
"486 428 LINE",
"486 402 LINE",
"639 402 LINE",
"639 435 LINE SMOOTH"
);
}
);
width = 690;
}
);
},
{
color = 3;
glyphname = h.sc;
lastChange = "2018-06-21 19:18:06 +0000";
layers = (
{
layerId = "17A5F7C0-AED1-4270-89BA-BFDC1003B8A5";
paths = (
{
closed = 1;
nodes = (
"580 331 LINE",
"136 331 LINE",
"136 580 LINE",
"54 580 LINE",
"54 0 LINE",
"136 0 LINE",
"136 249 LINE",
"580 249 LINE",
"580 0 LINE",
"662 0 LINE",
"662 580 LINE",
"580 580 LINE"
);
}
);
width = 715;
},
{
layerId = "D465923C-ABAE-4975-85A4-08C1BC9DA335";
paths = (
{
closed = 1;
nodes = (
"505 367 LINE",
"207 367 LINE",
"207 580 LINE",
"54 580 LINE",
"54 0 LINE",
"207 0 LINE",
"207 213 LINE",
"505 213 LINE",
"505 0 LINE",
"659 0 LINE",
"659 580 LINE",
"505 580 LINE"
);
}
);
width = 715;
}
);
},
{
color = 3;
glyphname = i.sc;
lastChange = "2018-06-21 19:18:06 +0000";
layers = (
{
layerId = "17A5F7C0-AED1-4270-89BA-BFDC1003B8A5";
paths = (
{
closed = 1;
nodes = (
"136 0 LINE",
"136 580 LINE",
"54 580 LINE",
"54 0 LINE"
);
}
);
width = 214;
},
{
layerId = "D465923C-ABAE-4975-85A4-08C1BC9DA335";
paths = (
{
closed = 1;
nodes = (
"207 0 LINE",
"207 580 LINE",
"54 580 LINE",
"54 0 LINE"
);
}
);
width = 214;
}
);
},
{
color = 3;
glyphname = j.sc;
lastChange = "2018-06-21 19:18:06 +0000";
layers = (
{
layerId = "17A5F7C0-AED1-4270-89BA-BFDC1003B8A5";
paths = (
{
closed = 1;
nodes = (
"524 105.328 OFFCURVE",
"500.672 82 OFFCURVE",
"485 82 QCURVE SMOOTH",
"126 82 LINE SMOOTH",
"110.328 82 OFFCURVE",
"87 105.328 OFFCURVE",
"87 121 QCURVE SMOOTH",
"87 169 LINE",
"5 169 LINE",
"5 121 LINE SMOOTH",
"5 71 OFFCURVE",
"76 0 OFFCURVE",
"126 0 QCURVE SMOOTH",
"485 0 LINE SMOOTH",
"535 0 OFFCURVE",
"606 71 OFFCURVE",
"606 121 QCURVE SMOOTH",
"606 580 LINE",
"524 580 LINE",
"524 121 LINE SMOOTH"
);
}
);
width = 657;
},
{
layerId = "D465923C-ABAE-4975-85A4-08C1BC9DA335";
paths = (
{
closed = 1;
nodes = (
"5 227 LINE",
"5 145 LINE SMOOTH",
"5 86.045 OFFCURVE",
"91.299 0 OFFCURVE",
"151 0 QCURVE SMOOTH",
"458 0 LINE SMOOTH",
"517.701 0 OFFCURVE",
"603 86.045 OFFCURVE",
"603 145 QCURVE SMOOTH",
"603 580 LINE",
"450 580 LINE",
"450 153 LINE",
"158 153 LINE",
"158 227 LINE"
);
}
);
width = 657;
}
);
},
{
color = 3;
glyphname = k.sc;
lastChange = "2018-06-21 19:18:06 +0000";
layers = (
{
layerId = "17A5F7C0-AED1-4270-89BA-BFDC1003B8A5";
paths = (
{
closed = 1;
nodes = (
"296 331 LINE",
"136 331 LINE",
"136 580 LINE",
"54 580 LINE",
"54 0 LINE",
"136 0 LINE",
"136 249 LINE",
"296 249 LINE",
"524 0 LINE",
"631 0 LINE",
"369 290 LINE",
"632 580 LINE",
"524 580 LINE"
);
}
);
width = 682;
},
{
layerId = "D465923C-ABAE-4975-85A4-08C1BC9DA335";
paths = (
{
closed = 1;
nodes = (
"285 367 LINE",
"207 367 LINE",
"207 580 LINE",
"54 580 LINE",
"54 0 LINE",
"207 0 LINE",
"207 213 LINE",
"285 213 LINE",
"482 0 LINE",
"636 0 LINE",
"636 52 LINE",
"420 290 LINE",
"636 528 LINE",
"636 580 LINE",
"482 580 LINE"
);
}
);
width = 682;
}
);
},
{
color = 3;
glyphname = l.sc;
lastChange = "2018-06-21 19:18:06 +0000";
layers = (
{
layerId = "17A5F7C0-AED1-4270-89BA-BFDC1003B8A5";
paths = (
{
closed = 1;
nodes = (
"655 0 LINE",
"655 82 LINE",
"136 82 LINE",
"136 580 LINE",
"54 580 LINE",
"54 0 LINE"
);
}
);
width = 659;
},
{
layerId = "D465923C-ABAE-4975-85A4-08C1BC9DA335";
paths = (
{
closed = 1;
nodes = (
"652 0 LINE",
"652 153 LINE",
"207 153 LINE",
"207 580 LINE",
"54 580 LINE",
"54 0 LINE"
);
}
);
width = 659;
}
);
},
{
color = 3;
glyphname = m.sc;
lastChange = "2018-06-21 19:18:06 +0000";
layers = (
{
layerId = "17A5F7C0-AED1-4270-89BA-BFDC1003B8A5";
paths = (
{
closed = 1;
nodes = (
"164 581 LINE",
"54 581 LINE",
"54 0 LINE",
"136 0 LINE",
"136 505 LINE",
"415 107 LINE",
"479.925 198.791 OFFCURVE",
"631.567 414.702 OFFCURVE",
"695 505 QCURVE",
"695 0 LINE",
"777 0 LINE",
"777 581 LINE",
"664 581 LINE",
"415 223 LINE"
);
}
);
width = 824;
},
{
layerId = "D465923C-ABAE-4975-85A4-08C1BC9DA335";
paths = (
{
closed = 1;
nodes = (
"213 581 LINE",
"54 581 LINE",
"54 0 LINE",
"207 0 LINE",
"207 341 LINE",
"406 60 LINE",
"604 341 LINE",
"604 0 LINE",
"758 0 LINE",
"758 581 LINE",
"598 581 LINE",
"406 304 LINE"
);
}
);
width = 824;
}
);
},
{
color = 3;
glyphname = n.sc;
lastChange = "2018-06-21 19:18:06 +0000";
layers = (
{
layerId = "17A5F7C0-AED1-4270-89BA-BFDC1003B8A5";
paths = (
{
closed = 1;
nodes = (
"165 580 LINE",
"54 580 LINE",
"54 0 LINE",
"136 0 LINE",
"136 489 LINE",
"544 0 LINE",
"655 0 LINE",
"655 580 LINE",
"573 580 LINE",
"573 92 LINE"
);
}
);
width = 708;
},
{
layerId = "D465923C-ABAE-4975-85A4-08C1BC9DA335";
paths = (
{
closed = 1;
nodes = (
"212 580 LINE",
"54 580 LINE",
"54 0 LINE",
"207 0 LINE",
"207 344 LINE",
"493 0 LINE",
"652 0 LINE",
"652 580 LINE",
"499 580 LINE",
"499 238 LINE"
);
}
);
width = 708;
}
);
},
